<svg width="12" height="12" viewBox="0 0 12 12" fill="none" xmlns="http://www.w3.org/2000/svg">
<g clip-path="url(#clip0_16_34)">
<path d="M5.99999 7.76993C5.01999 7.76993 4.22999 6.97993 4.22999 5.99993C4.22999 5.01993 5.01999 4.22993 5.99999 4.22993C6.97999 4.22993 7.76999 5.01993 7.76999 5.99993C7.76999 6.97993 6.97999 7.76993 5.99999 7.76993ZM6.41999 0.109928C2.82999 -0.140072 -0.140011 2.82993 0.109989 6.41993C0.319989 9.53993 3.04999 11.8999 6.17999 11.8999H8.35999C8.67999 11.8999 8.94999 11.6299 8.94999 11.3099C8.94999 10.9899 8.67999 10.7199 8.35999 10.7199H6.18999C3.98999 10.7199 1.96999 9.28993 1.41999 7.15993C0.539989 3.73993 3.72999 0.539928 7.15999 1.42993C9.29999 1.96993 10.73 3.98993 10.73 6.18993V6.83993C10.73 7.30993 10.31 7.76993 9.83999 7.76993C9.36999 7.76993 8.95999 7.30993 8.95999 6.83993V6.09993C8.95999 4.61993 7.90999 3.28993 6.43999 3.07993C4.42999 2.78993 2.73999 4.52993 3.09999 6.54993C3.29999 7.67993 4.17999 8.60993 5.28999 8.87993C6.37999 9.12993 7.40999 8.78993 8.08999 8.09993C8.61999 8.81993 9.66999 9.19993 10.63 8.80993C11.42 8.49993 11.91 7.68993 11.91 6.83993V6.18993C11.9 3.04993 9.54999 0.329928 6.41999 0.109928Z" fill="white"/>
</g>
<defs>
<clipPath id="clip0_16_34">
<rect width="12" height="12" fill="white"/>
</clipPath>
</defs>
</svg>
