<svg xmlns="http://www.w3.org/2000/svg" viewBox="0 0 38.74 38.74"><defs><style>.cls-1{fill:#fff;}.cls-2{fill:#16344d;}.cls-3{fill:#d65327;}</style></defs><title>placemark</title><g id="Слой_2" data-name="Слой 2"><g id="Layer_3" data-name="Layer 3"><circle class="cls-1" cx="19.37" cy="19.37" r="19.37"/><path class="cls-2" d="M36,15.32a17.12,17.12,0,0,0-33.22,0h8.09a9.66,9.66,0,0,1,1.81-2.55,9.53,9.53,0,0,1,13.48-.06A9.28,9.28,0,0,1,28,15.32Z"/><path class="cls-3" d="M2.81,23.63a17.12,17.12,0,0,0,33.11,0h-8A9.56,9.56,0,0,1,12.6,26.24a9.08,9.08,0,0,1-1.83-2.61Z"/><path class="cls-2" d="M19.63,24.06a4.7,4.7,0,0,0,3.92-1.75l-1.86-1.67a2.36,2.36,0,0,1-1.91,1,2,2,0,0,1-2.05-2.2,2,2,0,0,1,2.05-2.19,2.36,2.36,0,0,1,1.91,1l1.86-1.67a4.7,4.7,0,0,0-3.92-1.75,4.59,4.59,0,1,0,0,9.17"/><polygon class="cls-3" points="10.8 15.32 10.8 17.97 2.76 17.97 2.76 20.98 10.8 20.98 10.8 23.63 13.65 23.63 13.65 15.32 10.8 15.32"/><polygon class="cls-2" points="25.09 23.63 25.09 15.32 27.94 15.32 27.94 17.97 35.98 17.97 35.98 20.98 27.94 20.98 27.94 23.63 25.09 23.63"/></g></g></svg>