<svg width="12" height="12" viewBox="0 0 12 12" fill="none" xmlns="http://www.w3.org/2000/svg">
<g clip-path="url(#clip0_16_32)">
<path d="M10.74 8.1501L9.08001 7.9601C8.68001 7.9101 8.28001 8.0501 8.00001 8.3301L6.79001 9.5401C4.93001 8.5901 3.41001 7.0801 2.46001 5.2101L3.68001 3.9901C3.96001 3.7101 4.10001 3.3201 4.05001 2.9201L3.86001 1.2601C3.78001 0.600098 3.22001 0.100098 2.55001 0.100098H1.42001C0.680005 0.100098 0.0600055 0.720098 0.110005 1.4601C0.450005 7.0701 4.94001 11.5501 10.54 11.9001C11.28 11.9501 11.9 11.3301 11.9 10.5901V9.4501C11.91 8.7801 11.41 8.2301 10.74 8.1501ZM6.82001 2.8301C6.47001 2.7301 6.11001 2.9401 6.02001 3.3001C5.93001 3.6501 6.14001 4.0101 6.49001 4.1001C7.18001 4.2801 7.72001 4.8201 7.90001 5.5101C7.98001 5.8101 8.24001 6.0001 8.54001 6.0001C8.60001 6.0101 8.65001 6.0001 8.71001 5.9901C9.06001 5.9001 9.27001 5.5401 9.18001 5.1901C8.87001 4.0201 7.97001 3.1201 6.82001 2.8301ZM6.57001 1.4401C8.66001 1.7001 10.3 3.3401 10.56 5.4301C10.6 5.7701 10.88 6.0101 11.21 6.0101C11.24 6.0101 11.26 6.0101 11.29 6.0001C11.65 5.9501 11.91 5.6301 11.86 5.2601C11.52 2.5701 9.42001 0.460098 6.73001 0.130098C6.37001 0.0900977 6.04001 0.350098 6.00001 0.710098C5.96001 1.0701 6.21001 1.4001 6.57001 1.4401Z" fill="white"/>
</g>
<defs>
<clipPath id="clip0_16_32">
<rect width="12" height="12" fill="white"/>
</clipPath>
</defs>
</svg>
