<svg width="19" height="15" viewBox="0 0 19 15" fill="none" xmlns="http://www.w3.org/2000/svg">
<path d="M14.38 14.5799C14.31 14.5499 14.24 14.5299 14.18 14.4999C13.91 14.3299 13.63 14.1599 13.36 13.9799C12.38 13.3199 11.39 12.6599 10.41 12.0099C10.25 11.8999 10.08 11.8099 9.91001 11.7099C9.66001 11.5599 9.41001 11.5799 9.18001 11.7499C8.78001 12.0499 8.38001 12.3399 7.98001 12.6399C7.61001 12.9199 7.24001 13.1899 6.87001 13.4699C6.61001 13.6599 6.22001 13.5599 6.12001 13.2599C5.76001 12.2199 5.41001 11.1799 5.06001 10.1299C4.89001 9.62994 4.72001 9.13994 4.55001 8.63994C4.52001 8.55994 4.47001 8.51994 4.40001 8.48994C3.50001 8.17994 2.61001 7.86994 1.71001 7.54994C1.27001 7.38994 0.830007 7.22994 0.390007 7.06994C0.210007 7.00994 0.0900072 6.83994 0.100007 6.66994C0.120007 6.48994 0.210007 6.35994 0.400007 6.28994C1.94001 5.72994 3.48001 5.16994 5.02001 4.61994C9.00001 3.19994 12.98 1.78994 16.96 0.369944C17.07 0.329944 17.19 0.299944 17.3 0.249944C17.43 0.189944 17.56 0.219944 17.66 0.289944C17.74 0.339944 17.8 0.419944 17.86 0.489944C17.92 0.559944 17.89 0.639944 17.88 0.709944C17.61 1.97994 17.33 3.24994 17.05 4.50994C16.77 5.79994 16.48 7.07994 16.19 8.35994C15.84 9.88994 15.5 11.4299 15.15 12.9599C15.06 13.3699 14.96 13.7799 14.86 14.1899C14.8 14.4399 14.66 14.5499 14.38 14.5799ZM5.48001 8.35994C5.49001 8.39994 5.49001 8.44994 5.50001 8.49994C5.59001 8.83994 5.67001 9.17994 5.78001 9.51994C5.98001 10.1599 6.19001 10.7999 6.40001 11.4399C6.43001 11.5199 6.48001 11.5499 6.56001 11.5499C6.66001 11.5499 6.72001 11.4999 6.74001 11.4199C6.77001 11.3099 6.79001 11.1899 6.81001 11.0799C6.88001 10.6699 6.94001 10.2599 7.01001 9.83994C7.06001 9.59994 7.13001 9.37994 7.33001 9.19994C7.43001 9.10994 7.53001 9.00994 7.63001 8.91994C9.31001 7.46994 10.99 6.01994 12.67 4.55994C13.13 4.15994 13.58 3.75994 14.03 3.35994C14.08 3.31994 14.1 3.27994 14.06 3.22994C14.01 3.17994 13.96 3.15994 13.89 3.19994C13.85 3.22994 13.8 3.24994 13.75 3.26994C12.09 4.20994 10.43 5.13994 8.78001 6.07994C7.78001 6.66994 6.78001 7.24994 5.78001 7.82994C5.58001 7.94994 5.49001 8.12994 5.48001 8.35994Z" fill="white"/>
</svg>
