<svg width="16" height="11" viewBox="0 0 16 11" fill="none" xmlns="http://www.w3.org/2000/svg">
<path d="M0.0400279 5.65002C0.0400279 5.23002 0.0300279 4.82002 0.0400279 4.40002C0.0600279 3.98002 0.100028 3.56002 0.130028 3.15002C0.160028 2.74002 0.190028 2.33002 0.310028 1.94002C0.440028 1.50002 0.590028 1.07002 0.950028 0.75002C1.25003 0.49002 1.58003 0.31002 1.97003 0.25002C2.30003 0.20002 2.64003 0.18002 2.97003 0.16002C3.49003 0.12002 4.00003 0.10002 4.52003 0.0800195C4.75003 0.0700195 4.98003 0.0700195 5.20003 0.0600195C5.58003 0.0500195 5.97003 0.0400195 6.35003 0.0400195C7.43003 0.0300195 8.51003 0.0200195 9.58003 0.0200195C9.94003 0.0200195 10.3 0.0300195 10.66 0.0400195C11.13 0.0500195 11.59 0.0700195 12.06 0.0800195C12.36 0.0900195 12.67 0.10002 12.97 0.12002C13.35 0.15002 13.74 0.17002 14.12 0.23002C14.73 0.33002 15.21 0.65002 15.51 1.20002C15.73 1.60002 15.85 2.03002 15.9 2.48002C15.95 3.03002 16 3.59002 16.03 4.15002C16.05 4.57002 16.05 4.99002 16.05 5.41002C16.05 5.92002 16.06 6.43002 16.04 6.94002C16.02 7.41002 15.98 7.89002 15.94 8.36002C15.91 8.66002 15.87 8.97002 15.81 9.27002C15.74 9.59002 15.63 9.90002 15.46 10.18C15.23 10.55 14.9 10.79 14.5 10.95C14.19 11.07 13.86 11.1 13.54 11.12C13.05 11.15 12.56 11.17 12.08 11.19C11.98 11.19 11.87 11.2 11.77 11.21C11.04 11.23 10.31 11.26 9.59003 11.27C8.72003 11.28 7.85003 11.28 6.98003 11.28C6.62003 11.28 6.26003 11.27 5.90003 11.26C5.28003 11.24 4.65003 11.23 4.03003 11.21C3.77003 11.2 3.50003 11.19 3.24003 11.18C2.70003 11.14 2.17003 11.12 1.65003 10.95C1.05003 10.75 0.660028 10.35 0.450028 9.76002C0.290028 9.32002 0.200028 8.86002 0.170028 8.39002C0.120028 7.97002 0.0800279 7.55002 0.0700279 7.12002C0.0600279 6.63002 0.0700279 6.14002 0.0700279 5.64002C0.0600279 5.65002 0.0500279 5.65002 0.0400279 5.65002ZM6.39003 7.73002C7.84003 6.98002 9.27003 6.24002 10.72 5.48002C9.27003 4.73002 7.83003 3.98002 6.39003 3.22002C6.39003 4.73002 6.39003 6.22002 6.39003 7.73002Z" fill="white"/>
</svg>
