<svg width="18" height="10" viewBox="0 0 18 10" fill="none" xmlns="http://www.w3.org/2000/svg">
<g clip-path="url(#clip0_16_28)">
<path d="M5.86 0.759937C6.06 0.329937 6.43 0.189937 6.82 0.169937C7.65 0.139937 8.48 0.129937 9.31 0.169937C9.99 0.199937 10.21 0.479937 10.21 1.16994C10.2 1.96994 10.17 2.76994 10.17 3.56994C10.17 3.85994 10.18 4.15994 10.26 4.43994C10.39 4.90994 10.68 4.98994 11.02 4.63994C11.35 4.28994 11.68 3.91994 11.91 3.49994C12.37 2.68994 12.78 1.84994 13.19 1.00994C13.34 0.699937 13.53 0.529937 13.89 0.539937C14.81 0.549937 15.72 0.539937 16.64 0.539937C17.25 0.539937 17.47 0.799937 17.19 1.34994C16.84 2.04994 16.4 2.70994 15.96 3.35994C15.62 3.87994 15.21 4.34994 14.84 4.84994C14.34 5.51994 14.38 5.80994 14.99 6.39994C15.52 6.90994 16.05 7.42994 16.55 7.96994C16.82 8.25994 17.03 8.60994 17.22 8.94994C17.4 9.29994 17.27 9.59994 16.9 9.70994C16.65 9.77994 16.38 9.80994 16.12 9.81994C15.52 9.83994 14.92 9.81994 14.32 9.84994C13.71 9.87994 13.2 9.65994 12.79 9.23994C12.38 8.82994 12 8.38994 11.6 7.97994C11.39 7.75994 11.16 7.49994 10.82 7.58994C10.46 7.68994 10.35 8.02994 10.28 8.34994C10.22 8.59994 10.21 8.86994 10.19 9.12994C10.16 9.46994 10.02 9.68994 9.72 9.69994C8.31 9.78994 6.93 9.67994 5.67 8.90994C4.67 8.29994 3.91 7.44994 3.24 6.50994C2.06 4.84994 1.11 3.04994 0.280001 1.19994C0.100001 0.779937 0.240001 0.549937 0.710001 0.549937C1.51 0.539937 2.31 0.539937 3.11 0.539937C3.45 0.539937 3.67 0.709937 3.82 1.01994C4.27 1.90994 4.72 2.79994 5.21 3.66994C5.42 4.03994 5.71 4.37994 6.01 4.67994C6.35 5.02994 6.71 4.92994 6.79 4.44994C6.89 3.84994 6.89 3.23994 6.93 2.62994C6.94 2.47994 6.92 2.33994 6.92 2.18994C6.85 1.07994 6.59 0.979937 5.86 0.759937Z" fill="white"/>
</g>
<defs>
<clipPath id="clip0_16_28">
<rect width="17.5" height="10" fill="white"/>
</clipPath>
</defs>
</svg>
