<svg width="1150" height="628" viewBox="0 0 1150 628" fill="none" xmlns="http://www.w3.org/2000/svg">
<g clip-path="url(#clip0_27_2)">
<path d="M61.7699 158.78C52.0786 158.78 42.605 161.654 34.547 167.038C26.489 172.422 20.2085 180.075 16.4998 189.029C12.7911 197.982 11.8208 207.835 13.7114 217.34C15.6021 226.845 20.2689 235.576 27.1217 242.429C33.9745 249.281 42.7054 253.948 52.2105 255.839C61.7156 257.729 71.5678 256.759 80.5214 253.05C89.475 249.342 97.1277 243.061 102.512 235.003C107.896 226.945 110.77 217.472 110.77 207.78C110.754 194.79 105.586 182.335 96.4006 173.15C87.2148 163.964 74.7607 158.796 61.7699 158.78Z" fill="#D65327"/>
<path d="M61.7699 245.9C82.823 245.9 99.8899 228.833 99.8899 207.78C99.8899 186.727 82.823 169.66 61.7699 169.66C40.7168 169.66 23.6499 186.727 23.6499 207.78C23.6499 228.833 40.7168 245.9 61.7699 245.9Z" fill="#D65327"/>
<path d="M38.58 216.9H33.5C32.74 216.9 32.44 216.66 32.44 216.07C32.44 215.48 32.79 215.18 33.49 215.18H38.58V199.84H33.31C32.73 199.84 32.46 199.58 32.44 199.07C32.4212 198.953 32.4295 198.833 32.4642 198.719C32.4988 198.606 32.559 198.502 32.64 198.415C32.721 198.328 32.8208 198.261 32.9317 198.219C33.0426 198.176 33.1617 198.16 33.28 198.17C34.55 198.17 35.83 198.17 37.11 198.17H38.59V182.86C38.43 182.86 38.27 182.86 38.1 182.86H33.46C32.98 182.86 32.56 182.78 32.46 182.2C32.43 182.072 32.4315 181.938 32.4644 181.81C32.4973 181.682 32.5607 181.564 32.649 181.465C32.7374 181.367 32.8482 181.292 32.972 181.246C33.0958 181.199 33.2289 181.184 33.36 181.2H38.63V172.9C38.63 172.45 38.69 172.04 39.22 171.9C39.75 171.76 40.36 172.12 40.36 172.9C40.36 175.36 40.36 177.82 40.36 180.27V181.18H47V172.93C47 172.48 47 172.06 47.56 171.93C48.12 171.8 48.61 172.18 48.61 172.93C48.61 175.19 48.61 177.46 48.61 179.72V181.24H76.36V172.95C76.36 172.46 76.47 172.07 77.03 171.95C77.59 171.83 78.09 172.22 78.09 172.95V181.2H84.6V180.58C84.6 178.03 84.6 175.47 84.6 172.92C84.6 172.19 84.95 171.82 85.6 171.92C85.7015 171.925 85.8009 171.951 85.8919 171.996C85.9828 172.041 86.0634 172.105 86.1283 172.183C86.1933 172.261 86.2412 172.352 86.269 172.449C86.2969 172.547 86.304 172.65 86.29 172.75C86.29 175.42 86.35 178.09 86.38 180.75C86.38 180.86 86.38 180.97 86.38 181.14H91.73C91.8272 181.128 91.926 181.135 92.0201 181.163C92.1141 181.19 92.2015 181.237 92.2767 181.3C92.3518 181.363 92.4131 181.441 92.4567 181.529C92.5003 181.616 92.5253 181.712 92.53 181.81C92.5598 181.915 92.5677 182.025 92.5533 182.134C92.5389 182.242 92.5025 182.346 92.4463 182.44C92.3901 182.534 92.3153 182.615 92.2265 182.679C92.1377 182.742 92.0368 182.787 91.93 182.81C91.7036 182.86 91.4716 182.881 91.24 182.87H86.38V198H91.61C92.23 198 92.52 198.26 92.54 198.78C92.5507 198.902 92.5345 199.025 92.4925 199.141C92.4506 199.256 92.3839 199.361 92.2971 199.447C92.2104 199.534 92.1057 199.601 91.9905 199.643C91.8752 199.685 91.7522 199.701 91.63 199.69C90.08 199.69 88.54 199.69 86.99 199.69H86.38V214.8H88.23C89.35 214.8 90.48 214.8 91.6 214.8C92.25 214.8 92.54 215.08 92.54 215.64C92.54 216.2 92.21 216.48 91.54 216.49C90.17 216.49 88.79 216.49 87.42 216.49H86.38V231.79H86.92H91.51C91.95 231.79 92.37 231.87 92.51 232.4C92.65 232.93 92.3 233.51 91.57 233.51H86.37V238.36H94.91C95.67 238.36 95.98 238.61 95.98 239.19C95.98 239.77 95.62 240.05 94.91 240.05H30.19C29.39 240.05 29 239.74 29.12 239.13C29.2211 238.87 29.3821 238.637 29.59 238.45C29.6369 238.428 29.6881 238.416 29.74 238.416C29.7919 238.416 29.8431 238.428 29.89 238.45C30.03 238.97 30.45 238.76 30.75 238.76C33.35 238.76 35.94 238.76 38.58 238.76V234H34.12C33.85 234 33.58 234 33.31 234C32.72 234 32.43 233.69 32.44 233.15C32.4341 233.034 32.453 232.917 32.4953 232.808C32.5375 232.699 32.6023 232.601 32.6854 232.518C32.7685 232.436 32.8679 232.373 32.9773 232.332C33.0866 232.291 33.2034 232.273 33.32 232.28C34.79 232.28 36.26 232.28 37.73 232.28H38.58V216.9ZM48.58 231.26L74 216.59L73.94 216.51H48.62L48.58 231.26ZM76.41 214.32V199.69H50.93L76.41 214.32ZM73.89 214.84V214.72L48.63 200.2V214.84H73.89ZM76.4 183.37L51.07 197.92V198.02H76.44L76.4 183.37ZM76.4 231.77V217.14L51.1 231.67V231.77H76.4ZM48.59 182.77V197.39L74 182.86V182.76L48.59 182.77ZM48.59 238.22H76.31V233.46H48.63L48.59 238.22ZM84.69 198V182.76H78.13V198H84.69ZM47 199.69H40.4V214.92H47V199.69ZM78.15 216.49V231.76H84.7V216.49H78.15ZM40.39 233.43V238.22H47V233.43H40.39ZM84.7 233.55H78.13V238.32H84.7V233.55ZM78.11 202.19H84.68V199.68H78.11V202.19ZM78.11 206.47H84.68V204H78.11V206.47ZM78.11 210.65H84.66V208.14H78.12L78.11 210.65ZM78.11 214.83H84.68V212.33H78.11V214.83ZM47 216.51H40.39V219H47V216.51ZM40.43 185.25H46.98V182.76H40.39L40.43 185.25ZM47 189.56V187H40.4V189.52L47 189.56ZM40.45 191.21V193.73H47V191.21H40.45ZM47 195.41H40.41V197.91H47V195.41ZM47 223.3V220.78H40.39V223.3H47ZM40.4 225V227.53H47V225H40.4ZM40.4 229.29V231.8H47V229.29H40.4Z" fill="white"/>
<path d="M1087.26 460.78C1077.57 460.78 1068.1 457.906 1060.04 452.522C1051.98 447.138 1045.7 439.485 1041.99 430.532C1038.28 421.578 1037.31 411.726 1039.2 402.221C1041.09 392.716 1045.76 383.985 1052.61 377.132C1059.46 370.279 1068.2 365.612 1077.7 363.722C1087.21 361.831 1097.06 362.801 1106.01 366.51C1114.97 370.219 1122.62 376.499 1128 384.557C1133.39 392.615 1136.26 402.089 1136.26 411.78C1136.24 424.771 1131.08 437.225 1121.89 446.411C1112.7 455.597 1100.25 460.764 1087.26 460.78Z" fill="#D65327"/>
<path d="M1087.26 447.33C1106.89 447.33 1122.81 431.414 1122.81 411.78C1122.81 392.146 1106.89 376.23 1087.26 376.23C1067.63 376.23 1051.71 392.146 1051.71 411.78C1051.71 431.414 1067.63 447.33 1087.26 447.33Z" fill="#D65327"/>
<path d="M1107.8 417.82C1105.13 416.545 1102.07 416.359 1099.26 417.3C1096.79 418.118 1094.66 419.748 1093.23 421.927C1091.8 424.106 1091.15 426.704 1091.38 429.3C1091.63 432.058 1092.85 434.638 1094.82 436.58H1070.28C1068.85 436.58 1068.28 435.9 1068.16 434.46C1068.08 434.023 1068.14 433.571 1068.34 433.175C1068.54 432.778 1068.87 432.46 1069.27 432.27C1070.05 431.825 1070.68 431.154 1071.06 430.344C1071.45 429.535 1071.58 428.626 1071.44 427.74C1071.38 426.894 1071.09 426.08 1070.6 425.386C1070.11 424.692 1069.45 424.144 1068.67 423.8C1068.5 423.745 1068.36 423.632 1068.27 423.482C1068.18 423.332 1068.14 423.154 1068.17 422.98C1068.17 420.98 1068.17 418.92 1068.17 416.89C1068.15 416.751 1068.18 416.609 1068.26 416.491C1068.33 416.372 1068.45 416.283 1068.58 416.24C1069.45 415.851 1070.19 415.22 1070.7 414.421C1071.22 413.623 1071.5 412.691 1071.5 411.74C1071.5 410.788 1071.22 409.857 1070.7 409.059C1070.19 408.26 1069.45 407.629 1068.58 407.24C1068.45 407.203 1068.34 407.123 1068.27 407.013C1068.2 406.903 1068.17 406.771 1068.18 406.64C1068.18 404.54 1068.18 402.43 1068.18 400.33C1068.17 400.207 1068.19 400.082 1068.26 399.978C1068.33 399.874 1068.43 399.797 1068.55 399.76C1069.42 399.375 1070.16 398.744 1070.68 397.945C1071.2 397.146 1071.48 396.213 1071.48 395.26C1071.48 394.307 1071.2 393.374 1070.68 392.575C1070.16 391.776 1069.42 391.145 1068.55 390.76C1068.44 390.724 1068.35 390.652 1068.29 390.555C1068.22 390.459 1068.2 390.344 1068.21 390.23C1068.21 389.7 1068.21 389.16 1068.21 388.63C1068.21 388.405 1068.25 388.183 1068.33 387.975C1068.42 387.767 1068.54 387.578 1068.7 387.418C1068.86 387.259 1069.05 387.133 1069.26 387.048C1069.46 386.962 1069.69 386.919 1069.91 386.92C1070.06 386.92 1070.2 386.92 1070.35 386.92H1105.69C1107.26 386.92 1107.83 387.5 1107.83 389.07V417.77L1107.8 417.82ZM1080.69 403.2C1083.02 400.93 1085.31 398.62 1087.59 396.3C1087.78 396.053 1087.9 395.754 1087.93 395.44C1087.96 395.127 1087.89 394.812 1087.74 394.536C1087.59 394.259 1087.36 394.033 1087.09 393.884C1086.81 393.736 1086.49 393.672 1086.18 393.7C1085.72 393.79 1085.3 394.009 1084.96 394.33C1083.2 396.03 1081.49 397.78 1079.68 399.59C1078.78 398.67 1077.96 397.79 1077.09 396.96C1076.94 396.806 1076.76 396.684 1076.56 396.6C1076.36 396.516 1076.15 396.472 1075.93 396.471C1075.71 396.47 1075.5 396.511 1075.3 396.592C1075.1 396.673 1074.92 396.793 1074.77 396.945C1074.61 397.097 1074.49 397.277 1074.41 397.476C1074.32 397.675 1074.28 397.888 1074.28 398.104C1074.27 398.32 1074.32 398.534 1074.4 398.734C1074.48 398.934 1074.6 399.116 1074.75 399.27C1076.01 400.603 1077.29 401.88 1078.59 403.1M1079.67 412.74C1078.83 411.88 1078.04 411.07 1077.24 410.27C1077.09 410.09 1076.91 409.942 1076.7 409.837C1076.5 409.733 1076.27 409.672 1076.04 409.661C1075.8 409.649 1075.57 409.687 1075.35 409.771C1075.14 409.854 1074.94 409.983 1074.78 410.148C1074.61 410.312 1074.49 410.51 1074.4 410.727C1074.32 410.944 1074.28 411.176 1074.3 411.408C1074.31 411.64 1074.37 411.867 1074.48 412.074C1074.58 412.281 1074.73 412.464 1074.91 412.61C1076.07 413.78 1077.23 414.95 1078.4 416.1C1078.56 416.296 1078.75 416.454 1078.98 416.562C1079.2 416.671 1079.45 416.728 1079.7 416.728C1079.95 416.728 1080.2 416.671 1080.42 416.562C1080.65 416.454 1080.84 416.296 1081 416.1C1083.11 414 1085.21 411.893 1087.32 409.78C1087.49 409.631 1087.64 409.447 1087.73 409.24C1087.83 409.034 1087.89 408.809 1087.9 408.58C1087.91 408.351 1087.87 408.123 1087.78 407.909C1087.7 407.696 1087.57 407.503 1087.41 407.342C1087.24 407.18 1087.05 407.054 1086.84 406.972C1086.62 406.889 1086.39 406.852 1086.17 406.862C1085.94 406.872 1085.71 406.93 1085.51 407.031C1085.3 407.132 1085.12 407.275 1084.97 407.45L1080.16 412.25L1079.67 412.74ZM1079.67 425.93C1078.78 425.02 1077.97 424.16 1077.12 423.34C1076.97 423.172 1076.79 423.037 1076.59 422.942C1076.38 422.847 1076.16 422.794 1075.94 422.787C1075.71 422.78 1075.49 422.819 1075.28 422.901C1075.07 422.983 1074.88 423.107 1074.73 423.265C1074.57 423.423 1074.44 423.611 1074.36 423.819C1074.27 424.027 1074.23 424.25 1074.24 424.474C1074.24 424.698 1074.29 424.919 1074.39 425.123C1074.48 425.327 1074.61 425.51 1074.78 425.66C1076 426.91 1077.24 428.16 1078.5 429.38C1078.65 429.546 1078.84 429.679 1079.04 429.769C1079.25 429.86 1079.47 429.907 1079.7 429.907C1079.93 429.907 1080.15 429.86 1080.36 429.769C1080.56 429.679 1080.75 429.546 1080.9 429.38C1081.25 429.06 1081.57 428.71 1081.9 428.38C1083.72 426.55 1085.55 424.74 1087.36 422.9C1087.53 422.753 1087.67 422.572 1087.76 422.37C1087.86 422.167 1087.91 421.947 1087.92 421.722C1087.93 421.498 1087.89 421.274 1087.81 421.066C1087.72 420.857 1087.6 420.668 1087.44 420.51C1087.28 420.35 1087.09 420.223 1086.89 420.139C1086.68 420.054 1086.45 420.013 1086.23 420.017C1086 420.022 1085.78 420.072 1085.58 420.166C1085.37 420.259 1085.19 420.393 1085.04 420.56C1084.73 420.85 1084.44 421.15 1084.15 421.45L1079.67 425.93ZM1097.92 400.25H1102.74C1102.97 400.268 1103.19 400.238 1103.41 400.164C1103.62 400.089 1103.82 399.971 1103.99 399.816C1104.16 399.662 1104.29 399.474 1104.38 399.266C1104.47 399.057 1104.52 398.832 1104.52 398.605C1104.52 398.377 1104.47 398.152 1104.38 397.944C1104.29 397.736 1104.16 397.548 1103.99 397.394C1103.82 397.239 1103.62 397.121 1103.41 397.046C1103.19 396.972 1102.97 396.942 1102.74 396.96H1093.1C1092.87 396.942 1092.65 396.972 1092.43 397.046C1092.22 397.121 1092.02 397.239 1091.85 397.394C1091.68 397.548 1091.55 397.736 1091.46 397.944C1091.37 398.152 1091.32 398.377 1091.32 398.605C1091.32 398.832 1091.37 399.057 1091.46 399.266C1091.55 399.474 1091.68 399.662 1091.85 399.816C1092.02 399.971 1092.22 400.089 1092.43 400.164C1092.65 400.238 1092.87 400.268 1093.1 400.25H1097.92ZM1097.92 413.42H1102.74C1102.97 413.438 1103.19 413.408 1103.41 413.334C1103.62 413.259 1103.82 413.141 1103.99 412.986C1104.16 412.832 1104.29 412.644 1104.38 412.436C1104.47 412.227 1104.52 412.002 1104.52 411.775C1104.52 411.547 1104.47 411.322 1104.38 411.114C1104.29 410.906 1104.16 410.718 1103.99 410.564C1103.82 410.409 1103.62 410.291 1103.41 410.216C1103.19 410.142 1102.97 410.112 1102.74 410.13H1093.1C1092.87 410.112 1092.65 410.142 1092.43 410.216C1092.22 410.291 1092.02 410.409 1091.85 410.564C1091.68 410.718 1091.55 410.906 1091.46 411.114C1091.37 411.322 1091.32 411.547 1091.32 411.775C1091.32 412.002 1091.37 412.227 1091.46 412.436C1091.55 412.644 1091.68 412.832 1091.85 412.986C1092.02 413.141 1092.22 413.259 1092.43 413.334C1092.65 413.408 1092.87 413.438 1093.1 413.42H1097.92Z" fill="white"/>
<path d="M1094.63 428.25C1094.65 426.627 1095.15 425.046 1096.07 423.705C1096.98 422.365 1098.27 421.326 1099.78 420.718C1101.28 420.111 1102.94 419.962 1104.53 420.291C1106.12 420.619 1107.57 421.411 1108.71 422.566C1109.85 423.721 1110.63 425.187 1110.94 426.781C1111.25 428.375 1111.08 430.024 1110.45 431.522C1109.83 433.02 1108.77 434.3 1107.42 435.2C1106.07 436.1 1104.48 436.58 1102.86 436.58C1100.66 436.564 1098.57 435.678 1097.02 434.117C1095.48 432.555 1094.62 430.445 1094.63 428.25ZM1104.51 426.6V425C1104.53 424.773 1104.5 424.545 1104.42 424.33C1104.35 424.115 1104.23 423.918 1104.08 423.751C1103.92 423.584 1103.73 423.451 1103.53 423.36C1103.32 423.269 1103.09 423.222 1102.86 423.222C1102.64 423.222 1102.41 423.269 1102.2 423.36C1102 423.451 1101.81 423.584 1101.65 423.751C1101.5 423.918 1101.38 424.115 1101.31 424.33C1101.23 424.545 1101.2 424.773 1101.22 425C1101.22 426.1 1101.22 427.19 1101.22 428.29C1101.22 428.506 1101.26 428.721 1101.34 428.921C1101.42 429.121 1101.54 429.303 1101.69 429.455C1101.85 429.608 1102.03 429.727 1102.23 429.807C1102.43 429.887 1102.64 429.926 1102.86 429.92C1103.96 429.92 1105.05 429.92 1106.15 429.92C1106.37 429.92 1106.58 429.878 1106.78 429.795C1106.98 429.713 1107.16 429.592 1107.31 429.44C1107.46 429.287 1107.58 429.107 1107.67 428.908C1107.75 428.709 1107.79 428.495 1107.79 428.28C1107.79 428.065 1107.75 427.851 1107.67 427.653C1107.58 427.454 1107.46 427.273 1107.31 427.12C1107.16 426.968 1106.98 426.847 1106.78 426.765C1106.58 426.683 1106.37 426.64 1106.15 426.64C1105.61 426.59 1105.08 426.6 1104.51 426.6Z" fill="white"/>
<path d="M1064.86 393.66C1065.39 393.66 1065.92 393.66 1066.45 393.66C1066.68 393.643 1066.9 393.672 1067.12 393.747C1067.33 393.821 1067.53 393.94 1067.7 394.094C1067.87 394.249 1068 394.436 1068.09 394.644C1068.18 394.853 1068.23 395.078 1068.23 395.305C1068.23 395.533 1068.18 395.758 1068.09 395.966C1068 396.175 1067.87 396.362 1067.7 396.517C1067.53 396.671 1067.33 396.789 1067.12 396.864C1066.9 396.939 1066.68 396.968 1066.45 396.95C1065.38 396.95 1064.3 396.95 1063.22 396.95C1062.99 396.968 1062.77 396.939 1062.55 396.864C1062.34 396.789 1062.14 396.671 1061.97 396.517C1061.8 396.362 1061.67 396.175 1061.58 395.966C1061.49 395.758 1061.44 395.533 1061.44 395.305C1061.44 395.078 1061.49 394.853 1061.58 394.644C1061.67 394.436 1061.8 394.249 1061.97 394.094C1062.14 393.94 1062.34 393.821 1062.55 393.747C1062.77 393.672 1062.99 393.643 1063.22 393.66C1063.76 393.65 1064.31 393.66 1064.86 393.66Z" fill="white"/>
<path d="M1064.8 413.42C1064.27 413.42 1063.74 413.42 1063.21 413.42C1062.98 413.438 1062.76 413.408 1062.54 413.334C1062.33 413.259 1062.13 413.141 1061.96 412.986C1061.79 412.832 1061.66 412.644 1061.57 412.436C1061.48 412.228 1061.43 412.002 1061.43 411.775C1061.43 411.547 1061.48 411.322 1061.57 411.114C1061.66 410.906 1061.79 410.718 1061.96 410.564C1062.13 410.409 1062.33 410.291 1062.54 410.216C1062.76 410.142 1062.98 410.112 1063.21 410.13C1064.29 410.13 1065.36 410.13 1066.44 410.13C1066.67 410.112 1066.89 410.142 1067.11 410.216C1067.32 410.291 1067.52 410.409 1067.69 410.564C1067.86 410.718 1067.99 410.906 1068.08 411.114C1068.17 411.322 1068.22 411.547 1068.22 411.775C1068.22 412.002 1068.17 412.228 1068.08 412.436C1067.99 412.644 1067.86 412.832 1067.69 412.986C1067.52 413.141 1067.32 413.259 1067.11 413.334C1066.89 413.408 1066.67 413.438 1066.44 413.42C1065.89 413.44 1065.34 413.42 1064.8 413.42Z" fill="white"/>
<path d="M1064.85 426.59C1065.38 426.59 1065.91 426.59 1066.43 426.59C1066.87 426.59 1067.28 426.763 1067.59 427.071C1067.9 427.378 1068.07 427.795 1068.07 428.23C1068.07 428.665 1067.9 429.082 1067.59 429.39C1067.28 429.697 1066.87 429.87 1066.43 429.87C1065.36 429.87 1064.28 429.87 1063.21 429.87C1062.98 429.888 1062.76 429.859 1062.54 429.784C1062.33 429.709 1062.13 429.591 1061.96 429.436C1061.79 429.282 1061.66 429.095 1061.57 428.886C1061.48 428.678 1061.43 428.453 1061.43 428.225C1061.43 427.998 1061.48 427.773 1061.57 427.564C1061.66 427.356 1061.79 427.168 1061.96 427.014C1062.13 426.859 1062.33 426.741 1062.54 426.667C1062.76 426.592 1062.98 426.562 1063.21 426.58C1063.75 426.58 1064.3 426.59 1064.85 426.59Z" fill="white"/>
<path d="M1097.93 400.25H1093.1C1092.87 400.268 1092.65 400.238 1092.43 400.164C1092.22 400.089 1092.02 399.971 1091.85 399.816C1091.68 399.662 1091.55 399.475 1091.46 399.266C1091.37 399.058 1091.32 398.833 1091.32 398.605C1091.32 398.378 1091.37 398.153 1091.46 397.944C1091.55 397.736 1091.68 397.548 1091.85 397.394C1092.02 397.239 1092.22 397.121 1092.43 397.046C1092.65 396.972 1092.87 396.942 1093.1 396.96H1102.74C1102.97 396.942 1103.19 396.972 1103.41 397.046C1103.62 397.121 1103.82 397.239 1103.99 397.394C1104.16 397.548 1104.29 397.736 1104.38 397.944C1104.47 398.153 1104.52 398.378 1104.52 398.605C1104.52 398.833 1104.47 399.058 1104.38 399.266C1104.29 399.475 1104.16 399.662 1103.99 399.816C1103.82 399.971 1103.62 400.089 1103.41 400.164C1103.19 400.238 1102.97 400.268 1102.74 400.25H1097.93Z" fill="#D65327"/>
<path d="M1097.93 413.42H1093.11C1092.88 413.438 1092.66 413.408 1092.44 413.334C1092.23 413.259 1092.03 413.141 1091.86 412.986C1091.69 412.832 1091.56 412.644 1091.47 412.436C1091.38 412.228 1091.33 412.002 1091.33 411.775C1091.33 411.547 1091.38 411.322 1091.47 411.114C1091.56 410.906 1091.69 410.718 1091.86 410.564C1092.03 410.409 1092.23 410.291 1092.44 410.216C1092.66 410.142 1092.88 410.112 1093.11 410.13H1102.75C1102.98 410.112 1103.2 410.142 1103.42 410.216C1103.63 410.291 1103.83 410.409 1104 410.564C1104.17 410.718 1104.3 410.906 1104.39 411.114C1104.48 411.322 1104.53 411.547 1104.53 411.775C1104.53 412.002 1104.48 412.228 1104.39 412.436C1104.3 412.644 1104.17 412.832 1104 412.986C1103.83 413.141 1103.63 413.259 1103.42 413.334C1103.2 413.408 1102.98 413.438 1102.75 413.42H1097.93Z" fill="#D65327"/>
<path d="M1104.51 426.6C1105.08 426.6 1105.61 426.6 1106.13 426.6C1106.56 426.6 1106.98 426.773 1107.29 427.08C1107.6 427.388 1107.77 427.805 1107.77 428.24C1107.77 428.675 1107.6 429.092 1107.29 429.4C1106.98 429.707 1106.56 429.88 1106.13 429.88C1105.03 429.88 1103.94 429.88 1102.84 429.88C1102.62 429.885 1102.41 429.847 1102.21 429.767C1102.01 429.687 1101.82 429.568 1101.67 429.415C1101.52 429.263 1101.4 429.081 1101.32 428.881C1101.24 428.681 1101.2 428.466 1101.2 428.25C1101.2 427.15 1101.2 426.06 1101.2 424.96C1101.18 424.733 1101.21 424.505 1101.29 424.29C1101.36 424.075 1101.48 423.878 1101.63 423.711C1101.79 423.544 1101.98 423.411 1102.18 423.32C1102.39 423.229 1102.62 423.182 1102.84 423.182C1103.07 423.182 1103.3 423.229 1103.51 423.32C1103.71 423.411 1103.9 423.544 1104.06 423.711C1104.21 423.878 1104.33 424.075 1104.4 424.29C1104.48 424.505 1104.51 424.733 1104.49 424.96L1104.51 426.6Z" fill="#D65327"/>
<path d="M574.29 427.84V429.76C589.477 429.752 604.508 426.701 618.497 420.79C632.486 414.878 645.149 406.225 655.74 395.34C677.374 373.088 689.478 343.276 689.478 312.24C689.478 281.204 677.374 251.392 655.74 229.14C645.154 218.248 632.49 209.59 618.499 203.678C604.508 197.765 589.474 194.719 574.285 194.719C559.096 194.719 544.061 197.765 530.07 203.678C516.079 209.59 503.416 218.248 492.83 229.14C471.195 251.392 459.092 281.204 459.092 312.24C459.092 343.276 471.195 373.088 492.83 395.34C503.422 406.225 516.087 414.879 530.078 420.79C544.069 426.702 559.102 429.752 574.29 429.76V425.92C559.597 425.913 545.054 422.963 531.52 417.244C517.986 411.525 505.735 403.152 495.49 392.62C474.561 371.096 462.852 342.257 462.852 312.235C462.852 282.213 474.561 253.374 495.49 231.85C505.73 221.312 517.979 212.936 531.513 207.216C545.047 201.496 559.592 198.549 574.285 198.549C588.978 198.549 603.522 201.496 617.056 207.216C630.591 212.936 642.84 221.312 653.08 231.85C674.009 253.374 685.718 282.213 685.718 312.235C685.718 342.257 674.009 371.096 653.08 392.62C642.836 403.151 630.587 411.523 617.054 417.242C603.522 422.962 588.981 425.912 574.29 425.92V427.84Z" fill="white"/>
<path d="M742.85 207.78H1026.85" stroke="#78B6E3" stroke-width="2" stroke-miterlimit="10"/>
<path d="M743.11 213.04C746.015 213.04 748.37 210.685 748.37 207.78C748.37 204.875 746.015 202.52 743.11 202.52C740.205 202.52 737.85 204.875 737.85 207.78C737.85 210.685 740.205 213.04 743.11 213.04Z" fill="#78B6E3"/>
<path d="M741.46 415.57H1025.46" stroke="#78B6E3" stroke-width="2" stroke-miterlimit="10"/>
<path d="M741.72 420.83C744.625 420.83 746.98 418.475 746.98 415.57C746.98 412.665 744.625 410.31 741.72 410.31C738.815 410.31 736.46 412.665 736.46 415.57C736.46 418.475 738.815 420.83 741.72 420.83Z" fill="#78B6E3"/>
<path d="M756.75 260.74H782.75" stroke="#78B6E3" stroke-width="2" stroke-miterlimit="10"/>
<path d="M757.01 266C759.915 266 762.27 263.645 762.27 260.74C762.27 257.835 759.915 255.48 757.01 255.48C754.105 255.48 751.75 257.835 751.75 260.74C751.75 263.645 754.105 266 757.01 266Z" fill="#78B6E3"/>
<path d="M403.96 208.51H119.96" stroke="#78B6E3" stroke-width="2" stroke-miterlimit="10"/>
<path d="M403.69 203.25C404.733 203.248 405.753 203.556 406.622 204.134C407.49 204.712 408.167 205.535 408.567 206.499C408.967 207.462 409.072 208.522 408.869 209.546C408.666 210.569 408.164 211.509 407.426 212.246C406.689 212.984 405.749 213.486 404.726 213.689C403.702 213.892 402.642 213.787 401.679 213.387C400.715 212.987 399.892 212.31 399.314 211.442C398.736 210.573 398.428 209.553 398.43 208.51C398.433 207.116 398.988 205.779 399.973 204.794C400.959 203.808 402.296 203.253 403.69 203.25Z" fill="#78B6E3"/>
<path d="M405.35 416.3H121.35" stroke="#78B6E3" stroke-width="2" stroke-miterlimit="10"/>
<path d="M405.08 411C406.12 411 407.137 411.308 408.002 411.886C408.867 412.464 409.541 413.286 409.939 414.247C410.338 415.208 410.442 416.266 410.239 417.286C410.036 418.307 409.535 419.244 408.799 419.979C408.064 420.715 407.126 421.216 406.106 421.419C405.086 421.622 404.028 421.518 403.067 421.12C402.106 420.721 401.284 420.047 400.706 419.182C400.128 418.317 399.82 417.3 399.82 416.26C399.82 414.865 400.374 413.527 401.36 412.541C402.347 411.554 403.685 411 405.08 411Z" fill="#78B6E3"/>
<path d="M390.06 261.47H364.06" stroke="#78B6E3" stroke-width="2" stroke-miterlimit="10"/>
<path d="M389.8 256.21C390.84 256.212 391.856 256.522 392.72 257.101C393.583 257.68 394.256 258.503 394.652 259.464C395.049 260.425 395.152 261.483 394.948 262.502C394.744 263.522 394.242 264.458 393.506 265.193C392.77 265.928 391.833 266.427 390.813 266.63C389.792 266.832 388.735 266.727 387.775 266.329C386.814 265.93 385.993 265.256 385.416 264.391C384.838 263.526 384.53 262.51 384.53 261.47C384.53 260.778 384.666 260.094 384.931 259.455C385.196 258.816 385.585 258.236 386.074 257.747C386.564 257.258 387.145 256.871 387.784 256.607C388.423 256.344 389.108 256.209 389.8 256.21Z" fill="#78B6E3"/>
<path d="M573.48 125.07V127C581.685 126.996 589.806 125.348 597.363 122.154C604.92 118.959 611.76 114.283 617.48 108.4C629.169 96.3788 635.709 80.2725 635.709 63.5051C635.709 46.7377 629.169 30.6315 617.48 18.6101C611.762 12.7255 604.922 8.04767 597.364 4.85335C589.807 1.65904 581.685 0.0131836 573.48 0.0131836C565.275 0.0131836 557.153 1.65904 549.596 4.85335C542.038 8.04767 535.198 12.7255 529.48 18.6101C517.791 30.6315 511.251 46.7377 511.251 63.5051C511.251 80.2725 517.791 96.3788 529.48 108.4C535.2 114.282 542.041 118.958 549.598 122.152C557.155 125.347 565.276 126.995 573.48 127V123.16C565.769 123.159 558.136 121.612 551.032 118.611C543.928 115.611 537.498 111.217 532.12 105.69C521.141 94.3923 514.999 79.2591 514.999 63.5051C514.999 47.7512 521.141 32.618 532.12 21.3201C537.494 15.789 543.923 11.3921 551.026 8.38969C558.13 5.38724 565.763 3.84023 573.475 3.84023C581.187 3.84023 588.82 5.38724 595.924 8.38969C603.027 11.3921 609.456 15.789 614.83 21.3201C625.814 32.6155 631.959 47.7497 631.959 63.5051C631.959 79.2606 625.814 94.3948 614.83 105.69C609.454 111.217 603.025 115.61 595.923 118.61C588.821 121.611 581.19 123.158 573.48 123.16V125.08V125.07Z" fill="#0092D4"/>
<path d="M573.48 169.99V128.72V174.99" stroke="#78B6E3" stroke-width="2" stroke-miterlimit="10"/>
<path d="M578.74 169.73C578.74 170.773 578.431 171.792 577.851 172.659C577.272 173.526 576.448 174.201 575.484 174.6C574.521 174.998 573.461 175.102 572.438 174.898C571.416 174.694 570.477 174.191 569.74 173.453C569.003 172.715 568.502 171.775 568.3 170.752C568.098 169.729 568.204 168.669 568.604 167.706C569.004 166.743 569.681 165.921 570.549 165.343C571.417 164.765 572.437 164.458 573.48 164.46C574.876 164.463 576.214 165.019 577.2 166.007C578.186 166.995 578.74 168.334 578.74 169.73Z" fill="#78B6E3"/>
<path d="M573.48 209.91V168.64V214.91" stroke="#78B6E3" stroke-width="2" stroke-miterlimit="10"/>
<path d="M578.74 209.65C578.74 210.693 578.431 211.712 577.851 212.579C577.272 213.446 576.448 214.121 575.484 214.52C574.521 214.918 573.461 215.022 572.438 214.818C571.416 214.614 570.477 214.111 569.74 213.373C569.003 212.635 568.502 211.695 568.3 210.672C568.098 209.649 568.204 208.589 568.604 207.626C569.004 206.663 569.681 205.841 570.549 205.263C571.417 204.685 572.437 204.378 573.48 204.38C574.876 204.383 576.214 204.939 577.2 205.927C578.186 206.915 578.74 208.254 578.74 209.65Z" fill="#78B6E3"/>
<path d="M569.56 502V500.09C577.764 500.093 585.884 501.74 593.441 504.933C600.998 508.126 607.839 512.8 613.56 518.68C625.25 530.703 631.79 546.811 631.79 563.58C631.79 580.349 625.25 596.457 613.56 608.48C607.84 614.361 600.999 619.036 593.442 622.228C585.885 625.42 577.764 627.064 569.56 627.064C561.356 627.064 553.236 625.42 545.678 622.228C538.121 619.036 531.28 614.361 525.56 608.48C513.87 596.457 507.331 580.349 507.331 563.58C507.331 546.811 513.87 530.703 525.56 518.68C531.28 512.799 538.121 508.124 545.678 504.931C553.235 501.738 561.356 500.092 569.56 500.09V504C561.851 504.005 554.22 505.553 547.118 508.553C540.016 511.554 533.587 515.946 528.21 521.47C517.225 532.767 511.08 547.903 511.08 563.66C511.08 579.417 517.225 594.553 528.21 605.85C533.585 611.379 540.015 615.774 547.118 618.775C554.221 621.775 561.854 623.322 569.565 623.322C577.276 623.322 584.909 621.775 592.012 618.775C599.115 615.774 605.545 611.379 610.92 605.85C621.898 594.55 628.038 579.415 628.038 563.66C628.038 547.905 621.898 532.771 610.92 521.47C605.541 515.945 599.11 511.553 592.007 508.552C584.904 505.552 577.271 504.004 569.56 504V502Z" fill="#0092D4"/>
<path d="M569.56 457.12V498.38V452.12" stroke="#78B6E3" stroke-width="2" stroke-miterlimit="10"/>
<path d="M564.3 457.38C564.298 456.337 564.605 455.317 565.184 454.448C565.762 453.58 566.585 452.903 567.548 452.503C568.512 452.103 569.572 451.998 570.595 452.201C571.619 452.404 572.559 452.906 573.296 453.644C574.034 454.381 574.536 455.321 574.739 456.344C574.942 457.368 574.837 458.428 574.437 459.391C574.037 460.355 573.36 461.178 572.491 461.756C571.623 462.334 570.603 462.642 569.56 462.64C568.165 462.64 566.827 462.086 565.84 461.099C564.854 460.113 564.3 458.775 564.3 457.38Z" fill="#78B6E3"/>
<path d="M569.56 417.2V458.46V412.19" stroke="#78B6E3" stroke-width="2" stroke-miterlimit="10"/>
<path d="M564.3 417.46C564.298 416.417 564.605 415.397 565.184 414.529C565.762 413.66 566.585 412.983 567.548 412.583C568.512 412.183 569.572 412.078 570.595 412.281C571.619 412.484 572.559 412.986 573.296 413.724C574.034 414.461 574.536 415.401 574.739 416.425C574.942 417.448 574.837 418.508 574.437 419.472C574.037 420.435 573.36 421.258 572.491 421.836C571.623 422.414 570.603 422.722 569.56 422.72C568.165 422.72 566.827 422.166 565.84 421.18C564.854 420.193 564.3 418.855 564.3 417.46Z" fill="#78B6E3"/>
<path d="M1087.26 270.07V272C1095.46 271.994 1103.58 270.345 1111.14 267.151C1118.7 263.956 1125.54 259.281 1131.26 253.4C1142.95 241.377 1149.49 225.269 1149.49 208.5C1149.49 191.731 1142.95 175.623 1131.26 163.6C1125.54 157.72 1118.7 153.047 1111.14 149.856C1103.58 146.665 1095.46 145.021 1087.26 145.021C1079.06 145.021 1070.94 146.665 1063.38 149.856C1055.82 153.047 1048.98 157.72 1043.26 163.6C1031.57 175.623 1025.03 191.731 1025.03 208.5C1025.03 225.269 1031.57 241.377 1043.26 253.4C1048.98 259.281 1055.82 263.956 1063.38 267.151C1070.94 270.345 1079.06 271.994 1087.26 272V268.16C1079.55 268.158 1071.92 266.611 1064.82 263.61C1057.71 260.61 1051.29 256.217 1045.91 250.69C1034.93 239.395 1028.78 224.261 1028.78 208.505C1028.78 192.75 1034.93 177.615 1045.91 166.32C1051.28 160.789 1057.71 156.393 1064.81 153.39C1071.92 150.388 1079.55 148.841 1087.26 148.841C1094.97 148.841 1102.6 150.388 1109.71 153.39C1116.81 156.393 1123.24 160.789 1128.61 166.32C1139.59 177.615 1145.74 192.75 1145.74 208.505C1145.74 224.261 1139.59 239.395 1128.61 250.69C1123.23 256.217 1116.81 260.611 1109.7 263.611C1102.6 266.612 1094.97 268.158 1087.26 268.16V270.08V270.07Z" fill="#0092D4"/>
<path d="M817.11 295.59V296.7C821.887 296.7 826.615 295.742 831.015 293.884C835.416 292.025 839.399 289.304 842.73 285.88C849.533 278.879 853.338 269.502 853.338 259.74C853.338 249.978 849.533 240.601 842.73 233.6C839.399 230.176 835.416 227.454 831.016 225.595C826.615 223.737 821.887 222.779 817.11 222.779C812.333 222.779 807.605 223.737 803.204 225.595C798.804 227.454 794.821 230.176 791.49 233.6C784.687 240.601 780.882 249.978 780.882 259.74C780.882 269.502 784.687 278.879 791.49 285.88C794.821 289.304 798.804 292.025 803.205 293.884C807.605 295.742 812.333 296.7 817.11 296.7V294.47C812.615 294.475 808.165 293.577 804.024 291.83C799.882 290.083 796.133 287.523 793 284.3C786.608 277.723 783.032 268.912 783.032 259.74C783.032 250.568 786.608 241.758 793 235.18C796.128 231.962 799.871 229.404 804.005 227.657C808.139 225.911 812.582 225.011 817.07 225.011C821.558 225.011 826.001 225.911 830.135 227.657C834.269 229.404 838.011 231.962 841.14 235.18C847.532 241.758 851.108 250.568 851.108 259.74C851.108 268.912 847.532 277.723 841.14 284.3C838.012 287.519 834.27 290.077 830.135 291.824C826.001 293.571 821.558 294.471 817.07 294.47V295.59H817.11Z" fill="#0092D4"/>
<path d="M1087.26 473.81V475.73C1095.46 475.724 1103.58 474.075 1111.14 470.881C1118.7 467.686 1125.54 463.011 1131.26 457.13C1142.95 445.109 1149.49 429.003 1149.49 412.235C1149.49 395.468 1142.95 379.362 1131.26 367.34C1125.54 361.458 1118.7 356.782 1111.14 353.59C1103.59 350.397 1095.46 348.752 1087.26 348.752C1079.06 348.752 1070.93 350.397 1063.38 353.59C1055.82 356.782 1048.98 361.458 1043.26 367.34C1031.57 379.362 1025.03 395.468 1025.03 412.235C1025.03 429.003 1031.57 445.109 1043.26 457.13C1048.98 463.011 1055.82 467.686 1063.38 470.881C1070.94 474.075 1079.06 475.724 1087.26 475.73V471.89C1079.55 471.89 1071.92 470.343 1064.82 467.343C1057.71 464.342 1051.28 459.948 1045.91 454.42C1034.93 443.125 1028.78 427.991 1028.78 412.235C1028.78 396.48 1034.93 381.346 1045.91 370.05C1051.28 364.522 1057.71 360.127 1064.82 357.127C1071.92 354.126 1079.55 352.58 1087.26 352.58C1094.97 352.58 1102.6 354.126 1109.7 357.127C1116.81 360.127 1123.24 364.522 1128.61 370.05C1139.59 381.346 1145.74 396.48 1145.74 412.235C1145.74 427.991 1139.59 443.125 1128.61 454.42C1123.23 459.947 1116.81 464.34 1109.7 467.34C1102.6 470.341 1094.97 471.888 1087.26 471.89V473.81Z" fill="#0092D4"/>
<path d="M405.32 209.09L464.54 255.34" stroke="#78B6E3" stroke-width="2" stroke-miterlimit="10"/>
<path d="M391.71 262.73L450.93 308.98" stroke="#78B6E3" stroke-width="2" stroke-miterlimit="10"/>
<path d="M406.32 417.51L465.54 371.26" stroke="#78B6E3" stroke-width="2" stroke-miterlimit="10"/>
<path d="M743.36 208.71L684.14 254.95" stroke="#78B6E3" stroke-width="2" stroke-miterlimit="10"/>
<path d="M756.97 262.35L697.75 308.6" stroke="#78B6E3" stroke-width="2" stroke-miterlimit="10"/>
<path d="M742.36 417.13L683.14 370.88" stroke="#78B6E3" stroke-width="2" stroke-miterlimit="10"/>
<path d="M574.29 438.4C642.58 438.4 698 381.91 698 312.24C698 242.57 642.58 186.08 574.29 186.08C506 186.08 450.62 242.56 450.62 312.24C450.62 381.92 506 438.4 574.29 438.4Z" fill="#1D4566"/>
<path d="M574.29 427.84C636.87 427.84 687.6 376.08 687.6 312.24C687.6 248.4 636.87 196.64 574.29 196.64C511.71 196.64 461 248.39 461 312.24C461 376.09 511.73 427.84 574.32 427.84H574.29Z" fill="white"/>
<path d="M661.21 290.11C656.326 270.692 645.098 253.461 629.307 241.151C613.517 228.84 594.067 222.154 574.045 222.154C554.022 222.154 534.573 228.84 518.783 241.151C502.992 253.461 491.764 270.692 486.88 290.11H529.33C531.749 285.162 534.969 280.648 538.86 276.75C558.47 257.13 590.11 256.98 609.54 276.41C613.505 280.392 616.756 285.026 619.15 290.11H661.21Z" fill="#16344D"/>
<path d="M487.19 333.73C492.259 352.899 503.526 369.852 519.236 381.949C534.947 394.045 554.217 400.604 574.045 400.604C593.873 400.604 613.143 394.045 628.854 381.949C644.564 369.852 655.831 352.899 660.9 333.73H618.75C616.32 338.674 613.098 343.187 609.21 347.09C589.6 366.7 557.95 366.85 538.52 347.43C534.555 343.448 531.304 338.814 528.91 333.73H487.19Z" fill="#D65327"/>
<path d="M575.4 336C584.4 336 591.47 332.71 596 326.79L586.22 318C583.54 321.43 580.32 323.4 576.22 323.4C569.79 323.4 565.46 318.93 565.46 311.89C565.46 304.85 569.79 300.38 576.22 300.38C580.35 300.38 583.57 302.38 586.22 305.77L596 297.03C591.47 291.1 584.39 287.82 575.4 287.82C560.65 287.82 549.82 297.75 549.82 311.89C549.82 326.03 560.65 336 575.4 336Z" fill="#16344D"/>
<path d="M529.11 290.11V304.04H486.88V319.8H529.11V333.73H544.05V290.11H529.11Z" fill="#D65327"/>
<path d="M604.04 333.73V290.11H618.99V304.04H661.21V319.8H618.99V333.73H604.04Z" fill="#16344D"/>
<path d="M62.2899 363.7C52.5987 363.7 43.125 366.574 35.067 371.958C27.009 377.342 20.7285 384.995 17.0198 393.949C13.3111 402.902 12.3408 412.755 14.2315 422.26C16.1221 431.765 20.7889 440.496 27.6417 447.348C34.4945 454.201 43.2254 458.868 52.7305 460.759C62.2356 462.649 72.0878 461.679 81.0414 457.97C89.995 454.262 97.6478 447.981 103.032 439.923C108.416 431.865 111.29 422.391 111.29 412.7C111.277 399.709 106.11 387.253 96.9236 378.067C87.7371 368.88 75.2815 363.713 62.2899 363.7Z" fill="#D65327"/>
<path d="M62.2899 450.82C83.343 450.82 100.41 433.753 100.41 412.7C100.41 391.647 83.343 374.58 62.2899 374.58C41.2368 374.58 24.1699 391.647 24.1699 412.7C24.1699 433.753 41.2368 450.82 62.2899 450.82Z" fill="#D65327"/>
<path d="M44.4399 401.88C51.0913 402.519 57.7886 402.519 64.4399 401.88C64.2699 402.41 64.1199 402.88 63.9499 403.36C63.8599 403.6 63.8699 403.76 64.1399 403.86C64.3402 403.921 64.5259 404.022 64.6858 404.157C64.8458 404.292 64.9765 404.458 65.0701 404.645C65.1637 404.832 65.2181 405.037 65.2301 405.246C65.2422 405.455 65.2115 405.664 65.1399 405.86C65.0064 406.478 64.8327 407.086 64.6199 407.68C64.5592 407.889 64.4234 408.068 64.2388 408.182C64.0542 408.297 63.8337 408.339 63.6199 408.3C63.4999 408.3 63.3899 408.3 63.2699 408.3C62.9499 408.3 62.8399 408.42 62.8099 408.73C62.6562 410.711 61.9874 412.618 60.8699 414.26C60.5636 414.58 60.2289 414.871 59.8699 415.13C59.7599 415.24 59.6199 415.39 59.6199 415.52C59.6199 417.52 59.6199 419.45 59.7099 421.42C59.8361 422.421 60.3275 423.34 61.0899 424C62.0765 425.066 63.2896 425.896 64.6399 426.43C66.6399 427.26 68.6399 428.01 70.5599 428.8C72.4313 429.5 74.19 430.47 75.7799 431.68C77.3765 432.972 78.4439 434.804 78.7799 436.83H30.1799C30.1799 436.67 30.2499 436.51 30.2799 436.35C30.5648 435.098 31.1231 433.924 31.9149 432.913C32.7067 431.901 33.7124 431.077 34.8599 430.5C36.7405 429.481 38.7002 428.615 40.7199 427.91C42.5051 427.303 44.2294 426.53 45.8699 425.6C46.7488 425.075 47.5275 424.398 48.1699 423.6C48.7809 422.887 49.1332 421.989 49.1699 421.05C49.1699 419.2 49.1699 417.36 49.2299 415.52C49.2266 415.456 49.2075 415.393 49.1744 415.337C49.1413 415.281 49.0952 415.234 49.0399 415.2C48.4003 414.896 47.8848 414.38 47.5799 413.74C46.652 412.226 46.1 410.512 45.9699 408.74C45.9699 408.41 45.8099 408.32 45.5099 408.32C44.6199 408.44 44.2099 407.92 44.0199 407.2C43.8607 406.58 43.7504 405.948 43.6899 405.31C43.6631 405.053 43.717 404.793 43.8442 404.567C43.9714 404.342 44.1656 404.161 44.3999 404.05C45.1099 403.65 44.9899 403.86 44.7999 403.05C44.6699 402.67 44.5499 402.3 44.4399 401.88Z" fill="white"/>
<path d="M92.4199 430.19H78.6099C78.4914 430.191 78.3738 430.169 78.264 430.124C78.1541 430.08 78.0542 430.014 77.9699 429.93C76.3681 428.578 74.5536 427.5 72.5999 426.74C70.3599 425.81 68.1099 424.92 65.8799 423.98C64.954 423.597 64.104 423.052 63.3699 422.37C63.1005 422.139 62.8843 421.852 62.7359 421.529C62.5874 421.206 62.5104 420.856 62.5099 420.5C62.5099 419.25 62.5099 418 62.5099 416.75C62.502 416.63 62.5415 416.512 62.6199 416.42C63.4507 415.653 64.0705 414.686 64.4199 413.61C64.8199 412.61 65.0599 411.56 65.4199 410.53C65.4458 410.448 65.4885 410.371 65.5453 410.306C65.6021 410.241 65.6717 410.188 65.7499 410.15C66.3003 409.944 66.7486 409.532 66.9999 409C67.8261 407.641 68.1383 406.03 67.8799 404.46C67.7107 403.947 67.4861 403.454 67.2099 402.99C67.148 402.831 67.1207 402.661 67.1299 402.49C67.1299 402.37 67.2199 402.25 67.2299 402.13C67.2799 401.5 67.6799 401.32 68.2899 401.24C69.0699 401.15 69.8399 400.93 70.6199 400.78C70.6696 400.782 70.719 400.772 70.7641 400.751C70.8093 400.73 70.8489 400.699 70.88 400.66C70.9111 400.622 70.9326 400.576 70.943 400.527C70.9534 400.479 70.9524 400.428 70.9399 400.38C70.9399 400.16 70.9399 399.94 70.9399 399.76L80.8799 399.32L80.3199 401V401.07C80.2299 401.36 79.9899 401.7 80.0799 401.94C80.1699 402.18 80.6099 402.25 80.8099 402.47C81.0244 402.665 81.1596 402.932 81.1899 403.22C81.0946 403.878 80.944 404.527 80.7399 405.16C80.698 405.302 80.6054 405.423 80.48 405.5C80.3546 405.577 80.2051 405.606 80.0599 405.58C79.8019 405.586 79.5447 405.609 79.2899 405.65C79.2899 406.05 79.2199 406.45 79.1599 406.85C78.9118 408.209 78.4024 409.506 77.6599 410.67C77.4648 411.015 77.1525 411.277 76.7799 411.41C76.7189 411.438 76.6653 411.479 76.6236 411.531C76.5819 411.583 76.5532 411.645 76.5399 411.71C76.5399 413.51 76.5399 415.3 76.6699 417.09C76.7303 417.506 76.8842 417.903 77.1199 418.25C77.838 419.456 78.9051 420.415 80.1799 421C81.7499 421.78 83.3799 422.46 84.9899 423.16C86.788 423.872 88.4725 424.842 89.9899 426.04C91.2087 427.059 92.0589 428.451 92.4099 430C92.4175 430.063 92.4208 430.127 92.4199 430.19Z" fill="white"/>
<path d="M50.3099 385.5V389C50.3099 389.93 50.3099 390.86 50.3099 391.79C50.3156 392.101 50.4347 392.398 50.6447 392.627C50.8548 392.855 51.1412 392.999 51.4499 393.03C51.7838 393.086 52.1265 393.014 52.4099 392.829C52.6932 392.643 52.8967 392.359 52.9799 392.03C53 391.884 53 391.736 52.9799 391.59C52.9799 389.19 52.9799 386.794 52.9799 384.4C52.9799 383.88 52.9799 383.4 52.9799 382.84C52.9799 382.52 53.1099 382.37 53.4599 382.38C54.0499 382.38 54.6399 382.38 55.2299 382.38C55.8199 382.38 55.7299 382.44 55.7299 382.88C55.7299 385.78 55.7299 388.674 55.7299 391.56C55.7074 391.89 55.8073 392.216 56.0103 392.476C56.2132 392.736 56.5051 392.912 56.8299 392.97C57.0344 393.015 57.2466 393.012 57.4499 392.962C57.6531 392.911 57.842 392.815 58.0017 392.679C58.1614 392.544 58.2876 392.373 58.3706 392.181C58.4535 391.988 58.4909 391.78 58.4799 391.57V385.38C59.5144 385.54 60.5049 385.911 61.3899 386.47C62.7781 387.428 63.8281 388.8 64.3899 390.39C64.9815 391.839 65.2969 393.386 65.3199 394.95C65.3009 395.345 65.4218 395.734 65.6614 396.049C65.9011 396.364 66.244 396.584 66.6299 396.67C66.8302 396.675 67.0272 396.723 67.2079 396.809C67.3886 396.896 67.549 397.02 67.6784 397.173C67.8078 397.326 67.9033 397.505 67.9587 397.697C68.0141 397.89 68.0282 398.092 67.9999 398.29C67.9999 398.55 67.9999 398.66 67.6999 398.7C66.2799 398.89 64.8699 399.12 63.4399 399.28C59.1206 399.709 54.776 399.826 50.4399 399.63C48.2099 399.55 45.9899 399.32 43.7699 399.12C42.9199 399.04 42.0699 398.84 41.2199 398.7L40.8799 398.61C40.8799 398.44 40.8799 398.29 40.8799 398.15C40.9499 397.25 41.0499 397.15 41.8799 396.85C42.34 396.77 42.7532 396.52 43.0382 396.149C43.3232 395.779 43.4594 395.316 43.4199 394.85C43.463 392.45 44.2375 390.119 45.6399 388.17C46.7324 386.727 48.3417 385.763 50.1299 385.48C50.1906 385.477 50.2514 385.484 50.3099 385.5Z" fill="white"/>
<path d="M65 386C65.8652 385.075 66.986 384.427 68.22 384.14V390.31C68.2117 390.497 68.2418 390.682 68.3083 390.856C68.3749 391.03 68.4764 391.189 68.6068 391.322C68.7371 391.455 68.8934 391.56 69.066 391.63C69.2386 391.701 69.4237 391.735 69.61 391.73C69.7929 391.731 69.9739 391.694 70.142 391.621C70.31 391.549 70.4614 391.443 70.587 391.31C70.7125 391.177 70.8095 391.02 70.8719 390.848C70.9343 390.676 70.9609 390.493 70.95 390.31C70.95 388.08 70.95 385.86 70.95 383.63V381.63C70.95 381.21 71.01 381.15 71.47 381.15H73.16C73.65 381.15 73.69 381.15 73.69 381.65C73.69 384.55 73.69 387.44 73.69 390.34C73.6707 390.651 73.7599 390.958 73.9424 391.21C74.1248 391.462 74.3891 391.642 74.69 391.72C74.895 391.777 75.1104 391.784 75.3188 391.742C75.5273 391.7 75.723 391.61 75.8902 391.479C76.0575 391.348 76.1916 391.179 76.2819 390.986C76.3722 390.794 76.416 390.583 76.41 390.37C76.41 388.45 76.41 386.53 76.41 384.61V384.2C76.53 384.2 76.64 384.2 76.74 384.26C77.6803 384.503 78.5527 384.957 79.291 385.588C80.0292 386.219 80.6137 387.009 81 387.9C81.7413 389.446 82.1566 391.127 82.22 392.84C82.2022 393.26 82.3389 393.672 82.6042 393.999C82.8696 394.325 83.2451 394.542 83.66 394.61C83.8006 394.63 83.9355 394.679 84.0557 394.754C84.176 394.83 84.2788 394.93 84.3573 395.048C84.4358 395.166 84.4882 395.3 84.5111 395.44C84.534 395.58 84.5268 395.723 84.49 395.86C84.49 395.93 84.31 396.01 84.21 396.03C82.82 396.25 81.44 396.51 80.04 396.67C77.0502 396.976 74.045 397.106 71.04 397.06C70.9255 397.077 70.8088 397.052 70.7115 396.989C70.6141 396.927 70.5425 396.831 70.51 396.72C70.3406 396.196 70.0507 395.718 69.6634 395.326C69.2762 394.933 68.8024 394.637 68.28 394.46C68.19 394.46 68.1 394.22 68.09 394.09C67.9887 392.432 67.6101 390.803 66.97 389.27C66.5078 388.074 65.8412 386.968 65 386Z" fill="white"/>
<path d="M799.49 273.84C799.055 274.136 798.553 274.319 798.029 274.373C797.506 274.427 796.977 274.351 796.49 274.15C795.823 273.841 795.298 273.291 795.02 272.61C794.825 272.218 794.724 271.787 794.724 271.35C794.724 270.913 794.825 270.481 795.02 270.09C795.468 269.328 796.18 268.755 797.02 268.48L796.8 268.03C794.48 263.043 792.147 258.06 789.8 253.08C789.327 252.211 789.073 251.239 789.06 250.25C789.086 249.497 789.269 248.758 789.596 248.08C789.923 247.402 790.387 246.799 790.96 246.31C791.678 245.646 792.553 245.174 793.502 244.938C794.451 244.702 795.445 244.71 796.39 244.96C797.98 245.3 799.56 245.73 801.15 246.1C801.353 246.131 801.541 246.223 801.689 246.364C801.838 246.506 801.939 246.689 801.98 246.89C803 250.45 804.023 254.017 805.05 257.59C805.079 257.683 805.123 257.771 805.18 257.85C805.18 257.67 805.26 257.48 805.31 257.3C805.635 255.844 806.363 254.508 807.412 253.447C808.461 252.386 809.788 251.642 811.24 251.3C811.898 251.161 812.568 251.084 813.24 251.07C813.94 251.07 814.65 251.07 815.36 251.07C815.57 251.07 815.65 251.14 815.73 251.32C816.92 253.98 818.12 256.65 819.32 259.32C819.357 259.409 819.416 259.488 819.49 259.55V250.93H822.19V259.65H822.25L822.4 259.32C823.59 256.67 824.79 254.02 825.97 251.37C825.998 251.271 826.061 251.186 826.148 251.131C826.235 251.075 826.339 251.054 826.44 251.07C827.5 251.07 828.58 251.02 829.63 251.14C830.965 251.272 832.245 251.741 833.349 252.504C834.453 253.267 835.344 254.298 835.94 255.5C836.653 256.809 837.018 258.279 837 259.77C837 265.67 837 271.58 837 277.48C836.997 277.929 836.923 278.374 836.78 278.8C836.617 279.294 836.3 279.723 835.875 280.024C835.451 280.325 834.94 280.481 834.42 280.47C833.894 280.469 833.381 280.3 832.958 279.987C832.536 279.674 832.224 279.233 832.07 278.73C831.938 278.285 831.871 277.824 831.87 277.36C831.87 271.74 831.87 266.123 831.87 260.51V260.16H830.25V280.36H811.85V260.16H810.2V271.31C810.229 272.016 810.04 272.714 809.66 273.31C809.64 273.356 809.63 273.405 809.63 273.455C809.63 273.505 809.64 273.554 809.66 273.6C809.79 274.1 809.94 274.6 810.08 275.09C810.22 275.58 810.3 275.84 810.4 276.22C810.554 276.765 810.573 277.339 810.457 277.892C810.34 278.446 810.091 278.964 809.73 279.4C809.164 280.161 808.394 280.746 807.509 281.086C806.624 281.426 805.66 281.507 804.73 281.32C804.141 281.226 803.585 280.985 803.113 280.62C802.641 280.255 802.269 279.777 802.03 279.23C801.22 277.52 800.43 275.81 799.62 274.1C799.58 274 799.54 274 799.49 273.84ZM800.92 273.15L800.99 273.3C801.81 275.06 802.63 276.83 803.46 278.59C803.592 278.875 803.786 279.126 804.028 279.325C804.271 279.525 804.555 279.666 804.86 279.74C805.404 279.888 805.976 279.898 806.524 279.769C807.072 279.64 807.58 279.375 808 279C808.472 278.678 808.802 278.188 808.923 277.63C809.044 277.071 808.947 276.488 808.65 276C807.817 274.22 806.983 272.44 806.15 270.66C803.483 264.913 800.8 259.17 798.1 253.43C798.1 253.34 798.01 253.26 797.97 253.17C796.68 255.17 794.83 255.7 792.59 255.23L798.44 267.75C798.949 267.48 799.524 267.361 800.099 267.409C800.673 267.457 801.221 267.67 801.677 268.021C802.134 268.372 802.48 268.847 802.674 269.39C802.867 269.932 802.901 270.519 802.77 271.08C802.647 271.546 802.415 271.977 802.093 272.337C801.772 272.697 801.37 272.975 800.92 273.15ZM805.92 266.52C805.92 266.45 805.92 266.38 805.87 266.31L800.54 247.78C800.526 247.716 800.493 247.657 800.445 247.612C800.396 247.568 800.335 247.539 800.27 247.53C798.86 247.2 797.45 246.84 796.03 246.53C795.232 246.307 794.386 246.32 793.595 246.566C792.804 246.813 792.1 247.283 791.57 247.92C791.003 248.514 790.656 249.286 790.589 250.105C790.522 250.924 790.737 251.741 791.2 252.42C791.432 252.781 791.733 253.092 792.087 253.335C792.441 253.578 792.839 253.747 793.259 253.834C793.68 253.921 794.113 253.922 794.534 253.839C794.954 253.756 795.354 253.59 795.71 253.35C795.977 253.166 796.205 252.931 796.38 252.658C796.555 252.384 796.673 252.079 796.728 251.759C796.783 251.44 796.774 251.112 796.7 250.796C796.627 250.48 796.491 250.182 796.3 249.92C796.23 249.83 796.15 249.76 796.08 249.68C796.271 249.93 796.408 250.218 796.48 250.525C796.552 250.832 796.559 251.15 796.5 251.46C796.427 251.785 796.283 252.091 796.079 252.354C795.875 252.618 795.615 252.834 795.319 252.986C795.022 253.139 794.696 253.225 794.363 253.237C794.029 253.25 793.697 253.19 793.39 253.06C792.988 252.879 792.634 252.605 792.36 252.259C792.085 251.914 791.897 251.508 791.812 251.075C791.727 250.642 791.747 250.195 791.87 249.771C791.993 249.348 792.216 248.96 792.52 248.64C793.134 248.02 793.965 247.664 794.837 247.647C795.709 247.63 796.553 247.954 797.19 248.55C797.621 249.034 797.96 249.594 798.19 250.2L804.87 264.5L805.92 266.52Z" fill="white"/>
<path d="M811.33 241.74V240.29H813.23C813.76 237.06 815.23 234.48 818.29 232.95V238C818.28 238.117 818.28 238.234 818.29 238.35C818.326 238.472 818.402 238.578 818.506 238.651C818.611 238.723 818.736 238.759 818.863 238.75C818.99 238.742 819.11 238.691 819.204 238.606C819.298 238.52 819.36 238.406 819.38 238.28C819.38 238.18 819.38 238.08 819.38 237.98V232.6C820.096 232.423 820.841 232.389 821.57 232.5C822.06 232.58 822.06 232.58 822.06 233.07V238C822.055 238.094 822.055 238.187 822.06 238.28C822.069 238.408 822.123 238.529 822.213 238.62C822.303 238.712 822.422 238.769 822.55 238.78C822.678 238.798 822.807 238.769 822.915 238.699C823.023 238.63 823.103 238.523 823.14 238.4C823.155 238.281 823.155 238.16 823.14 238.04V233C826.24 234.51 827.66 237.1 828.14 240.34H830.05V241.79L811.33 241.74Z" fill="white"/>
<path d="M826.6 242.93C826.678 243.749 826.576 244.575 826.3 245.35C825.958 246.519 825.256 247.55 824.295 248.298C823.334 249.046 822.162 249.473 820.944 249.517C819.727 249.561 818.527 249.221 817.514 248.545C816.501 247.869 815.726 246.891 815.3 245.75C814.964 244.925 814.804 244.04 814.83 243.15C814.83 242.97 814.89 242.9 815.08 242.9H826.38L826.6 242.93Z" fill="white"/>
<path d="M330.87 261.38L332.07 262.74C331.68 263.41 331.24 264.16 330.81 264.92L323.28 277.92C323.245 277.995 323.188 278.058 323.116 278.099C323.045 278.14 322.962 278.158 322.88 278.15H309C308.8 278.15 308.7 278.15 308.68 277.89C308.445 275.633 308.445 273.358 308.68 271.1C308.839 269.408 309.321 267.762 310.1 266.25C310.677 265.102 311.645 264.198 312.83 263.7C313.416 263.47 314.04 263.351 314.67 263.35H318.25C318.333 263.352 318.415 263.336 318.49 263.303C318.566 263.27 318.634 263.222 318.69 263.16L320.18 261.73C320.3 261.61 320.38 261.59 320.52 261.73C321.984 262.833 323.777 263.413 325.61 263.377C327.443 263.341 329.21 262.69 330.63 261.53L330.87 261.38Z" fill="white"/>
<path d="M325.69 249.37H334.15C334.253 249.364 334.355 249.383 334.449 249.425C334.543 249.467 334.625 249.53 334.69 249.61C334.975 249.926 335.187 250.3 335.312 250.707C335.438 251.113 335.473 251.542 335.416 251.964C335.359 252.386 335.211 252.79 334.982 253.148C334.753 253.507 334.448 253.811 334.09 254.04C333.815 254.17 333.522 254.254 333.22 254.29C333.05 254.29 332.99 254.37 332.96 254.55C332.695 256.83 331.537 258.912 329.74 260.34C328.443 261.377 326.811 261.903 325.153 261.818C323.494 261.733 321.924 261.044 320.74 259.88C319.273 258.484 318.327 256.628 318.06 254.62C318.058 254.521 318.022 254.425 317.958 254.349C317.895 254.273 317.807 254.22 317.71 254.2C317.234 254.044 316.816 253.751 316.506 253.358C316.197 252.965 316.01 252.489 315.97 251.99C315.899 251.568 315.925 251.135 316.047 250.724C316.168 250.314 316.381 249.936 316.67 249.62C316.736 249.536 316.822 249.47 316.919 249.426C317.017 249.382 317.123 249.363 317.23 249.37H325.69Z" fill="white"/>
<path d="M338.34 278.92H326.13C325.909 278.919 325.692 278.861 325.5 278.75C325.417 278.691 325.347 278.615 325.294 278.528C325.241 278.442 325.206 278.345 325.191 278.244C325.176 278.143 325.182 278.041 325.207 277.942C325.233 277.843 325.278 277.751 325.34 277.67C326.12 276.3 326.91 274.94 327.7 273.57L337.54 256.57C337.596 256.407 337.702 256.265 337.843 256.164C337.983 256.064 338.152 256.01 338.325 256.01C338.498 256.01 338.666 256.064 338.807 256.164C338.948 256.265 339.054 256.407 339.11 256.57L351.34 277.67C351.446 277.797 351.51 277.952 351.524 278.117C351.538 278.281 351.5 278.445 351.417 278.587C351.334 278.73 351.209 278.843 351.059 278.911C350.909 278.98 350.742 279 350.58 278.97L338.34 278.92ZM327.34 277.38H349.34L338.34 258.38L327.34 277.38Z" fill="white"/>
<path d="M335.76 247.81H314.81V244.71H315.7C316.22 244.71 316.22 244.71 316.37 244.22C317.061 241.998 318.419 240.043 320.26 238.62C320.72 238.25 321.26 237.95 321.72 237.62L321.79 237.67V238C321.79 240.087 321.79 242.177 321.79 244.27C321.779 244.732 321.928 245.184 322.212 245.549C322.497 245.914 322.899 246.169 323.35 246.27C323.52 246.28 323.69 246.28 323.86 246.27H326.74C327.015 246.288 327.29 246.247 327.547 246.149C327.805 246.052 328.038 245.901 328.233 245.706C328.427 245.51 328.577 245.276 328.673 245.018C328.769 244.76 328.809 244.485 328.79 244.21V237.65C328.93 237.72 329.03 237.76 329.13 237.82C331.503 239.215 333.282 241.431 334.13 244.05C334.35 244.69 334.34 244.7 335.01 244.7H335.71L335.76 247.81Z" fill="white"/>
<path d="M328 240.18V244.13C328.018 244.307 327.997 244.487 327.938 244.655C327.879 244.823 327.784 244.977 327.658 245.104C327.533 245.231 327.382 245.329 327.214 245.39C327.047 245.452 326.868 245.476 326.69 245.46H323.84C323.666 245.479 323.49 245.459 323.325 245.401C323.16 245.342 323.009 245.248 322.886 245.124C322.762 245 322.667 244.85 322.609 244.685C322.551 244.52 322.531 244.344 322.55 244.17V235.89C322.523 235.706 322.539 235.517 322.598 235.34C322.657 235.163 322.756 235.003 322.889 234.871C323.021 234.74 323.182 234.642 323.36 234.584C323.537 234.526 323.726 234.511 323.91 234.54H326.38C326.594 234.529 326.808 234.562 327.008 234.638C327.209 234.714 327.391 234.832 327.543 234.982C327.696 235.133 327.815 235.314 327.894 235.513C327.972 235.712 328.009 235.926 328 236.14V240.18Z" fill="white"/>
<path d="M336 264.94H340.87C340.8 265.5 340.74 266.04 340.67 266.59C340.46 268.3 340.25 270.02 340.03 271.73C340.03 271.81 339.92 271.93 339.86 271.93H336.86L336 264.94Z" fill="white"/>
<path d="M336.6 272.76H340.44V276.6H336.6V272.76Z" fill="white"/>
<path d="M1087.47 256.32C1077.78 256.32 1068.31 253.447 1060.25 248.062C1052.19 242.678 1045.91 235.025 1042.2 226.072C1038.49 217.118 1037.52 207.266 1039.41 197.761C1041.3 188.256 1045.97 179.525 1052.82 172.672C1059.67 165.819 1068.41 161.153 1077.91 159.262C1087.42 157.371 1097.27 158.342 1106.22 162.05C1115.18 165.759 1122.83 172.039 1128.21 180.097C1133.6 188.155 1136.47 197.629 1136.47 207.32C1136.46 220.312 1131.29 232.768 1122.1 241.954C1112.92 251.14 1100.46 256.307 1087.47 256.32Z" fill="#D65327"/>
<path d="M1087.47 242.87C1107.1 242.87 1123.02 226.954 1123.02 207.32C1123.02 187.686 1107.1 171.77 1087.47 171.77C1067.84 171.77 1051.92 187.686 1051.92 207.32C1051.92 226.954 1067.84 242.87 1087.47 242.87Z" fill="#D65327"/>
<path d="M1048.79 215.65L1051.09 210.47C1053.54 212.03 1056.38 212.879 1059.29 212.92C1062.2 212.92 1063.29 212.1 1063.29 210.92C1063.29 206.98 1049.17 209.85 1049.17 200.63C1049.17 196.2 1052.79 192.58 1060.17 192.58C1063.3 192.529 1066.4 193.272 1069.17 194.74L1067 199.96C1064.9 198.76 1062.54 198.101 1060.12 198.04C1057.18 198.04 1056.12 199.04 1056.12 200.27C1056.12 204.07 1070.21 201.27 1070.21 210.38C1070.21 214.71 1066.59 218.38 1059.21 218.38C1055.17 218.38 1051.13 217.28 1048.79 215.65Z" fill="white"/>
<path d="M1090.1 213.06H1079.6L1077.65 217.88H1070.49L1081.49 193.06H1088.4L1099.4 217.88H1092.09L1090.1 213.06ZM1088.04 207.88L1084.85 199.94L1081.66 207.88H1088.04Z" fill="white"/>
<path d="M1123.72 202.24C1123.72 207.88 1119.46 211.39 1112.72 211.39H1108.39V217.88H1101.39V193.06H1112.74C1119.46 193.06 1123.72 196.57 1123.72 202.24ZM1116.62 202.24C1116.62 199.94 1115.17 198.59 1112.26 198.59H1108.36V205.86H1112.26C1115.17 205.86 1116.62 204.51 1116.62 202.24Z" fill="white"/>
<path d="M585.9 53.1003L585.33 51.7803L585.43 51.7103C586.087 52.0648 586.824 52.2439 587.57 52.2303C587.69 52.2339 587.806 52.2801 587.896 52.3606C587.985 52.4412 588.043 52.5509 588.06 52.6703C588.128 53.0739 588.172 53.4813 588.19 53.8903C588.177 54.039 588.215 54.1876 588.296 54.3126C588.378 54.4376 588.499 54.5318 588.64 54.5803C589.05 54.7303 589.47 54.8603 589.95 55.0203C589.9 54.4503 589.88 53.9403 589.83 53.4403C589.815 53.393 589.81 53.3431 589.816 53.2938C589.822 53.2445 589.838 53.197 589.863 53.1544C589.889 53.1119 589.923 53.0752 589.964 53.0469C590.005 53.0186 590.051 52.9993 590.1 52.9903C590.468 52.8456 590.85 52.7383 591.24 52.6703C591.687 52.6195 592.11 52.4426 592.46 52.1603C592.284 51.715 592.13 51.2611 592 50.8003C591.89 50.3803 592 50.1503 592.47 50.0303C592.94 49.9103 593.54 49.8503 594.07 49.7403C595.257 49.4977 596.488 49.5842 597.63 49.9903C597.865 49.4025 598.241 48.8819 598.727 48.4753C599.212 48.0687 599.79 47.7887 600.41 47.6603C600.396 47.8367 600.396 48.0139 600.41 48.1903C600.438 48.4534 600.498 48.712 600.59 48.9603C600.71 49.2003 600.93 49.2203 601.1 48.9603C601.241 48.8013 601.353 48.6185 601.43 48.4203C601.693 47.7513 602.097 47.1468 602.615 46.648C603.132 46.1493 603.752 45.7681 604.43 45.5303C604.63 45.4303 604.84 45.3603 605.16 45.2303C604.84 45.0403 604.59 44.8803 604.32 44.7403C604.05 44.6003 603.76 44.4903 603.46 44.3503C604.128 43.2891 604.99 42.363 606 41.6203C606.21 41.4889 606.445 41.4036 606.69 41.3703C607.212 41.3099 607.71 41.12 608.14 40.8178C608.569 40.5157 608.917 40.1109 609.15 39.6403C609.2 39.5603 609.24 39.4703 609.28 39.3903C609.312 39.2929 609.366 39.2042 609.438 39.1313C609.51 39.0584 609.598 39.0032 609.695 38.9702C609.792 38.9372 609.895 38.9273 609.997 38.9412C610.098 38.9551 610.195 38.9925 610.28 39.0503L610.93 39.3203C611 39.3259 611.07 39.3259 611.14 39.3203L610.74 38.7703C610.44 38.3603 610.45 38.1903 610.9 37.9803C611.35 37.7703 611.9 37.5603 612.52 37.3203V39.0003C612.52 39.4103 612.65 39.5503 613.07 39.5403C613.49 39.5303 613.77 39.4803 614.07 39.4403C613.923 39.7871 613.657 40.0692 613.318 40.2346C612.98 40.4 612.594 40.4376 612.23 40.3403C612.117 40.3038 611.994 40.3113 611.887 40.3614C611.779 40.4115 611.695 40.5004 611.65 40.6103C611.583 40.763 611.526 40.92 611.48 41.0803C611.42 41.2603 611.38 41.4503 611.1 41.3403C611.013 41.3082 610.917 41.3082 610.83 41.3403L609.74 42.0803L611.06 42.7403C611.197 42.7981 611.307 42.9054 611.368 43.0407C611.429 43.176 611.437 43.3294 611.39 43.4703C611.31 43.9203 611.27 44.3703 611.19 44.9203C611.444 44.8067 611.688 44.6729 611.92 44.5203C612.121 44.366 612.352 44.2545 612.598 44.1925C612.844 44.1306 613.1 44.1197 613.35 44.1603C613.87 44.2403 614.35 44.3503 614.9 44.4803C615.04 44.4803 615.25 44.6803 615.24 44.7703C615.23 44.8603 615.09 45.0703 614.96 45.1703C614.806 45.3019 614.625 45.3976 614.43 45.4503C613.89 45.6203 613.75 46.0203 613.7 46.5303C613.626 47.5645 613.734 48.6037 614.02 49.6003C614.11 50.0303 614.17 50.4703 614.25 50.9803C613.73 50.7803 613.6 51.0703 613.48 51.3803C613.36 51.6903 613.35 51.7603 613.28 51.9403C613.21 52.1203 613.22 52.1803 613.15 52.2303C612.66 52.5503 612.82 53.0203 612.84 53.4603C612.851 53.6083 612.829 53.7569 612.775 53.8952C612.721 54.0336 612.638 54.1583 612.53 54.2603C612.315 54.4612 612.156 54.7137 612.066 54.9938C611.977 55.2739 611.961 55.5723 612.02 55.8603C612.18 56.3273 612.395 56.7738 612.66 57.1903C612.697 57.2329 612.743 57.2667 612.795 57.2892C612.847 57.3117 612.903 57.3223 612.96 57.3203C613.18 57.3203 613.41 57.2603 613.63 57.2603C613.765 57.2634 613.897 57.3056 614.009 57.382C614.12 57.4583 614.208 57.5654 614.26 57.6903C614.37 57.9088 614.527 58.1 614.72 58.2503C614.925 58.3884 615.095 58.5723 615.216 58.7876C615.338 59.0028 615.408 59.2434 615.42 59.4903C615.432 59.6965 615.486 59.8981 615.577 60.0835C615.668 60.2689 615.795 60.4343 615.95 60.5703C616.123 60.6852 616.248 60.8602 616.299 61.0615C616.351 61.2628 616.326 61.4762 616.23 61.6603C616.184 61.8394 616.209 62.0292 616.3 62.1903C616.4 62.4103 616.58 62.5803 616.67 62.8003C616.807 63.0547 616.873 63.3416 616.86 63.6303C616.664 64.6063 616.786 65.6195 617.21 66.5203C617.206 66.5635 617.206 66.6071 617.21 66.6503C617.21 66.6503 617.21 66.6503 617.21 66.7303L616.4 66.0603C615.05 64.9303 613.7 63.7803 612.33 62.6603C612.002 62.3901 611.745 62.044 611.581 61.6518C611.417 61.2597 611.352 60.8335 611.39 60.4103C611.41 59.9889 611.47 59.5703 611.57 59.1603C611.662 58.4946 611.638 57.818 611.5 57.1603C611.42 56.4403 611.41 55.7103 611.32 54.9903C611.272 54.6354 611.149 54.2947 610.96 53.9903C610.477 53.3372 609.851 52.8035 609.13 52.4303C609.352 53.0918 609.691 53.7081 610.13 54.2503C610.63 54.8703 610.65 55.1003 610.2 55.7603L609.99 56.0403L608.57 55.4803C608.504 55.4455 608.432 55.4249 608.358 55.4197C608.284 55.4146 608.21 55.4251 608.14 55.4506C608.07 55.476 608.006 55.5159 607.953 55.5675C607.9 55.6191 607.858 55.6814 607.83 55.7503C607.644 56.0249 607.529 56.3414 607.496 56.6713C607.463 57.0012 607.512 57.3342 607.64 57.6403C607.766 58.0421 607.837 58.4593 607.85 58.8803C607.865 59.1267 607.865 59.3739 607.85 59.6203H609.06L607.54 61.5603C607.06 61.1703 606.95 61.1603 606.45 61.5603C605.95 61.9603 605.45 62.4703 604.85 62.8403C602.802 64.3156 601.399 66.5206 600.93 69.0003C600.59 70.2503 600.2 71.4803 599.84 72.7203C599.84 72.8403 599.77 72.9503 599.74 73.0503C599.904 73.1835 600.109 73.2562 600.32 73.2562C600.531 73.2562 600.736 73.1835 600.9 73.0503C601.38 72.7103 601.43 72.7203 601.8 73.1503C602.01 73.4003 602.24 73.7203 602.61 73.6103C602.98 73.5003 602.92 73.1003 602.96 72.7903C602.975 72.5272 602.975 72.2634 602.96 72.0003C604.236 72.1575 605.405 72.7938 606.23 73.7803C606.271 73.8508 606.318 73.9178 606.37 73.9803C606.551 74.1767 606.681 74.4137 606.751 74.6714C606.821 74.929 606.827 75.1996 606.77 75.4603C606.766 75.8886 606.859 76.3123 607.04 76.7003C607.241 77.1585 607.389 77.6384 607.48 78.1303C607.642 80.2923 607.608 82.4644 607.38 84.6203C607.38 85.0603 607.32 85.5103 607.29 85.9503C607.288 86.081 607.261 86.2101 607.21 86.3303C606.797 87.1862 606.086 87.8618 605.21 88.2303C605.139 88.2684 605.06 88.2922 604.98 88.3003C604.27 88.4303 604.09 88.6203 603.98 89.3003C603.98 89.4103 603.98 89.5103 603.98 89.6203C603.98 89.7303 603.98 89.6203 603.98 89.6803C603.55 89.6803 603.38 89.4003 603.5 88.9903C603.661 88.5952 603.692 88.1589 603.588 87.745C603.483 87.3312 603.249 86.9616 602.92 86.6903C602.882 86.6575 602.851 86.6168 602.83 86.571C602.809 86.5253 602.799 86.4756 602.799 86.4253C602.799 86.375 602.809 86.3253 602.83 86.2796C602.851 86.2338 602.882 86.1932 602.92 86.1603C602.963 86.0719 603.025 85.9943 603.102 85.9331C603.179 85.872 603.269 85.8288 603.365 85.8067C603.461 85.7847 603.56 85.7843 603.656 85.8057C603.752 85.8271 603.842 85.8697 603.92 85.9303L604.62 86.2703C604.56 85.6103 604.51 85.0003 604.46 84.4003C604.41 83.8003 604.37 83.3403 604.36 82.8103C604.291 81.9513 604.002 81.1246 603.52 80.4103C602.967 80.6844 602.495 81.098 602.15 81.6103C602.044 81.7797 601.896 81.9194 601.721 82.0163C601.547 82.1131 601.35 82.1639 601.15 82.1639C600.95 82.1639 600.753 82.1131 600.578 82.0163C600.404 81.9194 600.256 81.7797 600.15 81.6103C599.98 81.3618 599.747 81.1637 599.474 81.037C599.201 80.9103 598.899 80.8596 598.6 80.8903C598.224 80.8604 597.846 80.8604 597.47 80.8903C597.307 80.9227 597.138 80.8988 596.991 80.8224C596.844 80.7461 596.727 80.6219 596.66 80.4703C596.508 80.1779 596.381 79.8736 596.28 79.5603C596.105 79.0057 595.773 78.5139 595.324 78.1446C594.875 77.7753 594.328 77.5445 593.75 77.4803C593.529 77.4293 593.298 77.4503 593.09 77.5403C592 78.0203 590.92 78.5403 589.76 79.0803C589.95 79.3651 590.161 79.6358 590.39 79.8903C590.559 80.0292 590.679 80.2198 590.729 80.433C590.78 80.6462 590.759 80.8701 590.67 81.0703C590.37 81.8003 590.05 82.5203 589.67 83.2303C589.565 83.3988 589.417 83.5365 589.241 83.6295C589.066 83.7226 588.868 83.7677 588.67 83.7603C588.081 83.811 587.49 83.7004 586.96 83.4403C586.26 83.1203 585.96 83.2003 585.59 83.8603C585.473 84.0358 585.37 84.2196 585.28 84.4103C585.103 84.8158 584.783 85.1418 584.381 85.3263C583.979 85.5107 583.523 85.5407 583.1 85.4103C582.17 85.1996 581.288 84.8163 580.5 84.2803C579.954 84.0093 579.389 83.7787 578.81 83.5903C578.611 83.5342 578.403 83.5194 578.198 83.5469C577.994 83.5745 577.797 83.6437 577.62 83.7503C576.8 84.1503 576.16 83.8903 576.04 82.9903C575.998 82.7346 575.874 82.4995 575.686 82.3208C575.498 82.1421 575.257 82.0296 575 82.0003C574.436 81.8401 573.861 81.7198 573.28 81.6403C572.64 81.5503 572.37 81.7703 572.28 82.4103C572.241 82.6788 572.218 82.9492 572.21 83.2203C572.21 83.6003 572.07 83.7403 571.7 83.7403C571.1 83.7403 570.5 83.7403 569.9 83.6603C569.702 83.6256 569.518 83.5354 569.37 83.4003C569.162 83.2439 568.974 83.0626 568.81 82.8603C568.504 82.4587 568.081 82.1614 567.6 82.0093C567.118 81.8571 566.601 81.8575 566.12 82.0103C565.441 82.1768 564.774 82.3838 564.12 82.6303C563.48 82.8503 563.26 82.8203 562.87 82.2903C562.787 82.129 562.652 82.0005 562.487 81.926C562.321 81.8515 562.136 81.8354 561.96 81.8803C561.4 82.0103 560.96 81.6603 560.96 80.9403C560.952 80.7473 560.883 80.5619 560.762 80.4109C560.642 80.2599 560.476 80.1511 560.29 80.1003L559.4 79.7503C559.153 79.6515 558.951 79.4668 558.83 79.2303C558.64 78.9985 558.381 78.8337 558.09 78.7603C557.89 78.6903 557.79 78.6103 557.78 78.4203C557.78 77.8003 557.78 77.1703 557.67 76.5503C557.628 76.1562 557.523 75.7713 557.36 75.4103C557.059 74.819 556.725 74.2448 556.36 73.6903C556.311 73.6319 556.25 73.5853 556.181 73.5541C556.111 73.5229 556.036 73.5079 555.96 73.5103C555.622 73.5359 555.287 73.5929 554.96 73.6803C554.75 73.6803 554.62 73.6803 554.56 73.4703C554.505 73.2731 554.408 73.0904 554.275 72.9349C554.142 72.7794 553.976 72.6549 553.79 72.5703C553.539 72.4199 553.315 72.2271 553.13 72.0003C553.087 71.9669 553.055 71.9225 553.035 71.872C553.016 71.8216 553.011 71.7668 553.02 71.7135C553.029 71.6602 553.053 71.6104 553.088 71.5694C553.123 71.5283 553.169 71.4976 553.22 71.4803C553.287 71.4554 553.348 71.4146 553.397 71.3614C553.445 71.3081 553.48 71.2441 553.499 71.1745C553.517 71.1049 553.519 71.0319 553.504 70.9616C553.488 70.8913 553.456 70.8257 553.41 70.7703C553.107 70.3362 552.773 69.9251 552.41 69.5403C552.31 69.4303 552.09 69.4203 551.92 69.4003C550.058 69.1984 548.236 68.7268 546.51 68.0003C546.444 67.9801 546.377 67.9634 546.31 67.9503C546.22 68.2303 546.15 68.5003 546.04 68.7603C545.93 69.0203 545.79 69.0503 545.57 68.8903C545.457 68.8198 545.331 68.7726 545.199 68.7515C545.067 68.7304 544.933 68.7359 544.803 68.7676C544.674 68.7992 544.552 68.8565 544.445 68.936C544.338 69.0154 544.248 69.1155 544.18 69.2303C544.15 69.3416 544.15 69.459 544.18 69.5703C544.18 69.9903 544.26 70.4103 544.28 70.8403C544.3 71.2703 544.19 71.2803 543.85 71.1803C543.369 71.0827 542.926 70.8504 542.571 70.5105C542.217 70.1705 541.967 69.737 541.85 69.2603C541.797 69.056 541.73 68.8556 541.65 68.6603C541.569 68.4313 541.423 68.2313 541.229 68.0854C541.035 67.9395 540.802 67.8542 540.56 67.8403H540.31C539.37 67.7603 539.06 67.4203 539.02 66.4603C539.02 66.1003 539.02 65.7303 538.95 65.3703C538.95 65.1051 538.845 64.8507 538.657 64.6632C538.47 64.4757 538.215 64.3703 537.95 64.3703C537.52 64.3003 537.08 64.2803 536.65 64.2303C536.41 64.2303 536.16 64.2303 535.92 64.1403C535.771 64.1318 535.63 64.0708 535.522 63.9683C535.414 63.8658 535.346 63.7283 535.33 63.5803C535.33 63.1803 535.07 63.0703 534.61 63.0903C533.872 63.1921 533.188 63.5342 532.663 64.0638C532.139 64.5935 531.804 65.2811 531.71 66.0203C531.69 66.3 531.69 66.5807 531.71 66.8603C531.753 66.9803 531.765 67.1094 531.745 67.2353C531.724 67.3613 531.672 67.4799 531.593 67.58C531.514 67.6801 531.411 67.7584 531.293 67.8075C531.175 67.8565 531.047 67.8747 530.92 67.8603C530.433 67.8122 529.949 67.7388 529.47 67.6403C529.28 67.6255 529.09 67.6255 528.9 67.6403C528.716 67.6221 528.531 67.6737 528.383 67.7847C528.235 67.8958 528.134 68.0584 528.1 68.2403C527.99 68.5603 527.9 68.8303 527.47 68.9003C527.3 68.9003 527.12 69.2203 527.03 69.4303C526.94 69.6403 526.82 70.1503 526.7 70.5103C526.638 70.7233 526.543 70.9257 526.42 71.1103C526.317 71.2164 526.178 71.2805 526.03 71.2903C526.03 71.2903 525.88 71.0903 525.86 70.9703C525.75 70.1303 525.66 69.2803 525.56 68.4403C525.356 67.0038 524.881 65.6192 524.16 64.3603C524.031 64.1481 523.924 63.9237 523.84 63.6903C523.772 63.4942 523.738 63.2879 523.74 63.0803C523.8 62.1203 523.87 61.1603 523.95 60.2003C524.008 59.9908 524.021 59.7716 523.99 59.5565C523.959 59.3415 523.884 59.1351 523.77 58.9503C523.389 58.4105 522.861 57.9907 522.25 57.7403C521.69 57.5403 521.6 57.2603 522 56.8103C522.23 56.5503 522.54 56.3403 522.48 55.9203C522.83 56.0603 523.18 56.1903 523.48 56.3403C523.577 56.3732 523.667 56.4261 523.743 56.4954C523.818 56.5648 523.879 56.6493 523.92 56.7433C523.962 56.8374 523.983 56.9391 523.983 57.0419C523.983 57.1446 523.961 57.2463 523.92 57.3403C523.835 57.6173 523.703 57.8778 523.53 58.1103C523.37 58.3503 523.4 58.5303 523.65 58.6203C523.751 58.6587 523.842 58.7203 523.915 58.8002C523.988 58.8801 524.041 58.9761 524.07 59.0803C524.184 59.3284 524.36 59.5433 524.58 59.7043C524.801 59.8653 525.059 59.9672 525.33 60.0003C525.58 60.0003 525.89 60.1403 525.93 59.7003C525.93 59.6403 526.18 59.5403 526.29 59.5703C526.443 59.6286 526.586 59.7132 526.71 59.8203C526.95 59.9803 527.08 59.9303 527.11 59.6403C527.128 59.4374 527.128 59.2332 527.11 59.0303C527.256 59.0315 527.401 59.0552 527.54 59.1003C527.861 59.2454 528.166 59.423 528.45 59.6303C528.501 59.6878 528.563 59.7338 528.633 59.7653C528.703 59.7968 528.778 59.8131 528.855 59.8131C528.932 59.8131 529.007 59.7968 529.077 59.7653C529.147 59.7338 529.209 59.6878 529.26 59.6303C529.561 59.3179 529.838 58.9836 530.09 58.6303C530.126 58.5336 530.126 58.4271 530.09 58.3303C529.879 57.4973 529.781 56.6395 529.8 55.7803C529.782 55.4646 529.693 55.157 529.54 54.8803C529.43 54.6303 529.42 54.4603 529.65 54.3003C529.826 54.1816 529.959 54.0101 530.031 53.8106C530.103 53.6111 530.11 53.3938 530.05 53.1903C530.009 53.0345 530.023 52.8694 530.088 52.7222C530.153 52.575 530.267 52.4545 530.41 52.3803C530.503 52.3329 530.594 52.2795 530.68 52.2203C530.95 52.0203 530.95 51.8203 530.68 51.6303C530.41 51.4403 530.17 51.3303 529.93 51.1503C529.69 50.9703 529.66 50.6803 530.02 50.5303C530.159 50.4709 530.309 50.4403 530.46 50.4403C530.611 50.4403 530.761 50.4709 530.9 50.5303C531.39 50.6828 531.887 50.8096 532.39 50.9103C532.39 50.3803 532.39 49.9103 532.48 49.5203C532.498 49.3426 532.57 49.1748 532.686 49.039C532.803 48.9033 532.957 48.806 533.13 48.7603C533.95 48.4603 534.08 48.2403 534.08 47.3403C533.988 46.7939 534.112 46.2333 534.426 45.7763C534.739 45.3194 535.217 45.0018 535.76 44.8903C536.144 44.7153 536.566 44.6366 536.987 44.661C537.409 44.6854 537.818 44.8122 538.18 45.0303C538.303 44.8711 538.436 44.7207 538.58 44.5803C538.79 44.4183 539.039 44.3129 539.301 44.2744C539.564 44.2359 539.832 44.2655 540.08 44.3603L542.08 44.7903C542.292 44.8501 542.516 44.852 542.729 44.7957C542.942 44.7394 543.135 44.6271 543.29 44.4703C543.612 44.1545 543.916 43.8207 544.2 43.4703C544.532 43.0523 544.987 42.7482 545.5 42.6003C545.787 42.5072 546.042 42.3378 546.24 42.1103C546.375 41.938 546.548 41.7994 546.746 41.7057C546.944 41.612 547.161 41.5656 547.38 41.5703C547.579 41.5901 547.778 41.544 547.948 41.4392C548.118 41.3344 548.249 41.1767 548.32 40.9903C548.446 40.7192 548.646 40.4896 548.897 40.3284C549.149 40.1673 549.441 40.0812 549.74 40.0803C550.047 40.0724 550.347 40.1662 550.595 40.3471C550.843 40.528 551.024 40.7858 551.11 41.0803C551.431 41.8022 551.574 42.591 551.525 43.3796C551.476 44.1683 551.238 44.9335 550.83 45.6103C550.69 45.8026 550.518 45.9686 550.32 46.1003C550.168 46.2099 549.994 46.284 549.809 46.3171C549.625 46.3502 549.436 46.3414 549.255 46.2915C549.075 46.2416 548.908 46.1518 548.767 46.0287C548.626 45.9056 548.514 45.7523 548.44 45.5803C547.99 44.8103 547.64 43.9903 547.25 43.1903C547.19 43.2903 547.09 43.4603 547.01 43.6303C546.743 44.1536 546.387 44.6271 545.96 45.0303C545.699 45.333 545.481 45.6694 545.31 46.0303C545.276 46.1171 545.276 46.2135 545.31 46.3003C545.37 46.5203 545.46 46.7203 545.53 46.9403C545.729 46.8591 545.923 46.7656 546.11 46.6603C546.28 46.5403 546.42 46.3803 546.55 46.2703L547.68 48.0003C548.22 47.2903 548.32 47.2803 548.96 47.8303C549.19 48.0203 549.4 48.2303 549.63 48.4103C549.704 48.4888 549.795 48.5497 549.895 48.5884C549.996 48.6272 550.104 48.6428 550.212 48.6341C550.319 48.6255 550.423 48.5928 550.516 48.5385C550.61 48.4842 550.689 48.4096 550.75 48.3203C550.967 48.0716 551.171 47.8112 551.36 47.5403L551.99 46.7303C552.017 46.6778 552.058 46.6337 552.108 46.6029C552.158 46.5721 552.216 46.5558 552.275 46.5558C552.334 46.5558 552.392 46.5721 552.442 46.6029C552.492 46.6337 552.533 46.6778 552.56 46.7303C552.672 46.9429 552.737 47.1775 552.749 47.4176C552.761 47.6577 552.72 47.8975 552.63 48.1203C552.55 48.2303 552.38 48.2803 552.26 48.3603C552.14 48.4403 551.93 48.5103 551.93 48.5703C551.941 48.7384 552.016 48.8958 552.14 49.0103C552.461 49.156 552.796 49.2699 553.14 49.3503C553.85 49.5103 554.57 49.6303 555.28 49.7703C555.436 49.8256 555.587 49.896 555.73 49.9803C555.64 50.1203 555.51 50.2203 555.51 50.3203C555.488 50.4992 555.531 50.6799 555.63 50.8303C555.703 50.891 555.788 50.9342 555.88 50.9568C555.972 50.9793 556.068 50.9805 556.16 50.9603C556.355 50.885 556.571 50.8842 556.766 50.958C556.962 51.0317 557.123 51.175 557.22 51.3603C557.385 51.6042 557.536 51.858 557.67 52.1203C557.757 52.2877 557.887 52.4289 558.047 52.5291C558.207 52.6293 558.391 52.6849 558.58 52.6903C558.87 52.6903 559.05 52.5703 559.03 52.2903C559.03 51.8103 558.92 51.2903 558.86 50.8603C558.86 50.7303 558.79 50.6103 558.76 50.4903C559.33 50.2803 559.64 50.4903 559.67 51.0903C559.666 51.3945 559.72 51.6966 559.83 51.9803C560.39 53.1103 560.99 54.2303 561.6 55.3803C561.74 54.3803 561.91 53.4703 562.03 52.5203C562.035 52.3495 562.088 52.1835 562.184 52.0418C562.279 51.9001 562.413 51.7886 562.57 51.7203C562.866 51.5722 563.174 51.4485 563.49 51.3503C563.775 51.2768 564.041 51.1433 564.27 50.9588C564.5 50.7743 564.687 50.543 564.82 50.2803C564.911 50.0884 565.032 49.9127 565.18 49.7603C565.244 49.7138 565.317 49.6809 565.395 49.6637C565.472 49.6465 565.552 49.6453 565.63 49.6603C565.69 49.6603 565.78 49.9003 565.75 50.0103C565.62 50.5303 565.46 51.0103 565.3 51.5603C565.21 51.8403 565.09 52.1203 565.02 52.4303C565.96 52.2903 566.36 51.4803 567.02 50.9403C566.879 51.3151 566.705 51.6765 566.5 52.0203C566.333 52.2919 566.231 52.5982 566.202 52.9155C566.172 53.2328 566.216 53.5526 566.33 53.8503H566.4C566.52 53.5703 566.56 53.1403 566.76 53.0403C567.21 52.8713 567.681 52.7669 568.16 52.7303C568.379 52.7104 568.6 52.7104 568.82 52.7303C568.82 52.7303 568.82 52.6703 568.82 52.6503C568.82 51.8303 569 51.6503 569.82 51.6503C570.35 51.6503 570.88 51.7603 571.4 51.8203H571.71C571.67 51.5463 571.609 51.2756 571.53 51.0103C571.492 50.9487 571.47 50.8782 571.467 50.8057C571.465 50.7333 571.481 50.6614 571.514 50.5969C571.547 50.5325 571.596 50.4778 571.657 50.4381C571.718 50.3984 571.788 50.375 571.86 50.3703C572.35 50.2503 572.86 50.1603 573.34 50.0703L576.81 49.4903C576.89 49.0451 576.993 48.6045 577.12 48.1703C577.24 47.915 577.387 47.6735 577.56 47.4503C577.75 47.6603 577.95 47.8603 578.12 48.0903C578.206 48.232 578.267 48.3877 578.3 48.5503C578.44 49.2703 578.9 49.3403 579.49 49.2603C579.75 49.2603 579.99 49.1303 580.25 49.0803C580.69 49.0103 580.86 49.2003 580.89 49.6503C580.895 50.2692 580.764 50.8816 580.504 51.4436C580.245 52.0055 579.864 52.503 579.39 52.9003L578.56 53.7703C579.14 53.5403 579.64 53.3703 580.11 53.1503C580.618 52.9301 581.166 52.8177 581.72 52.8203C582.968 52.7485 584.221 52.8529 585.44 53.1303C585.594 53.1376 585.748 53.1275 585.9 53.1003Z" fill="white"/>
<path d="M558.47 50.0002C557.58 49.7002 557.25 49.1702 557.47 48.3402C557.669 47.8785 557.918 47.4394 558.21 47.0302C558.294 46.9306 558.405 46.8576 558.53 46.8202L559.98 46.1102C560.2 46.0102 560.43 45.9302 560.66 45.8502C560.66 45.8502 560.78 45.8502 560.8 45.8502C561.17 45.3302 561.8 45.5002 562.3 45.3202C562.65 45.2507 563.01 45.2507 563.36 45.3202C563.695 45.3333 564.029 45.3667 564.36 45.4202C564.523 45.4322 564.676 45.5033 564.79 45.6202C564.904 45.7482 565.052 45.8414 565.216 45.8892C565.381 45.9369 565.555 45.9373 565.72 45.8902C566.03 45.8902 566.34 45.7602 566.66 45.7202C566.76 45.7202 566.95 45.7202 566.97 45.7902C566.985 45.8495 566.987 45.9113 566.977 45.9715C566.967 46.0318 566.944 46.0892 566.91 46.1402C566.786 46.3433 566.602 46.5026 566.383 46.5959C566.165 46.6891 565.922 46.7116 565.69 46.6602C565.18 46.5802 564.69 46.5102 564.16 46.3802C563.598 46.2374 563.004 46.283 562.47 46.5102C561.64 46.8302 560.82 47.1902 559.98 47.5102C559.566 47.6407 559.204 47.8986 558.946 48.2469C558.687 48.5953 558.545 49.0164 558.54 49.4502C558.54 49.5402 558.54 49.6302 558.54 49.7302C558.54 49.8302 558.49 49.8402 558.47 50.0002Z" fill="white"/>
<path d="M611.78 79.61C611.62 79.61 611.47 79.52 611.32 79.46C611.02 79.33 610.9 79.38 610.83 79.72C610.83 79.86 610.83 80.02 610.83 80.17V80.54H610.74C610.601 80.4113 610.476 80.267 610.37 80.11C610.07 79.54 609.81 78.95 609.51 78.38C609.41 78.17 609.23 78 609.11 77.8C608.87 77.38 608.64 76.94 608.41 76.51C608.18 76.08 607.91 75.51 607.6 75.02C607.387 74.7333 607.146 74.4687 606.88 74.23C606.686 74.0635 606.512 73.8757 606.36 73.67C606.037 73.1343 605.753 72.5762 605.51 72C605.458 71.6687 605.458 71.3313 605.51 71C605.777 71.1349 606.025 71.3029 606.25 71.5C606.529 71.7511 606.763 72.0489 606.94 72.38C607.435 73.2557 608.118 74.0106 608.94 74.59L610.42 75.79C610.505 75.8684 610.585 75.9518 610.66 76.04L610.61 76.12L609.83 75.86C609.56 75.77 609.43 75.86 609.42 76.15C609.425 76.6139 609.551 77.0684 609.787 77.4683C610.022 77.8683 610.357 78.1998 610.76 78.43C611.224 78.6614 611.623 79.0052 611.92 79.43L611.78 79.61Z" fill="white"/>
<path d="M589.67 48.4C589.826 48.4784 589.986 48.5485 590.15 48.61C590.52 48.73 590.9 48.81 591.27 48.93C591.33 48.9434 591.387 48.9704 591.436 49.0088C591.484 49.0473 591.524 49.0963 591.551 49.1521C591.578 49.2079 591.591 49.2692 591.591 49.3312C591.591 49.3931 591.577 49.4543 591.55 49.51C591.545 49.5933 591.545 49.6768 591.55 49.76C591.46 50.24 591.45 50.24 590.96 50.2C590.47 50.16 590.5 50.2 590.53 49.7C590.543 49.6361 590.542 49.5699 590.527 49.5064C590.511 49.4429 590.482 49.3836 590.441 49.3328C590.4 49.2821 590.348 49.2411 590.289 49.213C590.23 49.1848 590.165 49.1701 590.1 49.17C589.984 49.1551 589.866 49.1551 589.75 49.17C589.551 49.2164 589.344 49.201 589.154 49.1259C588.965 49.0508 588.803 48.9197 588.69 48.75C588.422 48.3237 588.192 47.8754 588 47.41C587.92 47.25 588 47.1 588.23 47.12C588.46 47.14 588.79 47.21 589.07 47.22C589.3 47.2392 589.531 47.212 589.75 47.14C590.43 46.91 591.09 46.65 591.75 46.39L592.33 46.15C592.379 46.1246 592.433 46.1093 592.488 46.1052C592.543 46.101 592.598 46.108 592.65 46.1257C592.703 46.1435 592.751 46.1716 592.792 46.2084C592.833 46.2453 592.866 46.29 592.89 46.34C592.97 46.61 592.78 46.67 592.59 46.7C592.21 46.76 591.84 46.81 591.47 46.84C591.1 46.87 590.88 46.93 590.81 47.39C590.786 47.5654 590.709 47.7293 590.589 47.8597C590.469 47.9902 590.313 48.081 590.14 48.12L589.72 48.26L589.67 48.4Z" fill="white"/>
<path d="M576.25 47.4899C576.213 47.3332 576.156 47.1819 576.08 47.0399C575.644 46.3426 575.104 45.7154 574.48 45.1799C574.01 44.8499 574.02 44.7699 574.35 44.2999C574.5 44.0899 574.63 43.8699 574.76 43.6499C574.818 43.5253 574.918 43.4245 575.042 43.3644C575.165 43.3043 575.306 43.2886 575.44 43.3199C575.75 43.3999 575.82 43.6499 575.85 43.9499C575.88 44.2499 575.97 44.4499 575.99 44.6999C576.02 45.0059 576.02 45.314 575.99 45.6199C575.99 46.0299 576.05 46.1499 576.44 46.0499C576.683 45.9726 576.93 45.9091 577.18 45.8599C577.23 45.8578 577.28 45.8665 577.327 45.8855C577.374 45.9045 577.416 45.9333 577.45 45.9699C577.541 46.179 577.558 46.413 577.498 46.6331C577.438 46.8532 577.305 47.0461 577.12 47.1799C576.85 47.2999 576.54 47.3899 576.25 47.4899Z" fill="white"/>
<path d="M567.5 557.86C568.07 559.36 568.07 559.36 569.67 559.35H569.92C570.92 559.35 570.97 559.35 571.28 558.35C571.39 558 571.53 557.86 571.91 557.87C573.23 557.87 574.56 557.81 575.91 557.87C576.626 557.933 577.305 558.216 577.855 558.679C578.404 559.143 578.797 559.765 578.98 560.46C579.36 561.46 579.45 562.62 579.73 563.69C580.656 567.29 581.61 570.894 582.59 574.5C582.754 574.958 582.782 575.453 582.668 575.926C582.554 576.399 582.305 576.828 581.95 577.16C581.591 577.535 581.137 577.804 580.636 577.938C580.135 578.072 579.607 578.066 579.11 577.92C578.738 577.816 578.404 577.607 578.149 577.318C577.893 577.029 577.727 576.672 577.67 576.29C577.09 573.44 576.55 570.58 575.91 567.71V568.36C575.91 579.887 575.91 591.41 575.91 602.93C575.946 603.31 575.897 603.692 575.768 604.05C575.638 604.409 575.43 604.734 575.159 605.002C574.888 605.27 574.561 605.474 574.201 605.6C573.842 605.726 573.459 605.77 573.08 605.73C572.63 605.745 572.181 605.708 571.74 605.62C571.348 605.456 571.014 605.178 570.784 604.821C570.554 604.463 570.437 604.045 570.45 603.62C570.45 603.38 570.45 603.13 570.45 602.88V582H569V582.78C569 589.534 569 596.287 569 603.04C569.039 603.502 568.948 603.966 568.738 604.38C568.528 604.793 568.206 605.14 567.81 605.38C566.66 606.07 564.44 605.83 563.68 604.86C563.355 604.447 563.163 603.945 563.13 603.42C563.13 597.28 563.13 591.15 563.13 585.02C563.13 579.24 563.13 573.46 563.04 567.66C562.82 568.72 562.6 569.78 562.4 570.84C562.05 572.64 561.73 574.43 561.4 576.23C561.261 576.811 560.902 577.316 560.398 577.637C559.894 577.958 559.285 578.07 558.7 577.95C558.283 577.889 557.886 577.735 557.537 577.499C557.189 577.262 556.898 576.95 556.687 576.585C556.477 576.221 556.351 575.813 556.32 575.393C556.29 574.973 556.354 574.552 556.51 574.16C557.61 570.43 558.51 566.64 559.51 562.87C559.693 561.886 559.96 560.919 560.31 559.98C560.564 559.296 561.037 558.714 561.655 558.325C562.273 557.937 563.003 557.763 563.73 557.83C565 557.91 566.23 557.86 567.5 557.86Z" fill="white"/>
<path d="M546 541.64C546.86 541.64 547.7 541.64 548.55 541.64C548.654 541.615 548.751 541.567 548.834 541.499C548.917 541.432 548.984 541.347 549.03 541.25C549.45 540.18 549.44 540.17 550.61 540.17H552C551.579 541.392 551.504 542.707 551.785 543.97C552.066 545.232 552.69 546.391 553.59 547.32C553.02 547.32 552.5 547.37 551.99 547.41C550.983 547.495 550.023 547.875 549.232 548.503C548.44 549.131 547.851 549.979 547.54 550.94C547.173 552.111 546.879 553.303 546.66 554.51C545.9 557.51 545.11 560.51 544.34 563.43C544.063 564.271 543.842 565.13 543.68 566C543.536 566.954 543.732 567.928 544.235 568.751C544.738 569.574 545.515 570.193 546.43 570.5C546.79 570.63 546.91 570.77 546.91 571.14C546.91 576.01 546.91 580.89 546.91 585.76C546.918 586.291 546.738 586.807 546.401 587.218C546.064 587.628 545.592 587.905 545.07 588C544.464 588.12 543.844 588.15 543.23 588.09C542.904 588.061 542.587 587.968 542.298 587.815C542.008 587.662 541.753 587.452 541.546 587.199C541.339 586.945 541.185 586.653 541.093 586.338C541.001 586.024 540.972 585.695 541.01 585.37V550.07H540.94C540.74 551.07 540.53 552.07 540.34 553.14C540 554.91 539.67 556.69 539.34 558.46C539.297 558.773 539.189 559.074 539.023 559.342C538.856 559.611 538.636 559.842 538.375 560.02C538.113 560.198 537.818 560.32 537.507 560.376C537.196 560.433 536.877 560.424 536.57 560.35C534.84 559.93 533.9 558.59 534.31 557.06C534.66 555.73 535.1 554.42 535.43 553.06C536.19 549.98 536.9 546.88 537.64 543.79C538.05 542.08 539.12 540.37 540.86 540.23C542.31 540.1 543.78 540.16 545.25 540.17C545.35 540.17 545.5 540.34 545.56 540.47C545.68 540.84 545.8 541.23 546 541.64Z" fill="white"/>
<path d="M552 558.76C551.493 561.334 550.99 563.907 550.49 566.48C550.43 566.8 550.39 567.12 550.31 567.48C550.241 567.788 550.108 568.077 549.92 568.33C549.733 568.584 549.495 568.795 549.221 568.951C548.947 569.107 548.644 569.205 548.33 569.237C548.017 569.27 547.7 569.237 547.4 569.14C547.038 569.076 546.693 568.937 546.389 568.731C546.084 568.525 545.826 568.257 545.632 567.945C545.438 567.632 545.311 567.283 545.261 566.919C545.211 566.554 545.238 566.183 545.34 565.83C546.16 562.83 547.01 559.83 547.79 556.83C548.14 555.49 548.34 554.1 548.63 552.74C549.04 550.82 550.29 548.74 552.92 548.99C553.919 549.049 554.921 549.049 555.92 548.99C556.004 548.976 556.09 548.979 556.173 548.998C556.257 549.018 556.335 549.054 556.404 549.104C556.473 549.155 556.531 549.218 556.575 549.291C556.619 549.365 556.648 549.446 556.66 549.53C556.95 550.53 556.97 550.53 557.97 550.53C558.137 550.52 558.304 550.52 558.47 550.53C559.47 550.67 560.17 550.53 560.29 549.36C560.312 549.287 560.354 549.22 560.41 549.168C560.466 549.115 560.535 549.078 560.61 549.06C561.38 549.06 562.16 549.06 563.01 549.06C562.589 550.297 562.522 551.626 562.817 552.899C563.112 554.171 563.758 555.335 564.68 556.26C564.14 556.26 563.68 556.26 563.29 556.26C562.261 556.282 561.264 556.617 560.431 557.221C559.598 557.825 558.97 558.669 558.63 559.64C558.285 560.642 558.018 561.668 557.83 562.71C556.97 566.044 556.107 569.377 555.24 572.71C554.827 573.718 554.629 574.801 554.66 575.89C554.743 576.663 555.044 577.397 555.527 578.005C556.01 578.614 556.656 579.074 557.39 579.33C557.574 579.369 557.737 579.476 557.844 579.631C557.952 579.785 557.997 579.974 557.97 580.16C557.97 584.85 557.97 589.53 557.97 594.22C558.018 594.593 557.979 594.972 557.857 595.328C557.735 595.684 557.533 596.006 557.266 596.271C556.999 596.536 556.675 596.736 556.318 596.856C555.962 596.975 555.583 597.011 555.21 596.96C554.41 597.072 553.597 596.871 552.94 596.4C552.659 596.173 552.434 595.885 552.281 595.557C552.129 595.23 552.053 594.872 552.06 594.51C552.06 590.21 552.06 585.92 552.06 581.62C552.06 577.32 552.06 572.95 552.06 568.62V558.84L552 558.76Z" fill="white"/>
<path d="M574.28 556.2C575.211 555.281 575.866 554.119 576.17 552.846C576.474 551.574 576.415 550.241 576 549H578.58C578.76 549.45 578.82 550.1 579.15 550.31C579.48 550.52 580.15 550.39 580.66 550.41H580.9C581.99 550.41 582.02 550.41 582.32 549.41C582.332 549.331 582.36 549.256 582.402 549.188C582.444 549.12 582.5 549.061 582.565 549.015C582.63 548.97 582.705 548.938 582.783 548.921C582.861 548.905 582.942 548.905 583.02 548.92C584.02 548.92 585.02 548.92 586.02 548.92C588.29 548.92 589.88 550.02 590.27 552.23C591.08 556.85 592.46 561.32 593.68 565.83C593.828 566.351 593.8 566.907 593.599 567.41C593.398 567.913 593.036 568.335 592.57 568.61C592.137 568.935 591.611 569.11 591.07 569.11C590.529 569.11 590.003 568.935 589.57 568.61C589.164 568.243 588.878 567.762 588.75 567.23C588.17 564.48 587.66 561.71 587.12 558.95C587.115 558.914 587.1 558.881 587.077 558.852C587.054 558.824 587.024 558.803 586.99 558.79V594.12C587.027 594.48 586.983 594.844 586.863 595.186C586.743 595.527 586.549 595.838 586.295 596.096C586.041 596.354 585.733 596.552 585.393 596.678C585.054 596.803 584.691 596.852 584.33 596.82H583.95C582.16 597 581.57 595.82 581.56 594.4C581.56 589.51 581.56 584.61 581.56 579.72C581.547 579.572 581.585 579.423 581.666 579.298C581.748 579.173 581.869 579.079 582.01 579.03C582.939 578.572 583.671 577.793 584.071 576.837C584.472 575.882 584.514 574.814 584.19 573.83C583.13 569.95 582.13 566.06 581.19 562.16C581.002 560.923 580.599 559.729 580 558.63C579.535 557.836 578.864 557.181 578.058 556.736C577.252 556.291 576.34 556.071 575.42 556.1L574.28 556.2Z" fill="white"/>
<path d="M597.94 550V550.71C597.94 562.303 597.94 573.89 597.94 585.47C597.973 585.826 597.928 586.185 597.808 586.521C597.688 586.858 597.496 587.165 597.246 587.42C596.996 587.675 596.693 587.872 596.359 587.998C596.024 588.125 595.666 588.176 595.31 588.15C594.977 588.173 594.643 588.173 594.31 588.15C593.77 588.066 593.285 587.774 592.958 587.337C592.631 586.899 592.488 586.351 592.56 585.81C592.56 580.81 592.56 575.89 592.56 570.93C592.575 570.832 592.612 570.738 592.667 570.655C592.723 570.572 592.795 570.502 592.88 570.45C593.839 570.017 594.605 569.244 595.029 568.281C595.454 567.317 595.508 566.231 595.18 565.23C594.31 562.09 593.45 558.95 592.63 555.8C592.33 554.63 592.2 553.42 591.91 552.25C591.37 550.05 590.23 548.25 587.91 547.63C587.093 547.461 586.264 547.361 585.43 547.33C586.322 546.413 586.942 545.267 587.223 544.02C587.503 542.772 587.433 541.471 587.02 540.26H589.62L590.14 541.71C591 541.71 591.88 541.71 592.77 541.71C592.85 541.694 592.925 541.659 592.989 541.608C593.053 541.558 593.105 541.494 593.14 541.42C593.304 541.035 593.448 540.641 593.57 540.24C595.04 540.24 596.51 540.17 597.97 540.24C598.635 540.296 599.268 540.545 599.793 540.958C600.317 541.37 600.709 541.927 600.92 542.56C601.229 543.49 601.476 544.438 601.66 545.4C602.66 549.17 603.6 552.94 604.66 556.69C604.825 557.126 604.878 557.597 604.812 558.059C604.746 558.52 604.565 558.958 604.284 559.33C604.003 559.703 603.633 559.998 603.207 560.189C602.782 560.379 602.315 560.459 601.85 560.42C601.343 560.397 600.86 560.204 600.477 559.872C600.094 559.54 599.834 559.088 599.74 558.59L598 550H597.94Z" fill="white"/>
<path d="M552.38 533.62C552.459 534.857 552.07 536.078 551.291 537.041C550.511 538.005 549.398 538.64 548.172 538.821C546.947 539.003 545.697 538.717 544.673 538.02C543.648 537.323 542.922 536.267 542.64 535.06C542.303 533.874 542.389 532.608 542.883 531.479C543.378 530.349 544.25 529.427 545.35 528.87C546.028 528.579 546.762 528.442 547.5 528.468C548.237 528.494 548.959 528.683 549.615 529.022C550.271 529.36 550.844 529.839 551.292 530.425C551.741 531.011 552.054 531.689 552.21 532.41C552.28 532.81 552.32 533.22 552.38 533.62Z" fill="white"/>
<path d="M586.64 533.9C586.544 533.239 586.582 532.565 586.753 531.919C586.924 531.273 587.224 530.669 587.635 530.142C588.046 529.615 588.56 529.177 589.144 528.854C589.729 528.531 590.373 528.329 591.038 528.262C591.703 528.194 592.374 528.262 593.012 528.461C593.65 528.66 594.241 528.986 594.749 529.419C595.258 529.852 595.673 530.384 595.971 530.982C596.268 531.581 596.441 532.233 596.48 532.9C596.582 533.603 596.539 534.319 596.354 535.004C596.169 535.69 595.845 536.33 595.403 536.886C594.96 537.441 594.409 537.9 593.783 538.235C593.156 538.569 592.468 538.772 591.76 538.83C591.099 538.846 590.442 538.731 589.826 538.491C589.21 538.251 588.648 537.892 588.172 537.433C587.695 536.975 587.315 536.426 587.052 535.82C586.789 535.213 586.649 534.561 586.64 533.9Z" fill="white"/>
<path d="M574.4 551.33C574.444 552.629 573.982 553.893 573.11 554.856C572.238 555.819 571.026 556.405 569.73 556.49C568.94 556.51 568.156 556.345 567.44 556.01C566.724 555.675 566.096 555.178 565.605 554.558C565.115 553.938 564.775 553.213 564.612 552.439C564.45 551.666 564.47 550.865 564.67 550.1C564.795 549.452 565.048 548.835 565.415 548.286C565.783 547.737 566.256 547.267 566.808 546.905C567.36 546.542 567.979 546.294 568.629 546.174C569.278 546.055 569.945 546.067 570.59 546.21C571.713 546.503 572.702 547.17 573.395 548.101C574.087 549.032 574.442 550.171 574.4 551.33Z" fill="white"/>
<path d="M574.42 533.63C574.371 534.599 574.039 535.532 573.464 536.313C572.889 537.094 572.098 537.689 571.188 538.025C570.278 538.36 569.29 538.421 568.345 538.199C567.401 537.978 566.543 537.484 565.877 536.779C565.211 536.073 564.767 535.188 564.6 534.233C564.433 533.278 564.551 532.294 564.937 531.405C565.324 530.516 565.964 529.76 566.777 529.231C567.59 528.702 568.54 528.424 569.51 528.43C570.85 528.472 572.118 529.043 573.038 530.017C573.958 530.992 574.455 532.291 574.42 533.63Z" fill="white"/>
<path d="M558.5 537.26C559.566 537.291 560.594 537.662 561.434 538.319C562.274 538.975 562.883 539.883 563.17 540.91C563.509 542.051 563.459 543.273 563.028 544.382C562.597 545.492 561.81 546.427 560.79 547.04C559.744 547.644 558.508 547.828 557.332 547.553C556.156 547.278 555.129 546.565 554.46 545.56C553.955 544.863 553.629 544.052 553.511 543.198C553.393 542.345 553.486 541.476 553.782 540.668C554.079 539.859 554.569 539.135 555.21 538.56C555.851 537.985 556.624 537.577 557.46 537.37C557.804 537.308 558.151 537.272 558.5 537.26Z" fill="white"/>
<path d="M585.44 542.54C585.486 543.799 585.049 545.028 584.218 545.974C583.386 546.921 582.224 547.513 580.97 547.63C580.052 547.747 579.12 547.583 578.297 547.16C577.474 546.737 576.799 546.075 576.36 545.26C575.969 544.629 575.714 543.924 575.612 543.188C575.51 542.453 575.564 541.704 575.769 540.991C575.975 540.278 576.327 539.616 576.805 539.047C577.282 538.478 577.873 538.016 578.54 537.69C579.316 537.349 580.167 537.215 581.011 537.299C581.855 537.383 582.663 537.683 583.356 538.171C584.05 538.659 584.606 539.317 584.971 540.082C585.336 540.848 585.498 541.694 585.44 542.54Z" fill="white"/>
<path d="M588.57 570.25L591.1 570.98C591.1 571.06 591.1 571.24 591.1 571.41V585.41C591.125 585.757 591.077 586.106 590.96 586.434C590.842 586.762 590.658 587.062 590.417 587.314C590.177 587.566 589.887 587.766 589.566 587.899C589.244 588.033 588.898 588.098 588.55 588.09L588.57 570.25Z" fill="white"/>
<path d="M577.53 579C577.934 579.191 578.348 579.361 578.77 579.51C579.188 579.612 579.612 579.689 580.04 579.74V594.46C580.047 594.788 579.987 595.113 579.862 595.416C579.738 595.719 579.551 595.993 579.316 596.22C579.08 596.448 578.799 596.624 578.492 596.737C578.185 596.851 577.857 596.899 577.53 596.88V579Z" fill="white"/>
<path d="M563.3 547.26C564.202 546.342 564.829 545.189 565.11 543.932C565.391 542.676 565.315 541.366 564.89 540.15C565.62 540.15 566.32 540.15 567.02 540.15C567.39 540.15 567.6 540.24 567.67 540.62C567.67 540.8 567.8 540.97 567.83 541.15C567.9 541.55 568.11 541.68 568.52 541.66C569.159 541.62 569.8 541.62 570.44 541.66C570.518 541.678 570.6 541.678 570.679 541.662C570.757 541.645 570.832 541.613 570.897 541.565C570.962 541.518 571.017 541.458 571.057 541.388C571.097 541.318 571.122 541.24 571.13 541.16C571.21 540.83 571.35 540.5 571.46 540.16H574.07C573.647 541.375 573.571 542.684 573.85 543.94C574.13 545.195 574.753 546.349 575.65 547.27L575.54 547.41C575.29 547.27 574.96 547.2 574.79 546.99C574.146 546.202 573.336 545.567 572.417 545.13C571.497 544.694 570.492 544.467 569.475 544.467C568.457 544.467 567.452 544.694 566.533 545.13C565.614 545.567 564.803 546.202 564.16 546.99C563.94 547.178 563.694 547.333 563.43 547.45L563.3 547.26Z" fill="white"/>
<path d="M550.37 588.07C550.103 588.085 549.837 588.043 549.588 587.947C549.339 587.852 549.112 587.705 548.924 587.516C548.735 587.328 548.588 587.101 548.493 586.852C548.397 586.603 548.355 586.337 548.37 586.07C548.37 581.07 548.37 575.99 548.37 570.96C548.366 570.927 548.366 570.893 548.37 570.86L550.37 570.18V588.07Z" fill="white"/>
<path d="M561.46 596.86C560.39 596.97 559.67 596.34 559.46 595.08C559.45 594.957 559.45 594.833 559.46 594.71C559.46 589.75 559.46 584.793 559.46 579.84C559.453 579.807 559.453 579.773 559.46 579.74L561.46 579.02V596.86Z" fill="white"/>
<path d="M327.79 295.71V296.82C332.566 296.817 337.294 295.859 341.694 294C346.094 292.142 350.078 289.422 353.41 286C360.213 278.999 364.018 269.622 364.018 259.86C364.018 250.098 360.213 240.721 353.41 233.72C350.081 230.293 346.098 227.569 341.697 225.709C337.297 223.849 332.568 222.891 327.79 222.891C323.012 222.891 318.283 223.849 313.883 225.709C309.482 227.569 305.499 230.293 302.17 233.72C295.367 240.721 291.562 250.098 291.562 259.86C291.562 269.622 295.367 278.999 302.17 286C305.502 289.422 309.486 292.142 313.886 294C318.286 295.859 323.014 296.817 327.79 296.82V294.59C323.302 294.588 318.86 293.688 314.726 291.941C310.592 290.194 306.85 287.637 303.72 284.42C297.328 277.843 293.752 269.032 293.752 259.86C293.752 250.688 297.328 241.878 303.72 235.3C306.849 232.082 310.591 229.524 314.725 227.777C318.859 226.031 323.302 225.131 327.79 225.131C332.278 225.131 336.721 226.031 340.855 227.777C344.989 229.524 348.731 232.082 351.86 235.3C358.252 241.878 361.828 250.688 361.828 259.86C361.828 269.032 358.252 277.843 351.86 284.42C348.73 287.636 344.987 290.193 340.853 291.939C336.72 293.686 332.278 294.587 327.79 294.59V295.71Z" fill="#0092D4"/>
<path d="M62.2399 269.52V271.43C70.4443 271.424 78.5644 269.775 86.1213 266.58C93.6782 263.386 100.519 258.711 106.24 252.83C117.929 240.809 124.469 224.702 124.469 207.935C124.469 191.168 117.929 175.061 106.24 163.04C100.521 157.158 93.6801 152.482 86.1226 149.289C78.5651 146.097 70.4442 144.452 62.2399 144.452C54.0357 144.452 45.9148 146.097 38.3573 149.289C30.7998 152.482 23.9592 157.158 18.2399 163.04C6.55094 175.061 0.0113525 191.168 0.0113525 207.935C0.0113525 224.702 6.55094 240.809 18.2399 252.83C23.961 258.711 30.8017 263.386 38.3586 266.58C45.9155 269.775 54.0356 271.424 62.2399 271.43V267.6C54.5293 267.597 46.8974 266.049 39.7952 263.046C32.6931 260.044 26.2647 255.649 20.8899 250.12C9.90591 238.825 3.76065 223.69 3.76065 207.935C3.76065 192.179 9.90591 177.045 20.8899 165.75C26.2645 160.222 32.693 155.827 39.7954 152.826C46.8977 149.826 54.5297 148.28 62.2399 148.28C69.9502 148.28 77.5822 149.826 84.6845 152.826C91.7869 155.827 98.2154 160.222 103.59 165.75C114.574 177.045 120.719 192.179 120.719 207.935C120.719 223.69 114.574 238.825 103.59 250.12C98.2145 255.648 91.786 260.042 84.684 263.045C77.582 266.047 69.9505 267.596 62.2399 267.6V269.52Z" fill="#0092D4"/>
<path d="M62.2399 473.81V475.73C70.4443 475.724 78.5644 474.075 86.1213 470.881C93.6782 467.686 100.519 463.011 106.24 457.13C117.929 445.109 124.469 429.003 124.469 412.235C124.469 395.468 117.929 379.362 106.24 367.34C100.521 361.458 93.6801 356.782 86.1226 353.59C78.5651 350.397 70.4442 348.752 62.2399 348.752C54.0357 348.752 45.9148 350.397 38.3573 353.59C30.7998 356.782 23.9592 361.458 18.2399 367.34C6.55094 379.362 0.0113525 395.468 0.0113525 412.235C0.0113525 429.003 6.55094 445.109 18.2399 457.13C23.961 463.011 30.8017 467.686 38.3586 470.881C45.9155 474.075 54.0356 475.724 62.2399 475.73V471.89C54.53 471.889 46.8985 470.342 39.7964 467.341C32.6943 464.341 26.2655 459.947 20.8899 454.42C9.90591 443.125 3.76065 427.991 3.76065 412.235C3.76065 396.48 9.90591 381.346 20.8899 370.05C26.2645 364.522 32.693 360.127 39.7954 357.127C46.8977 354.126 54.5297 352.58 62.2399 352.58C69.9502 352.58 77.5822 354.126 84.6845 357.127C91.7869 360.127 98.2154 364.522 103.59 370.05C114.574 381.346 120.719 396.48 120.719 412.235C120.719 427.991 114.574 443.125 103.59 454.42C98.214 459.947 91.7852 464.34 84.6832 467.34C77.5811 470.341 69.9498 471.888 62.2399 471.89V473.81Z" fill="#0092D4"/>
</g>
<defs>
<clipPath id="clip0_27_2">
<rect width="1149.5" height="627.1" fill="white"/>
</clipPath>
</defs>
</svg>
