<svg xmlns="http://www.w3.org/2000/svg" viewBox="0 0 70.56 77.38"><defs><style>.cls-1{fill:#fff;}</style></defs><title>Ресурс 8</title><g id="Слой_2" data-name="Слой 2"><g id="Layer_3" data-name="Layer 3"><path class="cls-1" d="M33.32,29.44c.57,1.5.57,1.5,2.18,1.49h.25c1,0,1,0,1.36-1,.11-.35.25-.49.63-.48,1.32,0,2.65-.06,4,0A3.47,3.47,0,0,1,44.77,32c.38,1,.47,2.16.75,3.23.94,3.6,1.89,7.21,2.87,10.8a2.52,2.52,0,0,1-.64,2.67,2.83,2.83,0,0,1-2.84.76,2,2,0,0,1-1.45-1.63c-.58-2.85-1.12-5.71-1.75-8.58v.65c0,11.53,0,23.05,0,34.57a2.57,2.57,0,0,1-2.83,2.8,6,6,0,0,1-1.35-.11,2.09,2.09,0,0,1-1.28-2,6.06,6.06,0,0,1,0-.74V53.6H34.83v.77q0,10.14,0,20.26A2.49,2.49,0,0,1,33.64,77c-1.14.69-3.36.45-4.12-.52A2.68,2.68,0,0,1,29,75c0-6.14,0-12.27,0-18.4,0-5.78,0-11.56-.09-17.36-.22,1.06-.44,2.12-.65,3.18-.34,1.8-.66,3.59-1,5.39a2.29,2.29,0,0,1-2.7,1.72,2.8,2.8,0,0,1-2.19-3.79c1.11-3.73,2-7.53,3-11.29a19.54,19.54,0,0,1,.8-2.89,3.34,3.34,0,0,1,3.42-2.15C30.78,29.49,32.06,29.44,33.32,29.44Z"/><path class="cls-1" d="M11.78,13.22c.85,0,1.7,0,2.54,0a.68.68,0,0,0,.48-.4c.43-1.06.42-1.07,1.59-1.07h1.43a7,7,0,0,0,1.59,7.15c-.57,0-1.09,0-1.61.09a5.14,5.14,0,0,0-4.44,3.52,28.35,28.35,0,0,0-.88,3.58Q11.33,30.54,10.15,35a21.83,21.83,0,0,0-.65,2.56,4.09,4.09,0,0,0,2.75,4.51c.36.13.47.26.47.64,0,4.87,0,9.75,0,14.62a2.23,2.23,0,0,1-1.83,2.24A6.07,6.07,0,0,1,9,59.64a2.44,2.44,0,0,1-2.21-2.72V21.63H6.74l-.6,3.06c-.34,1.78-.66,3.56-1,5.33A2.26,2.26,0,0,1,2.36,31.9,2.68,2.68,0,0,1,.09,28.61c.36-1.33.8-2.64,1.12-4,.76-3.09,1.48-6.18,2.21-9.27C3.83,13.65,4.9,12,6.64,11.81c1.46-.13,2.93-.07,4.39-.06.11,0,.26.17.31.3C11.5,12.42,11.63,12.81,11.78,13.22Z"/><path class="cls-1" d="M17.81,30.33l-1.5,7.72c-.06.33-.1.65-.18,1a2.27,2.27,0,0,1-2.91,1.66,2.63,2.63,0,0,1-2.07-3.31c.83-3,1.68-6,2.46-9,.35-1.34.55-2.73.84-4.09.41-1.92,1.65-3.95,4.28-3.75a25.69,25.69,0,0,0,3,0,.63.63,0,0,1,.73.54c.3,1,.31,1,1.32,1a4,4,0,0,1,.49,0c1,.14,1.71,0,1.83-1.18a.43.43,0,0,1,.31-.29c.78,0,1.56,0,2.41,0a7,7,0,0,0,1.66,7.2c-.54,0-1,0-1.39,0a5,5,0,0,0-4.65,3.38,22,22,0,0,0-.81,3.07l-2.58,10a7.79,7.79,0,0,0-.58,3.17,4.12,4.12,0,0,0,2.72,3.45.73.73,0,0,1,.58.83c0,4.68,0,9.37,0,14.06A2.45,2.45,0,0,1,21,68.49a3.18,3.18,0,0,1-2.28-.56,2.41,2.41,0,0,1-.87-1.9q0-6.44,0-12.88v-13q0-4.89,0-9.78Z"/><path class="cls-1" d="M40.1,27.77a6.94,6.94,0,0,0,1.67-7.15h2.59s0,0,0,0c.18.45.23,1.1.56,1.31s1,.08,1.51.1h.25c1.09,0,1.11,0,1.41-1,.12-.4.32-.49.71-.48,1,0,2,0,3,0,2.27,0,3.85,1.1,4.24,3.31.82,4.62,2.19,9.09,3.42,13.6a2.45,2.45,0,0,1-1.11,2.78,2.52,2.52,0,0,1-3,0,2.78,2.78,0,0,1-.81-1.38c-.59-2.76-1.1-5.52-1.63-8.28a.22.22,0,0,0-.13-.16V65.79a2.46,2.46,0,0,1-2.67,2.7H49.7c-1.79.18-2.39-1-2.39-2.42,0-4.89,0-9.79,0-14.68a.66.66,0,0,1,.44-.69,4.29,4.29,0,0,0,2.18-5.2c-1.06-3.88-2-7.77-3-11.68a10.8,10.8,0,0,0-1.2-3.52,5.1,5.1,0,0,0-4.58-2.53C40.84,27.78,40.55,27.77,40.1,27.77Z"/><path class="cls-1" d="M63.77,21.53V57a2.46,2.46,0,0,1-2.63,2.68,6.23,6.23,0,0,1-1.06,0,2.07,2.07,0,0,1-1.74-2.34c0-5,0-9.91,0-14.87a.69.69,0,0,1,.32-.48A4.29,4.29,0,0,0,61,36.74c-.87-3.14-1.73-6.28-2.55-9.43-.3-1.17-.43-2.38-.72-3.56-.54-2.19-1.68-3.95-4-4.61a16.32,16.32,0,0,0-2.48-.31,6.92,6.92,0,0,0,1.59-7.06h2.6l.51,1.45c.87,0,1.75,0,2.64,0a.53.53,0,0,0,.37-.29c.17-.37.28-.76.43-1.18,1.47,0,2.94-.07,4.39,0a3.39,3.39,0,0,1,3,2.32,20.38,20.38,0,0,1,.73,2.84c1,3.77,2,7.54,3,11.29a2.76,2.76,0,0,1-2.81,3.73,2.24,2.24,0,0,1-2.11-1.83l-1.65-8.57Z"/><path class="cls-1" d="M18.2,5.2a5.1,5.1,0,0,1-5.6,5.18A5.09,5.09,0,0,1,8.47,6.64,5.31,5.31,0,0,1,11.18.45,5,5,0,0,1,18,4C18.11,4.39,18.15,4.79,18.2,5.2Z"/><path class="cls-1" d="M52.47,5.48a4.94,4.94,0,1,1,9.83-1,5.19,5.19,0,0,1-4.72,5.93A5,5,0,0,1,52.47,5.48Z"/><path class="cls-1" d="M40.23,22.91a5,5,0,0,1-4.67,5.16,5.1,5.1,0,0,1-5.06-6.39,4.93,4.93,0,0,1,5.92-3.89A5.1,5.1,0,0,1,40.23,22.91Z"/><path class="cls-1" d="M40.24,5.21a4.94,4.94,0,1,1-9.87,0,4.94,4.94,0,1,1,9.87,0Z"/><path class="cls-1" d="M24.33,8.84A5,5,0,0,1,29,12.49a5.37,5.37,0,0,1-2.38,6.13,4.75,4.75,0,0,1-6.33-1.48,5.27,5.27,0,0,1,3-8.2A8.73,8.73,0,0,1,24.33,8.84Z"/><path class="cls-1" d="M51.26,14.12a4.92,4.92,0,0,1-4.47,5.09,4.56,4.56,0,0,1-4.6-2.37,5.33,5.33,0,0,1,2.18-7.58A4.93,4.93,0,0,1,51.26,14.12Z"/><path class="cls-1" d="M54.39,41.82l2.53.74A3.55,3.55,0,0,1,57,43V57a2.5,2.5,0,0,1-2.56,2.68Z"/><path class="cls-1" d="M43.36,50.58a12.09,12.09,0,0,0,1.24.51,10.91,10.91,0,0,0,1.26.23v.6c0,4.71,0,9.42,0,14.12a2.36,2.36,0,0,1-2.5,2.42Z"/><path class="cls-1" d="M29.13,18.84a6.92,6.92,0,0,0,1.59-7.11c.73,0,1.43,0,2.13,0,.37,0,.58.09.65.47,0,.18.13.35.16.53.07.4.28.53.68.51a15.37,15.37,0,0,1,1.92,0,.58.58,0,0,0,.7-.5,10.24,10.24,0,0,1,.33-1h2.6a6.91,6.91,0,0,0,1.59,7.1l-.11.15c-.26-.14-.59-.21-.76-.42a6.85,6.85,0,0,0-10.62,0,2.89,2.89,0,0,1-.74.46Z"/><path class="cls-1" d="M16.2,59.65a1.91,1.91,0,0,1-2-2c0-5,0-10.08,0-15.12,0-.05,0-.11,0-.09l2-.68Z"/><path class="cls-1" d="M27.29,68.44c-1.08.11-1.79-.52-2-1.78a1.55,1.55,0,0,1,0-.37V51.42s0-.08,0-.11l2-.71Z"/></g></g></svg>