<svg xmlns="http://www.w3.org/2000/svg" viewBox="0 0 48 48.95"><defs><style>.cls-1{fill:#fff;}</style></defs><title>Ресурс 11</title><g id="Слой_2" data-name="Слой 2"><g id="Layer_3" data-name="Layer 3"><path class="cls-1" d="M10.45,41.38a3.19,3.19,0,0,1-3,.3A2.91,2.91,0,0,1,6,40.14a2.84,2.84,0,0,1,0-2.51A3.64,3.64,0,0,1,8,36l-.21-.45-7-15A6.22,6.22,0,0,1,0,17.78a5.42,5.42,0,0,1,1.91-3.93,5.77,5.77,0,0,1,5.42-1.36c1.6.35,3.18.77,4.77,1.14a1,1,0,0,1,.83.79q1.52,5.35,3.07,10.7a.64.64,0,0,0,.13.26c0-.18.08-.36.13-.54a7.93,7.93,0,0,1,5.92-6,10.83,10.83,0,0,1,2.05-.24c.71,0,1.42,0,2.12,0a.35.35,0,0,1,.38.25q1.79,4,3.59,8a.45.45,0,0,0,.17.23V18.4h2.69v8.72l.07,0,.15-.33c1.19-2.65,2.38-5.29,3.57-7.95a.42.42,0,0,1,.47-.3c1.06,0,2.13,0,3.19.08A7.89,7.89,0,0,1,46.94,23,8.83,8.83,0,0,1,48,27.26Q48,36.11,48,45a4,4,0,0,1-.23,1.33,2.48,2.48,0,0,1-4.7-.07,4.61,4.61,0,0,1-.2-1.38c0-5.62,0-11.23,0-16.85v-.34H41.22V47.85H22.82V27.65H21.16V28c0,3.61,0,7.23,0,10.84a3.51,3.51,0,0,1-.55,2,.44.44,0,0,0,0,.28c.14.5.29,1,.43,1.5s.22.74.31,1.12a3.46,3.46,0,0,1-.67,3.18,5,5,0,0,1-5,1.93A3.57,3.57,0,0,1,13,46.76q-1.22-2.57-2.41-5.13Zm1.44-.7.06.15,2.48,5.3a2,2,0,0,0,1.39,1.14,3.36,3.36,0,0,0,3.1-.76,2.24,2.24,0,0,0,.66-3q-1.26-2.67-2.5-5.34Q13,29.6,9,21c0-.09-.08-.17-.13-.26-1.29,2-3.13,2.53-5.38,2.07L9.36,35.3a2.9,2.9,0,0,1,4,1.21,3,3,0,0,1,.3,2.13A3.07,3.07,0,0,1,11.89,40.68Zm5-6.63h0c0-.07,0-.14-.05-.21q-2.67-9.25-5.33-18.52a.34.34,0,0,0-.27-.26c-1.42-.33-2.83-.69-4.25-1a4.25,4.25,0,0,0-4.45,1.38,3.61,3.61,0,0,0-.38,4.51,3.23,3.23,0,0,0,4.52.92,2.42,2.42,0,0,0,.58-3.43c-.06-.08-.14-.16-.21-.24a2.23,2.23,0,0,1-2.69,3.38,2.76,2.76,0,0,1-.88-4.42,3.36,3.36,0,0,1,4.68-.08,4.91,4.91,0,0,1,1,1.65L15.92,32Z"/><path class="cls-1" d="M22.29,9.27V7.83H24.2c.52-3.24,2-5.82,5.06-7.35V5.56a1.34,1.34,0,0,0,0,.35.54.54,0,0,0,.57.42.55.55,0,0,0,.51-.49,1.51,1.51,0,0,0,0-.3V.16a5.64,5.64,0,0,1,2.2-.09c.49.07.49.07.49.56V5.54a2.62,2.62,0,0,0,0,.28.55.55,0,0,0,.5.5.53.53,0,0,0,.58-.38,1,1,0,0,0,0-.35c0-1.59,0-3.17,0-4.76V.48c3.1,1.51,4.52,4.1,5,7.34h1.91V9.27Z"/><path class="cls-1" d="M37.57,10.46a5.7,5.7,0,0,1-.3,2.43,5.81,5.81,0,0,1-11,.39,6.36,6.36,0,0,1-.46-2.59c0-.18.05-.25.25-.25H37.35Z"/></g></g></svg>