<svg xmlns="http://www.w3.org/2000/svg" viewBox="0 0 95.42 52.38"><defs><style>.cls-1{fill:#fff;}</style></defs><title>Ресурс 4</title><g id="Слой_2" data-name="Слой 2"><g id="Layer_3" data-name="Layer 3"><path class="cls-1" d="M64,15.8l-.56-1.32.09-.07a4.38,4.38,0,0,0,2.15.52.5.5,0,0,1,.48.44,7.11,7.11,0,0,1,.13,1.22.67.67,0,0,0,.46.68c.41.16.83.29,1.3.45,0-.58-.06-1.08-.12-1.58a.38.38,0,0,1,.27-.46,6.75,6.75,0,0,1,1.15-.31,2.46,2.46,0,0,0,1.22-.51,14.47,14.47,0,0,1-.51-1.37c-.11-.41,0-.64.47-.76s1.06-.18,1.59-.29a6.68,6.68,0,0,1,3.57.25,3.81,3.81,0,0,1,2.78-2.33,2.49,2.49,0,0,0,0,.53,2.54,2.54,0,0,0,.18.77c.11.24.33.26.51,0a1.79,1.79,0,0,0,.33-.54,5,5,0,0,1,3-2.89c.2-.1.41-.17.73-.31-.32-.18-.58-.35-.84-.48s-.56-.26-.87-.39a10,10,0,0,1,2.62-2.77,1.86,1.86,0,0,1,.69-.25,3.15,3.15,0,0,0,2.47-1.73c.05-.08.08-.17.13-.25a.66.66,0,0,1,1-.34l.65.26a.65.65,0,0,0,.21,0l-.4-.54c-.31-.41-.29-.58.16-.8s1-.42,1.62-.65V1.71c0,.41.13.55.55.54s.7-.07,1-.1a1.56,1.56,0,0,1-1.84.9.46.46,0,0,0-.58.27,4.28,4.28,0,0,0-.17.46c-.06.19-.11.38-.38.27a.38.38,0,0,0-.27,0c-.36.23-.71.48-1.1.74l1.33.66a.59.59,0,0,1,.33.73c-.09.44-.13.9-.2,1.45a5.85,5.85,0,0,0,.73-.4,1.86,1.86,0,0,1,1.43-.36,13.75,13.75,0,0,1,1.55.32c.14,0,.34.2.34.29a.68.68,0,0,1-.28.4,1.8,1.8,0,0,1-.53.28c-.54.17-.68.57-.74,1.08a9.08,9.08,0,0,0,.32,3.07c.1.43.15.87.24,1.38-.52-.2-.66.09-.77.4l-.21.56c0,.1,0,.24-.12.29-.49.32-.33.79-.32,1.23a1,1,0,0,1-.3.8,1.69,1.69,0,0,0-.51,1.6A6.74,6.74,0,0,0,90.83,20c0,.08.2.12.31.12s.44-.06.66-.05a.7.7,0,0,1,.64.43,1.65,1.65,0,0,0,.46.56,1.62,1.62,0,0,1,.7,1.24,1.48,1.48,0,0,0,.53,1.08.82.82,0,0,1,.27,1.09.79.79,0,0,0,.08.53c.09.21.28.39.36.6a1.57,1.57,0,0,1,.2.84,4.7,4.7,0,0,0,.34,2.89.65.65,0,0,1,0,.13s0,0,0,.07l-.81-.66c-1.36-1.13-2.7-2.28-4.07-3.4a2.58,2.58,0,0,1-.94-2.25,6.7,6.7,0,0,1,.17-1.26,5.55,5.55,0,0,0-.06-2c-.08-.72-.09-1.46-.18-2.18a2.66,2.66,0,0,0-.36-1,5.39,5.39,0,0,0-1.83-1.55,5.59,5.59,0,0,0,1,1.81c.5.62.52.86.07,1.52l-.22.27c-.48-.19-1-.36-1.41-.55a.53.53,0,0,0-.74.27,2.07,2.07,0,0,0-.2,1.89A4.54,4.54,0,0,1,86,21.63a6.08,6.08,0,0,1,0,.74h1.22l-1.52,1.94c-.48-.39-.59-.4-1.09,0s-1,.91-1.6,1.28a9.83,9.83,0,0,0-4,6.09c-.34,1.25-.72,2.48-1.08,3.72,0,.11-.07.22-.1.33a.9.9,0,0,0,1.15,0c.49-.33.54-.32.9.11.22.25.45.57.81.46s.31-.52.36-.82a6.92,6.92,0,0,0,0-.79,5.07,5.07,0,0,1,3.28,1.78,2.26,2.26,0,0,0,.13.2,1.59,1.59,0,0,1,.4,1.47,3.05,3.05,0,0,0,.28,1.25,7.82,7.82,0,0,1,.44,1.43,36,36,0,0,1-.1,6.48c-.06.45-.06.9-.1,1.34a1.17,1.17,0,0,1-.07.38,3.9,3.9,0,0,1-2,1.9.67.67,0,0,1-.24.07c-.7.12-.88.31-1,1,0,.1,0,.21,0,.31s0,0,0,.06c-.43,0-.6-.28-.47-.68a2,2,0,0,0-.59-2.3.35.35,0,0,1,0-.53.65.65,0,0,1,1-.24l.71.34c-.06-.66-.12-1.26-.16-1.87s-.09-1.05-.1-1.58a4.89,4.89,0,0,0-.84-2.4,3.48,3.48,0,0,0-1.37,1.2,1.18,1.18,0,0,1-2,0,1.71,1.71,0,0,0-1.55-.72,8.58,8.58,0,0,0-1.13,0,.73.73,0,0,1-.81-.42,6,6,0,0,1-.38-.91,3.09,3.09,0,0,0-2.53-2.09,1.23,1.23,0,0,0-.66.06c-1.09.49-2.17,1-3.33,1.55a7,7,0,0,0,.63.8,1,1,0,0,1,.28,1.19c-.3.73-.62,1.45-1,2.15a1.08,1.08,0,0,1-1,.53,3.15,3.15,0,0,1-1.71-.31c-.7-.32-1-.24-1.38.42a4.83,4.83,0,0,0-.3.55,1.81,1.81,0,0,1-2.18,1,7.54,7.54,0,0,1-2.6-1.13A13,13,0,0,0,57,46.38a1.47,1.47,0,0,0-1.19.16c-.82.4-1.46.14-1.58-.76a1.19,1.19,0,0,0-1-1.06,12.51,12.51,0,0,0-1.72-.36c-.64-.09-.92.13-1,.77a5.4,5.4,0,0,0-.07.8c0,.39-.14.53-.52.53-.6,0-1.2,0-1.79-.08a1.1,1.1,0,0,1-.53-.26,3.19,3.19,0,0,1-.56-.54,2.46,2.46,0,0,0-2.7-.85c-.68.16-1.35.38-2,.61s-.85.2-1.24-.34a.8.8,0,0,0-.92-.4c-.55.12-.94-.23-1-.94a.94.94,0,0,0-.67-.85c-.3-.11-.6-.22-.89-.35a1,1,0,0,1-.57-.51,1.38,1.38,0,0,0-.74-.47c-.2-.07-.3-.15-.31-.35,0-.62,0-1.24-.12-1.86a3.43,3.43,0,0,0-.3-1.14,16.28,16.28,0,0,0-1-1.73.49.49,0,0,0-.39-.17,6.33,6.33,0,0,0-1,.16c-.21,0-.34,0-.4-.2a1.41,1.41,0,0,0-.77-.9,2.56,2.56,0,0,1-.66-.57.31.31,0,0,1,.09-.53.45.45,0,0,0,.19-.71,10.64,10.64,0,0,0-1-1.22c-.1-.11-.32-.12-.49-.14a19.74,19.74,0,0,1-5.45-1.42l-.19,0c-.09.28-.16.55-.27.81s-.25.29-.48.13a1,1,0,0,0-1.38.34.64.64,0,0,0,0,.34c0,.42.08.84.09,1.26s-.08.45-.42.34A2.56,2.56,0,0,1,20,32c-.05-.2-.13-.4-.2-.6a1.25,1.25,0,0,0-1.1-.83h-.24c-.94-.08-1.26-.43-1.29-1.38,0-.36,0-.73-.08-1.09a1,1,0,0,0-.95-1c-.43-.07-.87-.1-1.3-.14-.25,0-.5,0-.74-.09a.62.62,0,0,1-.58-.56c0-.4-.27-.51-.72-.49a3.4,3.4,0,0,0-2.91,2.93,5.92,5.92,0,0,0,.05.84c.07.57-.21,1-.79.95a10.51,10.51,0,0,1-1.46-.22,5.09,5.09,0,0,0-.56,0,.73.73,0,0,0-.8.6c-.11.32-.21.59-.63.65-.18,0-.36.33-.45.54s-.2.72-.32,1.08a2.19,2.19,0,0,1-.28.6.6.6,0,0,1-.39.18s-.15-.2-.17-.33c-.11-.84-.2-1.68-.3-2.52A11.39,11.39,0,0,0,2.4,26.92a5.79,5.79,0,0,1-.31-.67,1.65,1.65,0,0,1-.1-.62c.06-1,.12-1.92.21-2.87A1.61,1.61,0,0,0,2,21.51,3.53,3.53,0,0,0,.5,20.3c-.57-.21-.65-.48-.25-.93.23-.26.54-.47.48-.9.35.15.69.27,1,.43a.74.74,0,0,1,.45,1,2.72,2.72,0,0,1-.39.78c-.17.24-.14.42.11.5a.72.72,0,0,1,.43.47,1.55,1.55,0,0,0,1.13,1.06c.25.05.55.15.6-.3,0-.05.25-.15.36-.12a1.41,1.41,0,0,1,.42.25c.24.15.37.11.4-.18s0-.37,0-.61a1.49,1.49,0,0,1,.43.07,4.73,4.73,0,0,1,.9.53.55.55,0,0,0,.82,0,10,10,0,0,0,.82-1,.36.36,0,0,0,0-.29,9.5,9.5,0,0,1-.28-2.55,2.13,2.13,0,0,0-.27-.9c-.11-.25-.12-.43.11-.58a1,1,0,0,0,.41-1.11.71.71,0,0,1,.36-.81,1.53,1.53,0,0,0,.27-.17c.27-.19.27-.39,0-.58s-.51-.3-.75-.48-.27-.47.09-.63a1.12,1.12,0,0,1,.88,0,14.12,14.12,0,0,0,1.49.38c0-.53.05-1,.09-1.39a.87.87,0,0,1,.64-.76c.82-.31,1-.53.95-1.42a2.16,2.16,0,0,1,1.69-2.45,2.58,2.58,0,0,1,2.41.14,5.92,5.92,0,0,1,.41-.45A1.55,1.55,0,0,1,18.21,7l2,.43a1.24,1.24,0,0,0,1.21-.32,10.66,10.66,0,0,0,.92-1,2.59,2.59,0,0,1,1.29-.86,1.72,1.72,0,0,0,.75-.49,1.4,1.4,0,0,1,1.13-.54.93.93,0,0,0,1-.59,1.57,1.57,0,0,1,1.42-.9,1.37,1.37,0,0,1,1.36,1,4.88,4.88,0,0,1-.28,4.53,1.76,1.76,0,0,1-.5.48,1.25,1.25,0,0,1-1.89-.51c-.44-.77-.79-1.59-1.18-2.39a4.8,4.8,0,0,0-.24.43,5.19,5.19,0,0,1-1.05,1.41,4.64,4.64,0,0,0-.65,1,.39.39,0,0,0-.05.28c.06.21.14.42.22.63a4.41,4.41,0,0,0,.58-.28,4.31,4.31,0,0,0,.44-.38l1.23,1.75c.54-.7.64-.71,1.28-.16.22.19.43.4.67.58A.72.72,0,0,0,28.9,11a9.1,9.1,0,0,0,.61-.78l.62-.81c.19-.24.4-.24.58,0a1.61,1.61,0,0,1,.06,1.39c-.08.11-.24.16-.36.24s-.34.15-.33.21.09.38.21.43a4.82,4.82,0,0,0,1,.35c.71.16,1.43.27,2.14.42a2,2,0,0,1,.45.21c-.1.13-.22.23-.22.34a.71.71,0,0,0,.12.51.65.65,0,0,0,.53.13.84.84,0,0,1,1.06.4c.16.24.3.5.45.75a1,1,0,0,0,.91.58c.29,0,.47-.12.45-.41,0-.47-.11-.95-.18-1.43a2.83,2.83,0,0,0-.09-.37c.57-.2.88,0,.91.6a2.44,2.44,0,0,0,.16.9c.56,1.13,1.16,2.25,1.76,3.4.15-1,.31-1.91.43-2.87a.91.91,0,0,1,.55-.79,5.43,5.43,0,0,1,.91-.37A2.12,2.12,0,0,0,43,13a1.78,1.78,0,0,1,.36-.52.56.56,0,0,1,.44-.1c.07,0,.16.24.13.35-.13.52-.29,1-.46,1.55a7.37,7.37,0,0,0-.27.87c.94-.15,1.33-.95,2-1.5a6.82,6.82,0,0,1-.52,1.09,2,2,0,0,0-.18,1.82c.05,0,.07,0,.08,0,.11-.27.16-.7.36-.8a5.39,5.39,0,0,1,1.4-.32,4.85,4.85,0,0,1,.66,0s0-.07,0-.09c0-.81.18-1,1-1,.53,0,1,.12,1.58.18h.31a4.47,4.47,0,0,0-.19-.8A.43.43,0,0,1,50,13c.48-.12,1-.21,1.48-.3L55,12.15c.11-.45.17-.89.31-1.31a3.45,3.45,0,0,1,.45-.72c.18.21.39.41.56.64a1.21,1.21,0,0,1,.17.46c.15.71.61.79,1.2.7.25,0,.5-.13.76-.17.44-.07.61.12.64.57a4.26,4.26,0,0,1-1.5,3.25l-.83.87c.58-.23,1.08-.4,1.55-.62a4,4,0,0,1,1.6-.33,13.63,13.63,0,0,1,3.72.3A2.06,2.06,0,0,0,64,15.8Z"/></g></g></svg>