<svg xmlns="http://www.w3.org/2000/svg" viewBox="0 0 98 98"><defs><style>.cls-1{fill:#d65327;}.cls-2{fill:#fff;}</style></defs><title>Ресурс 5</title><g id="Слой_2" data-name="Слой 2"><g id="Layer_3" data-name="Layer 3"><path class="cls-1" d="M49,0A49,49,0,1,0,98,49,49.05,49.05,0,0,0,49,0Z"/><circle class="cls-1" cx="49" cy="49" r="38.12"/><path class="cls-2" d="M25.82,58.12H20.73c-.76,0-1.06-.24-1.06-.84s.35-.88,1-.89h5.09V41.06H20.54c-.58,0-.85-.27-.87-.78a.79.79,0,0,1,.84-.9c1.27,0,2.55,0,3.83,0h1.48V24.08c-.16,0-.32,0-.49,0H20.69c-.48,0-.9-.09-1-.66a.83.83,0,0,1,.9-1.05h5.27V14c0-.45.06-.86.59-1s1.14.23,1.14,1c0,2.46,0,4.92,0,7.38v.9h6.63V14c0-.44,0-.87.56-1s1,.24,1,1c0,2.27,0,4.53,0,6.8V22.3H63.59V14c0-.49.11-.89.67-1s1.06.26,1.06,1V22.3h6.51v-.62c0-2.56,0-5.11,0-7.67,0-.72.35-1.1,1-1a.73.73,0,0,1,.69.82c0,2.67.06,5.34.09,8,0,.11,0,.23,0,.39H79a.72.72,0,0,1,.8.67.79.79,0,0,1-.6,1,2.65,2.65,0,0,1-.69.07H73.61V39.16h5.23c.62,0,.91.25.93.78a.83.83,0,0,1-.91.9c-1.55,0-3.09,0-4.64,0l-.61,0V56h1.85c1.13,0,2.25,0,3.37,0,.65,0,.94.29.94.84s-.33.85-1,.85h-5.2V73a4.73,4.73,0,0,0,.54,0c1.53,0,3.06,0,4.59,0,.44,0,.86.08,1,.6s-.21,1.12-.94,1.12H73.6v4.85h8.54c.76,0,1.08.25,1.07.83s-.36.87-1.07.87H17.42c-.8,0-1.18-.31-1.06-.93a1.65,1.65,0,0,1,.46-.68.39.39,0,0,1,.3,0c.14.52.56.31.86.31h7.83v-4.8H20.54c-.59,0-.88-.32-.87-.86a.81.81,0,0,1,.88-.86c1.47,0,2.94,0,4.41,0h.86Zm10,14.36,25.4-14.67-.06-.08H35.85ZM63.68,55.54V40.9H38.16Zm-2.52.52,0-.12L35.86,41.42V56.06Zm2.51-31.48Q50.94,31.9,38.3,39.13l0,.1H63.67Zm0,48.4V58.36L38.34,72.89l0,.09ZM35.86,24V38.59L61.19,24.07l0-.09Zm0,55.45H63.54V74.66H35.86Zm36.06-40.2V24H65.36V39.23ZM34.2,40.9H27.63V56.14H34.2ZM65.35,57.71V73H71.9V57.71ZM27.62,74.65v4.78h6.56V74.65Zm44.31.12H65.36v4.77h6.57ZM65.34,43.41h6.57V40.9H65.34Zm0,4.28h6.57V45.18H65.34Zm0,4.17H71.9v-2.5H65.35Zm0,4.19h6.57V53.54H65.34ZM34.19,57.73H27.62v2.51h6.57ZM27.62,26.47h6.55V24H27.62Zm6.57,4.3V28.26H27.63v2.51Zm-6.55,1.66v2.51h6.54V32.43Zm6.55,4.2H27.64v2.5h6.55Zm0,27.89V62H27.62v2.52Zm-6.55,1.66V68.7h6.55V66.18Zm0,4.29V73h6.56V70.47Z"/></g></g></svg>