<svg xmlns="http://www.w3.org/2000/svg" viewBox="0 0 98 98"><defs><style>.cls-1{fill:#d65327;}.cls-2{fill:#fff;}</style></defs><title>Ресурс 12</title><g id="Слой_2" data-name="Слой 2"><g id="Layer_3" data-name="Layer 3"><path class="cls-1" d="M49,98A49,49,0,1,1,98,49,49.05,49.05,0,0,1,49,98Z"/><circle class="cls-1" cx="49" cy="49" r="35.55"/><path class="cls-2" d="M69.54,55A11.41,11.41,0,0,0,61,54.52a11.58,11.58,0,0,0-7.88,12,11.73,11.73,0,0,0,3.44,7.28H32c-1.44,0-2.06-.67-2.13-2.12A2,2,0,0,1,31,69.5,4.4,4.4,0,0,0,33.18,65,4.67,4.67,0,0,0,30.41,61a.76.76,0,0,1-.5-.82c0-2,0-4.06,0-6.09a.61.61,0,0,1,.41-.65,4.93,4.93,0,0,0,0-9,.59.59,0,0,1-.4-.61q0-3.15,0-6.31a.53.53,0,0,1,.37-.57,4.92,4.92,0,0,0,0-9,.5.5,0,0,1-.34-.53c0-.53,0-1.06,0-1.59a1.69,1.69,0,0,1,1.7-1.72H67.4c1.57,0,2.14.58,2.14,2.16q0,14,0,28ZM42.43,40.42c2.33-2.27,4.62-4.57,6.9-6.9a1.42,1.42,0,0,0,.16-1.74,1.44,1.44,0,0,0-1.57-.86,2.47,2.47,0,0,0-1.22.63c-1.76,1.71-3.47,3.45-5.28,5.27-.9-.92-1.72-1.8-2.59-2.64a1.62,1.62,0,0,0-2.32,0,1.6,1.6,0,0,0,0,2.27q1.89,1.95,3.84,3.84M41.41,50c-.84-.86-1.63-1.67-2.43-2.47a1.66,1.66,0,1,0-2.33,2.35q1.74,1.75,3.49,3.49a1.67,1.67,0,0,0,2.6,0L49.06,47a1.67,1.67,0,1,0-2.35-2.34L41.9,49.49Zm0,13.19c-.89-.9-1.7-1.77-2.55-2.59a1.65,1.65,0,1,0-2.34,2.32q1.83,1.89,3.72,3.72a1.63,1.63,0,0,0,2.4,0c.35-.33.68-.67,1-1,1.82-1.82,3.65-3.64,5.47-5.47a1.66,1.66,0,1,0-2.33-2.35l-.89.89ZM59.67,37.47h4.82a1.64,1.64,0,1,0,0-3.28H54.84a1.64,1.64,0,1,0,0,3.28Zm0,13.17h4.82a1.64,1.64,0,1,0,0-3.28H54.84a1.64,1.64,0,1,0,0,3.28Z"/><path class="cls-2" d="M56.37,65.48a8.23,8.23,0,1,1,8.23,8.33A8.29,8.29,0,0,1,56.37,65.48Zm9.88-1.66c0-.58,0-1.11,0-1.63a1.65,1.65,0,1,0-3.29,0c0,1.1,0,2.2,0,3.29a1.62,1.62,0,0,0,1.64,1.64c1.1,0,2.19,0,3.29,0a1.65,1.65,0,1,0,0-3.29Z"/><path class="cls-2" d="M26.6,30.89c.53,0,1.06,0,1.59,0a1.65,1.65,0,1,1,0,3.29c-1.07,0-2.15,0-3.23,0a1.65,1.65,0,1,1,0-3.29C25.51,30.88,26.05,30.89,26.6,30.89Z"/><path class="cls-2" d="M26.54,50.65H25A1.69,1.69,0,0,1,23.23,49,1.67,1.67,0,0,1,25,47.36c1.08,0,2.15,0,3.23,0A1.67,1.67,0,0,1,29.91,49a1.69,1.69,0,0,1-1.73,1.67Z"/><path class="cls-2" d="M26.59,63.82h1.58a1.65,1.65,0,1,1,0,3.29c-1.07,0-2.15,0-3.22,0a1.65,1.65,0,1,1,0-3.29C25.49,63.8,26,63.82,26.59,63.82Z"/><path class="cls-1" d="M59.67,37.47H54.85a1.64,1.64,0,1,1,0-3.28h9.64a1.64,1.64,0,1,1,0,3.28Z"/><path class="cls-1" d="M59.67,50.64H54.85a1.64,1.64,0,1,1,0-3.28h9.64a1.64,1.64,0,1,1,0,3.28Z"/><path class="cls-1" d="M66.25,63.82h1.63a1.65,1.65,0,1,1,0,3.29c-1.1,0-2.19,0-3.29,0A1.62,1.62,0,0,1,63,65.47c0-1.09,0-2.19,0-3.29a1.65,1.65,0,1,1,3.29,0C66.26,62.71,66.25,63.24,66.25,63.82Z"/></g></g></svg>