<svg xmlns="http://www.w3.org/2000/svg" viewBox="0 0 98 98"><defs><style>.cls-1{fill:#d65327;}.cls-2{fill:#fff;}</style></defs><title>Ресурс 9</title><g id="Слой_2" data-name="Слой 2"><g id="Layer_3" data-name="Layer 3"><path class="cls-1" d="M49,98A49,49,0,1,1,98,49,49.05,49.05,0,0,1,49,98Z"/><circle class="cls-1" cx="49" cy="49" r="35.55"/><path class="cls-2" d="M10.32,57.32l2.3-5.17a15.7,15.7,0,0,0,8.2,2.44c2.91,0,4-.81,4-2,0-3.94-14.12-1.06-14.12-10.28,0-4.44,3.62-8.06,11-8.06a18.59,18.59,0,0,1,9,2.17l-2.17,5.21A14.7,14.7,0,0,0,21.7,39.7c-2.94,0-4,1-4,2.23,0,3.8,14.09,1,14.09,10.11,0,4.33-3.62,8-11,8C16.7,60.06,12.66,59,10.32,57.32Z"/><path class="cls-2" d="M51.63,54.74H41.13l-2,4.82H32L43,34.73h6.91l11,24.83H53.58Zm-2.06-5.18-3.19-8-3.19,8Z"/><path class="cls-2" d="M85.25,43.92c0,5.64-4.26,9.15-11,9.15H69.89v6.49h-7V34.73H74.22C81,34.73,85.25,38.24,85.25,43.92Zm-7.1,0c0-2.31-1.45-3.66-4.36-3.66h-3.9v7.27h3.9C76.7,47.53,78.15,46.19,78.15,43.92Z"/></g></g></svg>