<svg xmlns="http://www.w3.org/2000/svg" viewBox="0 0 43 44.39"><defs><style>.cls-1{fill:#fff;}</style></defs><title>Ресурс 6</title><g id="Слой_2" data-name="Слой 2"><g id="Layer_3" data-name="Layer 3"><path class="cls-1" d="M22.36,26.85l1.2,1.35c-.39.68-.82,1.43-1.26,2.18l-7.53,13a.4.4,0,0,1-.4.24H.47c-.19,0-.3,0-.32-.26a32.11,32.11,0,0,1,.06-6.79,13.19,13.19,0,0,1,1.41-4.84A5.33,5.33,0,0,1,4.36,29.2a5.23,5.23,0,0,1,1.83-.36c1.19,0,2.39,0,3.58,0a.59.59,0,0,0,.45-.18c.49-.49,1-1,1.49-1.44a.21.21,0,0,1,.33,0A8.19,8.19,0,0,0,22.15,27Z"/><path class="cls-1" d="M17.18,14.83h8.47a.63.63,0,0,1,.53.23,2.91,2.91,0,0,1-.6,4.43,3.14,3.14,0,0,1-.87.26c-.17,0-.23.08-.26.25a8.65,8.65,0,0,1-3.22,5.8,6.82,6.82,0,0,1-9-.46,9,9,0,0,1-2.68-5.26.44.44,0,0,0-.34-.42,2.55,2.55,0,0,1-1.75-2.22,2.83,2.83,0,0,1,.7-2.37.7.7,0,0,1,.56-.25Z"/><path class="cls-1" d="M29.83,44.39H17.63a1.21,1.21,0,0,1-.63-.17.76.76,0,0,1-.17-1.08L19.2,39Q24.1,30.51,29,22a.83.83,0,0,1,1.58,0L42.83,43.08a.81.81,0,0,1-.76,1.31Zm-11-1.55h22l-11-19Z"/><path class="cls-1" d="M27.25,13.27H6.3v-3.1h.89c.52,0,.52,0,.67-.48a11.33,11.33,0,0,1,3.9-5.61c.46-.36,1-.66,1.45-1l.08.06v.3c0,2.09,0,4.18,0,6.27a1.94,1.94,0,0,0,1.56,2,2.19,2.19,0,0,0,.51,0h2.88a1.92,1.92,0,0,0,2.05-2.06V3.13l.34.16a11.22,11.22,0,0,1,5,6.24c.22.64.21.64.88.64h.7Z"/><path class="cls-1" d="M19.52,5.64v4a1.2,1.2,0,0,1-1.31,1.32H15.36a1.17,1.17,0,0,1-1.29-1.28V1.35A1.19,1.19,0,0,1,15.43,0h2.48a1.54,1.54,0,0,1,1.61,1.61C19.53,3,19.52,4.3,19.52,5.64Z"/><path class="cls-1" d="M27.53,30.4h4.88q-.1.84-.21,1.65c-.21,1.72-.42,3.43-.64,5.15,0,.07-.11.19-.17.19-1,0-2,0-3,0Z"/><path class="cls-1" d="M28.09,38.22h3.85v3.85H28.09Z"/></g></g></svg>