<svg xmlns="http://www.w3.org/2000/svg" viewBox="0 0 98 98"><defs><style>.cls-1{fill:#d65327;}.cls-2{fill:#fff;}</style></defs><title>Ресурс 7</title><g id="Слой_2" data-name="Слой 2"><g id="Layer_3" data-name="Layer 3"><path class="cls-1" d="M49,0A49,49,0,1,0,98,49,49.05,49.05,0,0,0,49,0Z"/><circle class="cls-1" cx="49" cy="49" r="38.12"/><path class="cls-2" d="M31.15,38.17a104.62,104.62,0,0,0,20,0c-.17.53-.32,1-.49,1.48-.09.24-.08.39.19.49a1.55,1.55,0,0,1,1,2,14.36,14.36,0,0,1-.52,1.81.89.89,0,0,1-1,.63c-.12,0-.23,0-.35,0-.32,0-.43.12-.46.43a11.47,11.47,0,0,1-1.94,5.52,6.73,6.73,0,0,1-1,.88.68.68,0,0,0-.25.39c0,2,0,3.93.09,5.9a4.07,4.07,0,0,0,1.28,2.54,9.61,9.61,0,0,0,3.55,2.44c1.95.83,3.95,1.58,5.92,2.37a20.14,20.14,0,0,1,5.22,2.88,8.36,8.36,0,0,1,3,5.15H16.89c0-.16.07-.32.1-.48a8.69,8.69,0,0,1,4.58-5.85,39.87,39.87,0,0,1,5.86-2.6,28.65,28.65,0,0,0,5.15-2.31,8.45,8.45,0,0,0,2.3-2,4.2,4.2,0,0,0,1-2.56c0-1.84,0-3.68.06-5.53a.4.4,0,0,0-.19-.31A3.15,3.15,0,0,1,34.29,50a11.09,11.09,0,0,1-1.61-5c0-.33-.17-.43-.46-.42h0a1.28,1.28,0,0,1-1.49-1.12,11.11,11.11,0,0,1-.33-1.9,1.23,1.23,0,0,1,.71-1.25c.71-.41.59-.19.4-1C31.38,39,31.26,38.59,31.15,38.17Z"/><path class="cls-2" d="M79.13,66.49H65.32a.89.89,0,0,1-.64-.25,19,19,0,0,0-5.37-3.19c-2.24-.93-4.49-1.82-6.72-2.77a8.22,8.22,0,0,1-2.51-1.61,2.43,2.43,0,0,1-.86-1.87c0-1.25,0-2.49,0-3.74a.48.48,0,0,1,.11-.34,6.56,6.56,0,0,0,1.8-2.8c.4-1,.64-2.06,1-3.08a.68.68,0,0,1,.33-.39,2.25,2.25,0,0,0,1.32-1.11,6.66,6.66,0,0,0,.88-4.54,7.77,7.77,0,0,0-.67-1.48,1.2,1.2,0,0,1-.08-.5c0-.11.09-.23.1-.35,0-.64.45-.82,1.06-.89.78-.1,1.55-.31,2.33-.46.25,0,.34-.16.32-.4s0-.44,0-.62l9.94-.45L67,37.33l0,.06c-.09.3-.33.64-.24.88s.53.31.73.53a1.14,1.14,0,0,1,.38.75,12.1,12.1,0,0,1-.45,1.94.6.6,0,0,1-.68.42A4.4,4.4,0,0,0,66,42c0,.39-.07.8-.13,1.19A10.72,10.72,0,0,1,64.34,47a1.65,1.65,0,0,1-.88.74.42.42,0,0,0-.24.3c0,1.79.05,3.59.13,5.37a2.77,2.77,0,0,0,.45,1.17,7,7,0,0,0,3.09,2.75c1.57.77,3.2,1.45,4.81,2.15a20.45,20.45,0,0,1,5,2.88,7.31,7.31,0,0,1,2.38,3.9A1.35,1.35,0,0,1,79.13,66.49Z"/><path class="cls-2" d="M37,21.8v3.54c0,.93,0,1.85,0,2.78a1.28,1.28,0,0,0,1.14,1.25,1.35,1.35,0,0,0,1.53-1,1.61,1.61,0,0,0,0-.44c0-2.4,0-4.8,0-7.2,0-.52,0-1,0-1.55,0-.33.13-.47.48-.46H42c.44,0,.5.05.5.5,0,2.89,0,5.79,0,8.68a1.34,1.34,0,0,0,1.1,1.41A1.37,1.37,0,0,0,45.26,28V21.77a7.47,7.47,0,0,1,2.91,1.09,7.92,7.92,0,0,1,3,3.92,12.49,12.49,0,0,1,.93,4.55,1.68,1.68,0,0,0,1.31,1.73,1.41,1.41,0,0,1,1.27,1.52c0,.27,0,.38-.3.42-1.42.19-2.83.42-4.26.57a88.88,88.88,0,0,1-13,.35c-2.23-.08-4.45-.3-6.67-.51-.85-.08-1.7-.27-2.55-.42l-.34-.09c0-.17,0-.31,0-.46.07-.89.17-1,1-1.29a1.88,1.88,0,0,0,1.54-2,11.77,11.77,0,0,1,2.22-6.68,7,7,0,0,1,4.49-2.7Z"/><path class="cls-2" d="M51.66,22.34a6.32,6.32,0,0,1,3.22-1.86v6.17a1.36,1.36,0,0,0,1.39,1.42,1.34,1.34,0,0,0,1.34-1.42q0-3.34,0-6.68v-2c0-.43.06-.48.52-.48h1.69c.49,0,.53,0,.53.5,0,2.89,0,5.79,0,8.68a1.35,1.35,0,0,0,1,1.39,1.36,1.36,0,0,0,1.72-1.36c0-1.91,0-3.83,0-5.75V20.5a2.63,2.63,0,0,1,.34.06,6.36,6.36,0,0,1,4.21,3.63,12.53,12.53,0,0,1,1.22,4.95,1.71,1.71,0,0,0,1.44,1.76,1,1,0,0,1,.83,1.25c0,.08-.18.16-.28.18-1.39.22-2.78.48-4.17.64a77.16,77.16,0,0,1-9,.39.48.48,0,0,1-.53-.34A3.53,3.53,0,0,0,55,30.76c-.09,0-.18-.24-.19-.37a14.92,14.92,0,0,0-1.12-4.83A11.15,11.15,0,0,0,51.66,22.34Z"/></g></g></svg>