<svg width="260" height="52" viewBox="0 0 260 52" fill="none" xmlns="http://www.w3.org/2000/svg">
<g clip-path="url(#clip0_32_2)">
<path d="M151.27 17.1797H132.69V22.4697H138.62V37.4297H145.34V22.4697H151.27V17.1797Z" fill="white"/>
<path d="M123 37.8897C127 37.8897 130.09 36.4397 132.09 33.8897L127.79 29.9997C127.297 30.7204 126.639 31.312 125.869 31.7245C125.1 32.137 124.243 32.3583 123.37 32.3697C120.53 32.3697 118.62 30.3697 118.62 27.3097C118.62 24.2497 120.53 22.2497 123.37 22.2497C124.242 22.2628 125.099 22.4848 125.868 22.8972C126.637 23.3096 127.296 23.9002 127.79 24.6197L132.11 20.7697C130.11 18.1697 126.98 16.7197 123.02 16.7197C116.51 16.7197 111.73 21.0897 111.73 27.3097C111.73 33.5297 116.51 37.8897 123 37.8897Z" fill="white"/>
<path d="M99.92 32.2797V29.6097H108.49V24.6997H99.92V22.3197H109.68V17.1797H93.21V37.4297H110.05V32.2797H99.92Z" fill="white"/>
<path d="M81.48 27.1799H79V22.4399H81.49C83.38 22.4399 84.27 23.3399 84.27 24.8099C84.27 26.2799 83.38 27.1799 81.49 27.1799M81.93 17.1799H72.16V37.4299H79V32.4299H81.93C87.57 32.4299 91.16 29.4299 91.16 24.7899C91.16 20.1499 87.57 17.1499 81.93 17.1499" fill="white"/>
<path d="M69.91 17.1797H51.3199V22.4697H57.2599V37.4297H63.9699V22.4697H69.91V17.1797Z" fill="white"/>
<path d="M238.59 37.43H245.05L252 26.92V37.43H258.72V17.17H252.29L245.29 27.71V17.17H238.57L238.59 37.43ZM248.59 16.02C253.19 16.02 254.95 14.25 254.95 11.02H250.41C250.41 12.29 249.92 12.87 248.59 12.87C247.26 12.87 246.82 12.29 246.82 11.02H242.28C242.28 14.23 243.98 16.02 248.59 16.02Z" fill="white"/>
<path d="M224.7 32.36C222.18 32.36 220.15 30.45 220.15 27.3C220.15 24.15 222.15 22.24 224.7 22.24C227.25 22.24 229.24 24.15 229.24 27.3C229.24 30.45 227.24 32.36 224.7 32.36ZM224.7 37.89C231.3 37.89 236.13 33.43 236.13 27.3C236.13 21.17 231.3 16.71 224.7 16.71C218.1 16.71 213.27 21.17 213.27 27.3C213.27 33.43 218.1 37.89 224.7 37.89Z" fill="white"/>
<path d="M202.38 27.1799H199.89V22.4399H202.38C204.26 22.4399 205.16 23.3399 205.16 24.8099C205.16 26.2799 204.26 27.1799 202.38 27.1799ZM202.82 17.1799H193.06V37.4299H199.89V32.4299H202.82C208.46 32.4299 212.05 29.4299 212.05 24.7899C212.05 20.1499 208.46 17.1499 202.82 17.1499" fill="white"/>
<path d="M190.81 17.1797H172.22V22.4697H178.16V37.4297H184.87V22.4697H190.81V17.1797Z" fill="white"/>
<path d="M162.56 37.8897C166.56 37.8897 169.65 36.4397 171.64 33.8897L167.33 29.9997C166.835 30.7206 166.175 31.3121 165.404 31.7245C164.633 32.137 163.774 32.3582 162.9 32.3697C160.07 32.3697 158.16 30.3697 158.16 27.3097C158.16 24.2497 160.07 22.2497 162.9 22.2497C163.774 22.2629 164.632 22.4849 165.403 22.8971C166.173 23.3094 166.834 23.9 167.33 24.6197L171.64 20.7697C169.64 18.1697 166.52 16.7197 162.56 16.7197C156.04 16.7197 151.27 21.0897 151.27 27.3097C151.27 33.5297 156 37.8897 162.56 37.8897Z" fill="white"/>
<path d="M47.8 18.6399C46.4641 13.3128 43.3868 8.58464 39.0568 5.20632C34.7267 1.82801 29.3921 -0.00683594 23.9 -0.00683594C18.4079 -0.00683594 13.0733 1.82801 8.74324 5.20632C4.41316 8.58464 1.33586 13.3128 0 18.6399H11.64C12.5941 16.6779 14.002 14.9715 15.747 13.6621C17.492 12.3527 19.524 11.478 21.6745 11.1104C23.8249 10.7429 26.0321 10.8931 28.1129 11.5486C30.1938 12.2042 32.0885 13.3461 33.64 14.8799C34.7275 15.9739 35.6203 17.2455 36.28 18.6399H47.8Z" fill="white"/>
<path d="M0.0799561 30.6001C1.47427 35.852 4.56551 40.4956 8.87263 43.8085C13.1798 47.1213 18.4612 48.9175 23.895 48.9175C29.3288 48.9175 34.6102 47.1213 38.9173 43.8085C43.2244 40.4956 46.3156 35.852 47.71 30.6001H36.16C35.4897 31.9534 34.605 33.1894 33.54 34.2601C32.0079 35.8231 30.1214 36.9936 28.0406 37.6723C25.9598 38.351 23.746 38.5178 21.5869 38.1586C19.4279 37.7994 17.3874 36.9248 15.6383 35.609C13.8893 34.2932 12.4835 32.575 11.54 30.6001H0.0799561Z" fill="white"/>
<path d="M24.27 31.2201C25.3447 31.2748 26.417 31.074 27.3991 30.6342C28.3812 30.1944 29.2451 29.5282 29.92 28.6901L27.24 26.2901C26.9333 26.7386 26.5235 27.107 26.045 27.3645C25.5665 27.622 25.0333 27.7611 24.49 27.7701C24.0817 27.7835 23.6752 27.7095 23.2978 27.5531C22.9203 27.3968 22.5806 27.1616 22.3014 26.8634C22.0221 26.5652 21.8097 26.2109 21.6784 25.824C21.5471 25.4371 21.4999 25.0267 21.54 24.6201C21.4984 24.2127 21.5445 23.8012 21.6751 23.4131C21.8057 23.025 22.0178 22.6694 22.2973 22.37C22.5767 22.0707 22.9169 21.8347 23.2951 21.6777C23.6734 21.5208 24.0808 21.4466 24.49 21.4601C25.0333 21.4691 25.5665 21.6082 26.045 21.8657C26.5235 22.1232 26.9333 22.4916 27.24 22.9401L29.92 20.5401C29.2461 19.7002 28.3827 19.032 27.4005 18.5905C26.4184 18.149 25.3455 17.9466 24.27 18.0001C20.27 18.0001 17.27 20.7301 17.27 24.6101C17.27 28.4901 20.27 31.2101 24.27 31.2101" fill="white"/>
<path d="M11.58 18.6396V22.4496H0V26.7796H11.58V30.5896H15.67V18.6396H11.58Z" fill="white"/>
<path d="M32.13 30.5896V18.6396H36.22V22.4496H47.8V26.7796H36.22V30.5896H32.13Z" fill="white"/>
<path d="M254.84 47.0001L256 44.2901L257.07 47.0001H254.84ZM258.2 49.7301H259.91L256.77 42.7301H255.16L252.04 49.7301H253.7L254.32 48.2301H257.58L258.2 49.7301ZM249 46.4601H247.67V44.0001H249C250 44.0001 250.49 44.4501 250.49 45.2201C250.49 45.9901 249.99 46.4401 249 46.4401M249.09 42.6801H246.09V49.6801H247.71V47.7801H249.13C251 47.7801 252.13 46.7801 252.13 45.2401C252.13 43.7001 250.96 42.7001 249.13 42.7001M240.99 48.4501C240.543 48.46 240.103 48.3366 239.727 48.0954C239.35 47.8543 239.054 47.5065 238.876 47.0963C238.698 46.6862 238.646 46.2323 238.727 45.7926C238.808 45.3529 239.019 44.9473 239.331 44.6276C239.644 44.3079 240.045 44.0886 240.482 43.9977C240.92 43.9067 241.375 43.9483 241.789 44.117C242.203 44.2857 242.558 44.574 242.807 44.945C243.057 45.316 243.19 45.753 243.19 46.2001C243.205 46.4954 243.159 46.7906 243.055 47.0672C242.95 47.3438 242.79 47.5957 242.583 47.8071C242.376 48.0185 242.128 48.1848 241.854 48.2955C241.58 48.4061 241.286 48.4588 240.99 48.4501ZM240.99 49.8301C241.698 49.7891 242.378 49.5419 242.946 49.1189C243.515 48.6959 243.948 48.1157 244.19 47.4499C244.433 46.784 244.476 46.0617 244.313 45.3719C244.15 44.6821 243.789 44.0551 243.274 43.5683C242.759 43.0814 242.112 42.7559 241.415 42.6321C240.717 42.5082 239.998 42.5913 239.347 42.8711C238.696 43.151 238.141 43.6153 237.75 44.2069C237.36 44.7985 237.151 45.4914 237.15 46.2001C237.149 46.695 237.25 47.1848 237.445 47.6395C237.64 48.0942 237.927 48.5041 238.286 48.8441C238.646 49.1841 239.071 49.4469 239.536 49.6165C240.001 49.786 240.496 49.8587 240.99 49.8301ZM229.43 42.7001V49.7001H231.05V44.0001H234.22V49.6901H235.83V42.6901L229.43 42.7001ZM224.34 48.4501C223.893 48.462 223.452 48.3403 223.074 48.1004C222.696 47.8605 222.399 47.5135 222.219 47.1035C222.04 46.6936 221.986 46.2394 222.066 45.7991C222.146 45.3587 222.356 44.9522 222.668 44.6315C222.98 44.3109 223.381 44.0905 223.819 43.9987C224.257 43.9069 224.712 43.9479 225.127 44.1162C225.541 44.2846 225.896 44.5729 226.146 44.9441C226.396 45.3153 226.53 45.7526 226.53 46.2001C226.545 46.4945 226.5 46.7889 226.396 47.0648C226.292 47.3407 226.132 47.5921 225.926 47.8034C225.721 48.0146 225.474 48.1811 225.201 48.2924C224.928 48.4037 224.635 48.4574 224.34 48.4501ZM224.34 49.8301C225.048 49.7891 225.728 49.5419 226.296 49.1189C226.865 48.6959 227.298 48.1157 227.54 47.4499C227.783 46.784 227.826 46.0617 227.663 45.3719C227.5 44.6821 227.139 44.0551 226.624 43.5683C226.109 43.0814 225.462 42.7559 224.765 42.6321C224.067 42.5082 223.348 42.5913 222.697 42.8711C222.046 43.151 221.491 43.6153 221.1 44.2069C220.71 44.7985 220.501 45.4914 220.5 46.2001C220.499 46.695 220.6 47.1848 220.795 47.6395C220.99 48.0942 221.277 48.5041 221.636 48.8441C221.996 49.1841 222.421 49.4469 222.886 49.6165C223.351 49.786 223.846 49.8587 224.34 49.8301ZM213.41 44.0001H214.79V46.5501H213.37C212.45 46.5501 211.98 46.0801 211.98 45.2701C211.98 44.4601 212.48 44.0001 213.41 44.0001ZM213.41 42.6801C211.55 42.6801 210.41 43.6801 210.41 45.2901C210.38 45.7785 210.506 46.264 210.77 46.6758C211.034 47.0877 211.423 47.4044 211.88 47.5801L210.42 49.6901H212.13L213.38 47.8301H214.86V49.6901H216.46V42.6901L213.41 42.6801ZM205.15 47.0001L206.27 44.3101L207.38 47.0001H205.15ZM208.51 49.7301H210.22L207.08 42.7301H205.48L202.35 49.7301H204L204.62 48.2301H207.88L208.51 49.7301ZM199.76 42.7301V45.4901H196.57V42.7001H195V49.7001H196.62V46.8401H199.81V49.7101H201.43V42.7101L199.76 42.7301ZM192.29 49.7301H194.16L192.07 46.0001L194.07 42.6601H192.36L190.77 45.4901H189.77V42.7001H188.1V45.5301H187L185.43 42.7001H183.71L185.71 46.0401L183.6 49.7101H185.48L187.05 46.8901H188.05V49.7101H189.64V46.8901H190.64L192.29 49.7301ZM179.29 48.4301V46.7901H182.55V45.5201H179.29V44.0001H183V42.7001H177.7V49.7001H183.13V48.4001L179.29 48.4301ZM171.55 45.0001V44.0001H174V48.3701H170.86C171.392 47.3372 171.634 46.1795 171.56 45.0201M175.56 48.3701V42.7001H170.2L170.12 44.8901C170.04 46.8901 169.81 48.3601 168.9 48.3901H168.62V51.1701H170.12V49.7101H175.12V51.1701H176.62V48.3901L175.56 48.3701ZM163.28 47.0001L164.39 44.3101L165.5 47.0001H163.28ZM166.64 49.7301H168.34L165.2 42.7301H163.6L160.47 49.7301H162.13L162.76 48.2301H166L166.64 49.7301ZM157.88 42.7301V45.4901H154.69V42.7001H153.07V49.7001H154.69V46.8401H157.88V49.7101H159.51V42.7101L157.88 42.7301Z" fill="white"/>
</g>
<defs>
<clipPath id="clip0_32_2">
<rect width="259.91" height="51.17" fill="white"/>
</clipPath>
</defs>
</svg>
