<svg width="262" height="52" viewBox="0 0 262 52" fill="none" xmlns="http://www.w3.org/2000/svg">
<g clip-path="url(#clip0_16_2)">
<path d="M152.87 17.04H134.14V22.37H140.12V37.45H146.89V22.37H152.87V17.04Z" fill="#D65326"/>
<path d="M124.39 37.9201C128.39 37.9201 131.54 36.4601 133.55 33.8401L129.2 29.9601C128 31.4801 126.57 32.3501 124.74 32.3501C121.88 32.3501 119.96 30.3701 119.96 27.2501C119.96 24.1301 121.89 22.1501 124.74 22.1501C126.58 22.1501 128.01 23.0201 129.2 24.5401L133.55 20.6601C131.54 18.0301 128.39 16.5801 124.39 16.5801C117.83 16.5801 113.01 20.9801 113.01 27.2501C113.01 33.5101 117.83 37.9201 124.39 37.9201Z" fill="#D65326"/>
<path d="M101.11 32.26V29.58H109.74V24.62H101.11V22.23H110.94V17.04H94.34V37.45H111.32V32.26H101.11Z" fill="#D65326"/>
<path d="M82.52 27.13H80.01V22.35H82.52C84.42 22.35 85.32 23.25 85.32 24.74C85.32 26.22 84.42 27.13 82.52 27.13ZM82.96 17.04H73.13V37.45H80.02V32.43H82.97C88.66 32.43 92.28 29.46 92.28 24.73C92.28 20 88.65 17.04 82.96 17.04Z" fill="#D65326"/>
<path d="M70.85 17.04H52.12V22.37H58.1V37.45H64.87V22.37H70.85V17.04Z" fill="#D65326"/>
<path d="M240.9 37.4501H247.41L254.41 26.8601V37.4501H261.18V17.0401H254.7L247.67 27.6601V17.0401H240.9V37.4501ZM251.02 15.8701C255.66 15.8701 257.44 14.0901 257.44 10.8501H252.86C252.86 12.1301 252.36 12.7201 251.02 12.7201C249.68 12.7201 249.24 12.1401 249.24 10.8501H244.66C244.66 14.0901 246.38 15.8701 251.02 15.8701Z" fill="#16354E"/>
<path d="M226.89 32.3501C224.35 32.3501 222.31 30.4201 222.31 27.2501C222.31 24.0701 224.35 22.1501 226.89 22.1501C229.43 22.1501 231.47 24.0701 231.47 27.2501C231.47 30.4201 229.43 32.3501 226.89 32.3501ZM226.89 37.9201C233.54 37.9201 238.41 33.4301 238.41 27.2501C238.41 21.0701 233.54 16.5801 226.89 16.5801C220.24 16.5801 215.37 21.0701 215.37 27.2501C215.37 33.4301 220.24 37.9201 226.89 37.9201Z" fill="#16354E"/>
<path d="M204.39 27.13H201.88V22.35H204.39C206.29 22.35 207.19 23.25 207.19 24.74C207.2 26.22 206.29 27.13 204.39 27.13ZM204.83 17.04H195V37.45H201.89V32.43H204.84C210.53 32.43 214.15 29.46 214.15 24.73C214.15 20 210.52 17.04 204.83 17.04Z" fill="#16354E"/>
<path d="M192.72 17.04H173.99V22.37H179.97V37.45H186.74V22.37H192.72V17.04Z" fill="#16354E"/>
<path d="M164.25 37.9201C168.25 37.9201 171.4 36.4601 173.41 33.8401L169.06 29.9601C167.86 31.4801 166.43 32.3501 164.6 32.3501C161.74 32.3501 159.82 30.3701 159.82 27.2501C159.82 24.1301 161.75 22.1501 164.6 22.1501C166.44 22.1501 167.87 23.0201 169.06 24.5401L173.41 20.6601C171.4 18.0301 168.25 16.5801 164.25 16.5801C157.69 16.5801 152.87 20.9801 152.87 27.2501C152.87 33.5101 157.68 37.9201 164.25 37.9201Z" fill="#16354E"/>
<path d="M48.57 18.5102C45.92 7.73022 36.14 -0.279785 24.47 -0.279785C12.8 -0.279785 3.03 7.73022 0.380005 18.5102H12.11C12.77 17.1802 13.64 15.9302 14.74 14.8202C20.16 9.40021 28.91 9.36021 34.28 14.7302C35.41 15.8602 36.29 17.1502 36.94 18.5202H48.57V18.5102Z" fill="#16354E"/>
<path d="M0.470032 30.5603C3.23003 41.1803 12.92 49.0403 24.47 49.0403C36.02 49.0403 45.72 41.1803 48.48 30.5603H36.83C36.17 31.8903 35.3 33.1403 34.19 34.2503C28.77 39.6703 20.02 39.7103 14.65 34.3403C13.52 33.2103 12.64 31.9203 11.99 30.5503H0.470032V30.5603Z" fill="#D65326"/>
<path d="M24.85 31.1901C27.33 31.1901 29.29 30.2801 30.54 28.6401L27.84 26.2201C27.1 27.1701 26.21 27.7101 25.07 27.7101C23.29 27.7101 22.1 26.4701 22.1 24.5301C22.1 22.5801 23.3 21.3501 25.07 21.3501C26.21 21.3501 27.1 21.9001 27.84 22.8401L30.54 20.4201C29.29 18.7801 27.33 17.8701 24.85 17.8701C20.77 17.8701 17.78 20.6201 17.78 24.5201C17.78 28.4201 20.77 31.1901 24.85 31.1901Z" fill="#16354E"/>
<path d="M12.05 18.5103V22.3603H0.380005V26.7103H12.05V30.5603H16.18V18.5103H12.05Z" fill="#D65326"/>
<path d="M32.77 30.5603V18.5103H36.9V22.3603H48.57V26.7203H36.9V30.5603H32.77Z" fill="#16354E"/>
<path d="M257.28 47.0801L258.4 44.3701L259.52 47.0801H257.28ZM260.66 49.8401H262.38L259.22 42.7701H257.6L254.45 49.8401H256.13L256.76 48.3201H260.04L260.66 49.8401ZM251.35 46.5501H250.02V44.1001H251.35C252.35 44.1001 252.86 44.5501 252.86 45.3301C252.86 46.1001 252.35 46.5501 251.35 46.5501ZM251.45 42.7601H248.39V49.8301H250.03V47.8801H251.46C253.35 47.8801 254.53 46.9001 254.53 45.3201C254.52 43.7401 253.34 42.7601 251.45 42.7601ZM243.25 48.5601C241.99 48.5601 241.04 47.6401 241.04 46.2901C241.04 44.9401 241.99 44.0201 243.25 44.0201C244.51 44.0201 245.46 44.9401 245.46 46.2901C245.46 47.6401 244.51 48.5601 243.25 48.5601ZM243.25 49.9601C245.47 49.9601 247.12 48.4101 247.12 46.3001C247.12 44.1901 245.47 42.6401 243.25 42.6401C241.01 42.6401 239.38 44.2001 239.38 46.3001C239.37 48.4001 241.01 49.9601 243.25 49.9601ZM231.66 42.7601V49.8301H233.29V44.1001H236.49V49.8401H238.12V42.7701H231.66V42.7601ZM226.53 48.5601C225.27 48.5601 224.32 47.6401 224.32 46.2901C224.32 44.9401 225.27 44.0201 226.53 44.0201C227.79 44.0201 228.74 44.9401 228.74 46.2901C228.74 47.6401 227.79 48.5601 226.53 48.5601ZM226.53 49.9601C228.76 49.9601 230.4 48.4101 230.4 46.3001C230.4 44.1901 228.75 42.6401 226.53 42.6401C224.3 42.6401 222.66 44.2001 222.66 46.3001C222.66 48.4001 224.29 49.9601 226.53 49.9601ZM215.51 44.1001H216.91V46.6701H215.47C214.55 46.6701 214.07 46.2001 214.07 45.3901C214.07 44.5301 214.58 44.1001 215.51 44.1001ZM215.47 42.7601C213.6 42.7601 212.42 43.7501 212.42 45.4001C212.42 46.5101 212.95 47.3201 213.9 47.7001L212.43 49.8301H214.16L215.41 47.9501H216.91V49.8301H218.53V42.7601H215.47ZM207.19 47.0801L208.31 44.3701L209.43 47.0801H207.19ZM210.57 49.8401H212.29L209.13 42.7701H207.51L204.36 49.8401H206.04L206.67 48.3201H209.95L210.57 49.8401ZM201.75 42.7601V45.5501H198.53V42.7601H196.89V49.8301H198.53V46.9301H201.75V49.8301H203.39V42.7601H201.75ZM194.22 49.8401H196.11L194 46.1401L195.98 42.7601H194.25L192.65 45.6201H191.6V42.7601H189.99V45.6201H188.91L187.32 42.7601H185.59L187.58 46.1401L185.46 49.8401H187.35L188.94 46.9901H189.99V49.8401H191.6V46.9901H192.63L194.22 49.8401ZM181.11 48.5201V46.8801H184.4V45.6101H181.11V44.0701H184.83V42.7601H179.48V49.8301H184.96V48.5201H181.11ZM173.32 45.1301L173.35 44.1001H175.77V48.5101H172.61C173.09 47.9301 173.26 46.6301 173.32 45.1301ZM177.39 48.5001V42.7601H171.95L171.87 44.9701C171.8 46.9501 171.56 48.4701 170.64 48.5001H170.36L170.35 51.3001H171.87V49.8301H176.87V51.3001H178.39V48.5001H177.39ZM164.97 47.0801L166.09 44.3701L167.21 47.0801H164.97ZM168.36 49.8401H170.08L166.92 42.7701H165.3L162.15 49.8401H163.83L164.46 48.3201H167.74L168.36 49.8401ZM159.54 42.7601V45.5501H156.32V42.7601H154.68V49.8301H156.32V46.9301H159.54V49.8301H161.18V42.7601H159.54Z" fill="#16354E"/>
</g>
<defs>
<clipPath id="clip0_16_2">
<rect width="262" height="51.58" fill="white"/>
</clipPath>
</defs>
</svg>
